<?xml version="1.0" encoding="UTF-8"?><svg id="Layer_2" xmlns="http://www.w3.org/2000/svg" xmlns:xlink="http://www.w3.org/1999/xlink" viewBox="0 0 300 300"><defs><style>.cls-1{fill:#E0EBFE;fill-rule:evenodd;}.cls-2{fill:none;}.cls-3{clip-path:url(#clippath);}</style><clipPath id="clippath"><rect class="cls-2" width="300" height="300"/></clipPath></defs><g id="States"><g id="Alabama"><g class="cls-3"><path class="cls-1" d="M67.57,239.53l5.87,53.62,12.13-2.33c3.19-7.24-1.37-17.24,6.94-20.24,4,4.01,3.13,10.26,5.42,15.44,1.51,3.41,3.46,3.68,4.41,6.28,1.65,4.5-.89,2.84-3.02,7.71,6.28-.61,12.96-1.56,15.64-6.12,12.34-21.01,1.33-22.67-2.6-29.39-2.96-5.06-4.79-12.6-.58-16.43,2.1-1.87,71.68-7.27,85.7-8.88l20.85-2.6c4.13-.67,3.75-.28,6.44-2.13,5.27.72,10.7-.77,15.77-2.73.89-14.05-5.32-38.17-5.24-47.67.23-26.42,8.56-.37-8.48-42.3C216.08,115.36,192.52,28.68,184.66,0L59.91,11.05c-1.46,15.76.61,40.41.81,57.35.65,53.85-2.41,121.95,6.86,171.13h0Z"/></g></g></g></svg>