<?xml version="1.0" encoding="UTF-8"?><svg id="Layer_2" xmlns="http://www.w3.org/2000/svg" xmlns:xlink="http://www.w3.org/1999/xlink" viewBox="0 0 300 300"><defs><style>.cls-1{fill:#E0EBFE;fill-rule:evenodd;}.cls-2{fill:none;}.cls-3{clip-path:url(#clippath);}</style><clipPath id="clippath"><rect class="cls-2" width="300" height="300"/></clipPath></defs><g id="States"><g id="Alaska"><g class="cls-3"><path class="cls-1" d="M48.71,119.67c17.4.89,13.09,5.09,17.35,5.06,2.39-.01,2.63-3.45,11.65-3.57-.29,5.01-3.17.89-2.87,9.65.19,5.64-.02,5.42-2.89,8.84-9.5.41-2.26-3.03-11.07,2.59-2.02,1.29-3.26,1.7-5.1.18-.84-.69-2.36-2.66-2.46-3.94-6.87-1.11-11.37,9.6-11.38,9.61-3.34,1.83-4.51-.5-6.99,3.27-2.16,3.28-2.22,2.35-4.82,4.72-5.62,5.12.48,8.85,2.44,12.46l-4.04,5c.65,3.65,2.57,4.44,3.38,6.75.28.8-.73,10.9,9.31,10.87,5.51-.02,3.4-2.3,7.86-2.6.57,3.48.51,3.17-.37,6.49-1.28,4.83.99,3.13-1.17,9.77-1.65,5.07,1.54,1.02-1.76,4.48-.5.52-.49-.36-1.02,1.49,2.8.44,4.41-1.04,5.8.25,1.09.53,1.31.62,2.77.77.69-1.85-.05-2.3-.18-4.45,1.07.18,7.7,2.47,9.21,4.34,2.12,2.62,2.51,6.26,5.48,7.47,1.81-1.78.8-2.29,2.72-4.15.63-.62,3.41-2.62,3.98-2.73.76,3.06-1.34,2.36.44,5.9,3.39,1.18,6.55-2.89,10.59-2.94-.43,1.55-4.75,4.87-6.06,6.18-4.55,4.52-3.07,3.1-3.83,9.57-1.65.67-3.78,1.84-5.24,3.05-1.35,1.11-1.16.77-1.96,2.44-.28.59-.31.88-.54,1.39-.07.14-.14.32-.21.45l-.5.83c-.99,1.66-6.82,2.16-10.07,4.56-4.14,3.05-2.58,4.88-10.22,4.59-5.62-.21-7.79.38-11.78,2.73-3.29,1.94-6.24,3.46-7.86,6.79-3.74-1.16-9.44-4.44-14.91-2.1-1.6.68-4.08,2.65-5.3,3.6-2.96,2.3-2.49,1.85-6.67,2.33L0,264.09c.42-.11,3.55-1.05,3.79-1.1,2.76-.6.73-.14,4.62.77,1.65-4.61,2.4-1.39,5.33-2.26,3.35-1,5.31-3.42,7.16.59.67-.98.01-2.94,3.08-1.95,1.7.55,2.77,1.69,3.83,2.37,5.09-3.52,3.99-5.81,12.75-4.63,2.84.38,4.56,1.22,7.27,1.59,1.94.26,2.77-.06,4.07.13,3.46.5-.5.87,3.05,1.01.64-3.87-.8-.5-1.81-3.52,4.16-4.05,7.8-3.15,13.06-5.53,7.99-4.12,3.48-.75,8.07-2.87,3.21-1.48,4.22-3.43,6.39-5.08,9.64-7.32,8.75-1.72,15.56-6.74,5.57-4.11,10.29-5.87,12.93-9.4,7.43-9.92,4.76-6.14-.88-11.84,1.03-4.85,4.27-3.08,8.35-5.53,2.45-1.47,5.15-4.49,7.59-6.59-.13-10.63,4.45-4.9,9.45-12.09,1.86-2.67,3.15-3.05,7.06-3.89,4.62-1,4.23-2.49,7.82-3.4-.81,3.39-3.44,3.71-1.67,7.34.98,2.01.53-.09,1.64,2.39-8.76-2.12-6.23-5.72-12.94,2.63-.6.75-6.35,12-6.64,14.02,1.81,1.58,2.12.5,3.72,2.55-2.42,3-4.07.51-4.49,4.32,2.41,1.47,3.86,1.22,6.61-.02,2.66-1.2,4.64-1.04,6.33-1.98,1.69-.94,2.16-2.53,4.14-4.13,1.89-1.53,2.62-2.16,4.36-3.8,2.21.97.15.38,2.55,1.3,3.28-1.95,4.17-2.16,8.57-3.11.62,2.88.52,3.97,2.9,5.46,4.02-1.05,3.36-3.07,4.16-7.51l-7.48,1.97-.05-5.7c-.97-.75-1.95-1.47-2.98-1.97.38-3,1.06-1.74.53-5.12,5.71-.23,5.97-1.61,9.78-2.12l-1.14,4.75c6.71-.51,8.9-1.9,7.74,5.31,3.7-.21,4.35-.8,7.85.39l.81,3.76c5.93-.53,4.41,1.42,8.51,2.84,3.14,1.08,6.7-.75,9.92-1.11,7.93-.9,16.41,6.02,21.12,7.67,5.7,1.99,5.71,4.66,9.78,7.42,2.82,1.92,4.58,2.17,7.01,4.47,2.22,2.1,3.47,4.74,5.42,6.43,2.81-.59,4.96-2.72,7.65-2.83.67,1.59.18,1.67.77,3.49.73,2.27.91,1.34,1.95,3.75-3.64-1.11-3.39-1.69-5.28-4.07l-4.22.9c2.7,3.85,7.8,9.31,7.86,14.19.13.11.28.29.36.38.07.09.25.27.34.38l1.27,2.07c.47.88.75,1.49,1.42,2.39,1.53,2.06,2.33,2.75,4.56,1.93l.34-3.2-2.07-6.34c.28-.16.56-.45.65-.3.08.14.39-.19.5-.26,2.53-1.64,1.29,1.19,1.8-2.11.4-2.53-.98-3.14-1.46-4.23l-.35-1.62c-.7-4.17-1.58-1.56-2.13-6.38,3.3,1.78-.13.71,5.43,4.41,2.67,1.77,1.76,3.3,4.03,5.51,2.56,2.5,7.38,9.04,7.88,11.32-3.39,2.24-2.78-.73-6.39,3.19l2.6,11.33c1.92,4.72,4.84,3.54,6.33,5.33.98,1.18.32-.82.54,1.23.13,1.24-.04.96-.32,1.56-.12.01-.32-.15-.36-.04l-2.95-1.69c-1.94-1.48-1.26-1.56-3.69-1.46.14,2.05,1,2.48,2.94,3.47.97.5,1.41.56,2.49,1.22,1.51.93.74.66,2.57,1.92,2.11-1.55.96-1.07,2.55-2.85,2.69.61,1.55,3.22,3.43,1.66.69-.57,1.07-.83.59-2.37-1.04-3.32.27-.31-2.35-1.87-2.48-1.48-1.47-2.3-2.99-4.02-2.7-3.06-.97.92-2.81-4.05h-4.67s.4-2.25.4-2.25c.1-2.48-.74-2,2.01-2.47,1.78,3.3-1.26.66,2.34,3.15l5.56,5.95c.42.52.74,1.07,1.08,1.48l1.85,1.63c.94-1.58.73-.99.22-4.29l.2-3.9c.04-.12.12-.33.22-.48,3.04,1.63.16,1.3,2.74,3.58.09.08,1.03.47,1.7.97l-.45,2.04c.01.17.07.38.09.54l.39,1.11c3.62-1.42.68-1.14,2.86-2.05-.28,2.49-1.21,1.16-.24,4.61,8.15,1.42,5.34-12.12,4.15-17.52-11.86-7.38-8.13,5.91-25.46-22.32-4.83-7.86-2.63-5.74-11.16-12.43-9.68-7.59-7.22-12.73-10.1-14.22-3.31-1.13-6.4,2.66-8.13,4.51-2.18,2.33-2.81,6.35-6.75,7.25-3.76-1.91-3.15-4.24-6.05-6.7-3.13-2.66-6.09-.88-5.22-7.41l-1.14-3.36c-3.12.25-7.58,2.75-9.67,1.36-3.1-2.38-.54-16.59-2.28-20.34,1.7-5.28-.68-54.62-.92-64.31-.52-20.76-.07-42.91-1.2-63.46-2.91-1.68-5.16-2.57-7.03-4.41-2.09-2.06-3.08-4.05-7.06-3.24-4.7,1.96-6.22,2.49-10.64-.11-6.74-3.96-3.07-2.57-11.3-2.54-1.93-1.02-1.56-1.35-3.38-2.55-2.44-1.6-8.54-4.55-11.18-4.07-3.6.66-3.97,2.41-7.99-.32-7.57-5.14,4.23-7.6-11.24-6.9l-1.91-2.83c-5.7,2.61-2.5-2.46-8.93-6.28-2.67,1.59-3.51,4.16-7.01,6.49-1.21-.48-2.72-4.1-8.7-.07-5.83,3.93-3.84.44-7.86.75-1.79.14-4.25,3.43-5.84,4.69-3.22,2.57-5.08,1.93-7.38,3.45-2.77,1.84-5.03,10.17-8.87,12.82-6.8,4.7-11.56.53-17.48.3-1.33,2.51-2.74,5.6-3.75,7.72,1.01,1.76,2.95,3.28,4.42,5.09l6.92,12.23c1.52,2.97-.49,3.24.28,7.37,4.11,2.8,4.59,3.24,9.64,1.87.21,6.96.91,2.68,4.56,7.24-.86,2.99.01.3-.97,1.98-.52.89.06-.33-.86,1.21,1.22,1.81,1.68,1.39,1.81,3.59-3,.98-3.02-.12-5.93-.32l-1.31,3.73c-4.97-.04-13.68-2.31-16.38-5.72,1.07-3.1,2.71-3.41,2.74-7.06-7.97-3.57-9.63,1.37-15.21,2.05-3.29.4-6.67-.78-9.18.93-4.25,2.9,1.84.26-5.99,3.45.1,5.56,7.78,7.58,6.16,11.99-2.95,8.04.21,4.47,5.05,11.92h0Z"/></g></g></g></svg>