<?xml version="1.0" encoding="UTF-8"?><svg id="Layer_2" xmlns="http://www.w3.org/2000/svg" xmlns:xlink="http://www.w3.org/1999/xlink" viewBox="0 0 300 300"><defs><style>.cls-1{fill:#E0EBFE;fill-rule:evenodd;}.cls-2{fill:none;}.cls-3{clip-path:url(#clippath);}</style><clipPath id="clippath"><rect class="cls-2" width="300" height="300"/></clipPath></defs><g id="States"><g id="Arizona"><g class="cls-3"><path class="cls-1" d="M175.49,13C173.62,11.66,100.55-.26,94.03,0c-3.27,7.52-5.73,28.98-8.2,38.29-1.48,5.59-4.6,13.58-10.95,12.19-5.12-1.12-7-8.54-13.92-10.01-6.12,1.57-7.27,5.85-6.02,12.49,1.6,8.47,1.17,10.46,1.27,19.03.12,10.23-10.76,22.51.29,31.1l-.03.96c.14,6.23-.52,10.57,2.05,16.08,2.57,5.53,5.29,5.67,7.29,10.18-1.82,5.51-8.16,6.53-13.63,9.82-6.52,3.92-3.83,9.46-6.67,13.65-1.72,2.54,1.04,1.05-2.56,2.16l-.6-.23c1.78,2.03.96-.46,1.25,2.83.21,2.38.34,1.53-.85,3.03-.94,1.18-3.89,2.29-4.93,2.79-.51,13.55,3.06,8.61-6.56,15.57,2.52,6.92,2.08,4.28,7.02,7.96-.06,2.15-2.35,9.46-3.74,12.27-2.3,4.64-7.6,3.26-12.54,4.89-1.11,3.62-1.22,5.09.05,8.92,1.48-.07,1.03-.12,2.92.85,2.93,4.71,94.44,54.33,114.17,66.9,5.51,3.51,10.31,7.61,17.99,8.67,11.29.96,81.84,10.77,85.87,9.45L278.89,27.13l-8.04-.53c-1.45-.89-90.25-14.1-95.35-13.61h0ZM122.1,181.3l-.13-.52.13.52h0Z"/></g></g></g></svg>