<?xml version="1.0" encoding="UTF-8"?><svg id="Layer_2" xmlns="http://www.w3.org/2000/svg" xmlns:xlink="http://www.w3.org/1999/xlink" viewBox="0 0 300 300"><defs><style>.cls-1{fill:#E0EBFE;fill-rule:evenodd;}.cls-2{fill:none;}.cls-3{clip-path:url(#clippath);}</style><clipPath id="clippath"><rect class="cls-2" width="300" height="300"/></clipPath></defs><g id="States"><g id="Arkansas"><g class="cls-3"><path class="cls-1" d="M47.34,290.15c4.09,3.5,85.71-1.58,91.23-1.76,27.05-.89,68.38-.96,93.96-5.28,2.55-8.1-3.31-10.1-4.29-17.97-1.48-11.9,5.97-11.48,2.7-20.7-2.17-6.1-8.12-10.35-5.17-19.27,1.73-5.2,9.42-11.49,12.41-14.5l-1.99-17.07c3.79-4.26,12.94-11.83,17.07-14.51.09-11.68-5.63-19.87,7.37-27.15,15.22-8.53,1.14-3.93,14.83-22.33,2.98-4,6.31-16.84.12-18.63-1.72-12.85,2.42-10.69,5.43-16.46l14.63-32.46c.22-1.81,2.32-6.3,4.36-9.88-11.37.58-33.26.33-37.14-1.93-1.6-15.42,27.78-29.27,7.61-39.94-9.27-4.9-80.63,2.4-102.32,3.09-54.67,1.74-114.07,1.43-168.15,5.88.25,17.82,10.29,74.53,12.04,107.85.93,17.83-1.96,110.89,1.94,117.8,6.96,4.48,21.81,3.57,29.88,5.81.64,5.84.75,12.72.98,19.12.2,5.58-.52,16.15,2.5,20.31h0Z"/></g></g></g></svg>