<?xml version="1.0" encoding="UTF-8"?><svg id="Layer_2" xmlns="http://www.w3.org/2000/svg" xmlns:xlink="http://www.w3.org/1999/xlink" viewBox="0 0 300 300"><defs><style>.cls-1{fill:#E0EBFE;fill-rule:evenodd;}.cls-2{fill:none;}.cls-3{clip-path:url(#clippath);}</style><clipPath id="clippath"><rect class="cls-2" width="300" height="300"/></clipPath></defs><g id="States"><g id="California"><g class="cls-3"><path class="cls-1" d="M156.22,267.91c1.54,3.37,3.6,6.52,4.38,11.23.79,4.81-.94,3.23-.99,5.98-.03,1.72,1.34,3.58,1.24,6.44,1.74,1.44.31,1.46,2.55,2.5,1.01.47,3.33.77,4.42.93,6.36,2.1,51.87,6.99,56.21,4.13,2.07-1.52,2.25-3.4,1.14-6.08-1.68-4.03-4.6-3.64-3.39-6.37,2.6-2.59,4.21.03,5.18-5.36,1.63-9,.88-3.37,3.68-7.22l.34.13c1.57-13.88,6.28-9.61,10.78-14.1-.35-2.5-2.24-3.89-3.56-6.43-2.19-4.21-.42-4.67-1.05-7.83-.96-4.9-5.17-10.4-6.98-14.12-1.37-.6-4.57-5.85-5.82-7.57l-4.11-5.89c-1.04-1.44-.79-1.2-2.02-2.08l-14.71-21.28c-20.2-27.93-39.89-57.32-59.93-85.33-3.24-4.52-.87-7.95.57-13.86l10.87-43.73c1.43-5.47,6.92-24.86,6.98-29.28L102.7,6.45c-6.63-1.09-18.62-5.85-24.21-5.94l-1.05-.51c-.37,3.58-.1,5.35-1.71,8.29-2.77,5.07-1.43,1.5-1.1,7.49.47,8.55-5.32,9.18-6.58,13.69-.97,3.45-.2,5.4-2.48,7.62-2.68,2.62-3.61.82-5.23,4.78-2.83,6.91-3.01,8.74.8,14.37,8.49,12.58-1.34,19.67.32,31.99,1.16,8.58,2.38,7.48,5.96,14.04,5.34,9.77,3.18,9.11,3.04,15.43,3.78,2.29,6.58,1.7,7.76,7.01l2.63-.39c1.39-3.84-.46-3.84,2.45-7.08.11-.05,4.01-.89,6.45,1.1,1.32,1.08-1.2,1.64,2.71.95,1.75-.31.28-.45,2.68-1.11l.88,2.55,2.22.22c.2,3.03-.43,1.31-1.11,3.27-4.67.61-1.76-1.03-5.48-2.2-1.73-.55-4.07-.26-6.16-.34-1.23,10.09,1.1,9.54.59,13.8-2.66-.04-2.72-.87-3.41-3.48-.47-1.81-.87-3.43-1.38-5.28l-2.86.14c-.76,2.37-.28,4.68-.62,7.23-.82,6.07-3.7,3.22,1.57,17.42,2.9-.16,5.57-.26,6.21,2.89.95,4.72-1.23,4.14-3.39,5.64-3.55,2.46-1.83,9.38.11,12.51,3.16,5.11,3.17,11.39,8.64,18.07,2.83,3.46,1.43,1.88,1.19,6.04,1.7,2.28,3.71,3.02,4.89,5.57-.49,2.93-2.21,2.21-1.72,4.74.4,2.06,1.63,1.95,1.16,5.06-.59,3.91-1.51,7.7-1.91,11.77,9.52,5.58,3.29,1.38,10.11,3.79,3.23,1.14,6.35,2.13,9.86,3.47,6.18,2.35,4.33,1.29,7.09,6.8,1.08,2.15,4.25,6.59,7.25,6.95.67.86,6.33-.79,8.45,1.82,1.65,2.04,1.41,6.75,1.57,9.83l2.78-.1c5.03-1.15,6.2,2,8.38,4.27,1.69,1.76,4.9,6.49,6.17,7.26h0ZM116.83,198.32l1.54-.1-1.54.1h0Z"/></g></g></g></svg>