<?xml version="1.0" encoding="UTF-8"?><svg id="Layer_2" xmlns="http://www.w3.org/2000/svg" xmlns:xlink="http://www.w3.org/1999/xlink" viewBox="0 0 300 300"><defs><style>.cls-1{fill:#E0EBFE;fill-rule:evenodd;}.cls-2{fill:none;}.cls-3{clip-path:url(#clippath);}</style><clipPath id="clippath"><rect class="cls-2" width="300" height="300"/></clipPath></defs><g id="States"><g id="Colorado"><g class="cls-3"><path class="cls-1" d="M1.84,244.29c12.22,4.74,279.57,27.43,288.42,24.78,2.14-14.5,9.1-168.23,7.3-173.45l.63-1.77c.05-.24.19-.64.25-.95l1.57-39.19c-22.45-2.68-47.02-3.34-69.77-4.78-31.49-1.99-199.29-19.16-202.75-18.16-2.07,6.46-3.33,14.46-2.66,21.09-.12.16-.25.5-1.03,3.9-5.29,29.21-15.34,121.63-17.96,141.08l-4.67,35.95c-.59,4.37-2.64,9.62.67,11.49h0Z"/></g></g></g></svg>