<?xml version="1.0" encoding="UTF-8"?><svg id="Layer_2" xmlns="http://www.w3.org/2000/svg" xmlns:xlink="http://www.w3.org/1999/xlink" viewBox="0 0 300 300"><defs><style>.cls-1{fill:#E0EBFE;}.cls-2{fill:none;}.cls-3{clip-path:url(#clippath);}</style><clipPath id="clippath"><rect class="cls-2" width="300" height="300"/></clipPath></defs><g id="States"><g id="Connecticut"><g class="cls-3"><path class="cls-1" d="M262.55,201.89l-.79,2.5,1,1.43c5.95,2.48,8.84-4.03,13.78-5.62.44-.13.8-.75.99-1.13-2.22.38-13.37,1.2-14.99,2.81ZM299.04,48.75c-42.26-.87-86.2-1.09-127.44-2.05,0,0-21.35-.32-21.35-.32l-.89,4.77-6.72.67-.19-5.44c-34.88-1.88-69.82-3.37-104.75-4.49-3.29,52.58-6.62,105.15-9.97,157.72,3.08,5.25,5.88,10.91,9.42,15.89-12.05,8.32-24.88,15.55-37.15,23.57,2.74,4.52,5.54,9.01,8.38,13.47,1.77,1.33,2.98,3.38,3.43,5.58,1.96-1.19,3.98-2.27,6.06-3.25l.56-.81,3.17,2.59,2.99-.2c1.65-.96,4.32-3.43,5.5-4.93l1.44,1.76,2.92-5.02,2.55,1.03,1.66-.2,5.73-3.76c2.49-.58,7.75-5.36,10.23-5.94l1.18-2.24,2.73-1.56,3.03-.89c2.55-.21,3.63-.64,5.1-2.78,1.49-1.04,3.5.37,4.8,1.15,2.67.45,3.55-3.48,5.5-4.51.17-.69.56-2.14,1.15-2.6.69.45,1.14,1.62,2.14,1.41.68-.42,5.43-4.54,6.28-4.22l1.81,1.22.74,1.4,1.07.78c8.57-.96,4.45-5.67,12.45-8.35,3.94-4.17,5.3-1.53,9.6-3.48,1.14-.87,4.55-5.95,5.43-7.18,0,0,5.8-5.64,5.8-5.64.47-1.52,1.88-3.41,3.1-4.41l.67.95.41,4.81,1.22,2.33,1.99.74,9.13-.26c.63.36,2.06,1.05,2.77,1.19,2.71-3.07,8.52-3.31,12.18-2.55,1.44.67,2.99,2.16,4.44,2.8l1.95.02c1.41-.77,2.63-2.62,3.88-3.61,10.64-2.54,8.93-2.77,18.83,2.13l1.73-1.33h1.14c.27,1.2,1.5,1.93,2.22,2.82l1.99-2.84,3.14-2.23,3.47-1.42,3-.43,6.65,2.52,3.29.24,2.91-2.76c-.48-.12-1.76-1.23-2.14-1.54l1.59-4.9-1.44-3.24-2.55-2.72-1.84-3.35,2.98.31,2.26,1.41,1.56,1.99.73,2.06c-.05,4.26-3.2,6.18,2.59,8.19.54,1.03,5.04,2.75,6.04,3.25l9.54-5.71,4.17,2.72.89-5.44,4.09.27,5.06,2.15,3.85.21,1.52-2.36.92-4.85,1.81-1.25,7.36,7.06c.86-.41,10.61-6.02,11.33-5.67,4.25.06,12.92-1.44,15.74,2.63v1.16l-2.44.46v1.42l5.13-.74c1.8-5.05,1.12-14.39,4.25-18.92l2.03-.54c2.97-41.87.23-83.97.43-125.91Z"/></g></g></g></svg>