<?xml version="1.0" encoding="UTF-8"?><svg id="Layer_2" xmlns="http://www.w3.org/2000/svg" xmlns:xlink="http://www.w3.org/1999/xlink" viewBox="0 0 300 300"><defs><style>.cls-1{fill:#E0EBFE;fill-rule:evenodd;}.cls-2{fill:none;}.cls-3{clip-path:url(#clippath);}</style><clipPath id="clippath"><rect class="cls-2" width="300" height="300"/></clipPath></defs><g id="States"><g id="Delaware"><g class="cls-3"><path class="cls-1" d="M213.59,300l-120.42-.73-7.82-271.28c7.03-2.64,7.56-15.1,13.98-20.19,5.45-4.81,27.09-13.4,41.92-2.58,1.66.52-2.8,4.94-7.5,11.25-1.05,1.41.68,4.97-.26,6.54-1.61,2.74-4.85,3.31-6.38,6.15-1.7,3.15-.7,5.66-2.39,8.55-3.29,5.6-7.95,7.27-9.14,10.91-1.68,5.14,7.8,7.2,6.47,12.54-3.72,13.47-2.64,24.6,7.06,34.88,4.02,5.24,2.57,10.47,6.1,13.43,1.81,1.37,4.45.05,6.3,1.37,3.36,2.39,3.9,5.62,5.63,10.76,3.37,3.73,4.28,6.4,4.09,11.74-.04,2.39,2.97,3.39,2.71,5.06-.26,1.65-3.43,4.07-4.25,6.46-1.34,3.92,1.88,5.05,2.89,8.74-1.21,15.91-1.03,8.73,9.86,21.26,6.34,11.92,4.16,13.89,8.23,27.25,1.11,3.51,6.75,1.84,8.54,5.97,1.42,3.28-.04,4.7,1.49,8.34.9,2.15,12.93,7.41,13.89,9.64,1.69,3.93,8.49-6.48,12.05-.58,3.56,5.9,3.9,28.11,4.5,31.38.24,1.32-6.42-3.73-7.82-2.77-1.84,1.27,1.93,4.1.93,7.03-.72,2.12-10.63,2.93-11.92,4.02-.99,1.07-5.28,7.79-4.5,8.8.78,1,12.16-5.64,12.99-4.13,6.67,18.86,7.38-6.29,11.26-5.19,3.48,3.97,2.85,26.95,1.52,35.38h0Z"/></g></g></g></svg>