<?xml version="1.0" encoding="UTF-8"?><svg id="Layer_2" xmlns="http://www.w3.org/2000/svg" xmlns:xlink="http://www.w3.org/1999/xlink" viewBox="0 0 300 300"><defs><style>.cls-1{fill:#E0EBFE;}.cls-2{fill:none;}.cls-3{clip-path:url(#clippath);}</style><clipPath id="clippath"><rect class="cls-2" width="300" height="300"/></clipPath></defs><g id="States"><g id="Florida"><g class="cls-3"><path class="cls-1" d="M300,192.5c-1.46-17.62-9.41-33.37-17.34-48.85-3.83-6.45-6.84-13.28-6.77-20.93-.49-3.13,2.39-6.1.55-9.12-7.49-13.54-18.93-24.4-25.68-38.31-2.76-5.4-4.9-11.12-8.23-16.24-1.95-4.17-.78-9.15-2.83-13.41-2.12-4.87-.19-11.96-4.64-15.58-4.8-.96-2,4.94-4.89,4.03-1.9-4.93,4.46-3.81,5.42-6.93.55-2.01-1.58-3.4-1.73-5.35-.68-2.96,1.49-6.43-2.63-7.42-.42-.16-1.08-.49-1.09-.78-.34-1.71-6.6-1.03-8.47-1.83-18.98-6.12-5.45,9.11-11.98,16.48-4.26,3.11-3.36-7.22-6.79-7.8-21.49-.67-42.95-1.29-64.42-1.96-10.4-.34-20.78-.53-31.17-.84-4.36-1.06-6.44-6.32-7.05-10.47-32.41,0-66.19.5-98.44.46-.85,0-1.27.29-1.43,1.13-1.46,6.06,1.42,9.48,6.04,13.01,1.88,3.44.16,8.1,3.44,11.01,3.57,1.47,10.87,1.46,8.41-4.44,2.03.94,2.83,2.57,4,3.88-1.27.06-3.41.16-3.09,1.98.2,1.02.95,1.03,1.7,1.01,6.36-1.17,12.69.31,19.02.06,1.65-.46,1.13-3.17,3.14-3.05,2.45.7,12.99-1.17,12.46,1.4-2.15-.27-3.61,1.95-5.56.59-1.74-1.07-8.24-.39-5.24,2.41,5.43,1.32,10.88,2.8,16.43,3.7,3.23.16,9.37,7.03,11.31,5.09,1.51-1.99-1.66-2.98-2.75-4.2-.76-.71-1.27-1.2-.44-2.26.76.75,1.62,1.53,2.74,1.61,3.08-.74.51,4.13,2.4,5.87.17.44.13.95-.11,1.36-2.32,4.26,4.56,3.42,6.46,5.52,1.62,2.72,4.62,5.21,4.9,8.39-.9-.47-1.97-.62-2.94-.76-1.19,2.88,2.97,5.52,5.53,4.01,2.22-1.31,4.97-.76,7.43-1.03,1.75-.1,3.6-.5,4.56-2.48,1.43-2.05,3.9-.99,3.47,1.52,2.18,5.39,6.42-7.4,14.45-5.7,2.19-.03,8.29.91,4.56-2.78-2.63-2.02,3.17-6.22,4.66-7.66.38-.09.81,0,1.11.26,2.05,2.68,4.96.43,7.55.32,9.84-.24,15.71,15.47,24.58,20.01,3.11,4.45.11,5.43,6.11,9.57,1.06,4.4,4.31,8.04,8.79,9.26,14.76,1.59,5.9,3.01,11.5,8.36,6.07,5.5,2.41,16.03,3.27,23.49.57,3.69-2.52,5.01-3.6,7.99-1.62,8.07.12,15.97,5.16,22.35,5.66,2.7,3.84-6.43,1.2-8.46-.6-.7-1-1.5-1.2-2.4,4.25-4.11,6.92,14.96,10.26,1.92h.44c3,8.94-6.93,5.02-4.68,16.25.28,3.07-3.44-.39-4.57,1.9-1.16,3.56,6.52,7.15,6.47,11.46.58,7.54,6.44,14.4,12.17,18.74,3.32-.1,1.11-3.15-.19-4.72l.18-.26c1.98,1.28,4.01,2.08,6.31.54-1.56,6.39,2.55,24.19,8.82,10.44,3.21,5.09-10.47,9.44-.01,11.54,1.39-.3,1.58-.2,1.76,1.2-2.32,22.15,23.5,21.31,30.61,37.48-5.19.6-1.26,5.13.22,7.41.62.75,2.33.84,3.05,1.4.84,1.2,2.83,2.29,2.52,3.9-1.38,2.46-2.94-.41-4.18-1.4-6.23-1.55.64,12.34,8.45,5.98,1.13-.55,1.82.99,2.97.96,3.62-.58,7.46-2.21,10.6-4.18,2.22-1.33,3.02-4.17,5.38-5.24,2.03-.51,2.25-2.46,3.54-3.75,1.29-1.01,1.35-1.44.94-3-.97-4.88,1.98-9.67,3.89-13.9.9-13.28,2.37-26.54,3.23-39.78Z"/><path class="cls-1" d="M293.01,251.5c-3.09.18-.75,8.26-6.79,12.17-7.81,6.06-.17,6.6,3.52,1.27,2.08-2.4,7.44-11.65,3.28-13.44Z"/><path class="cls-1" d="M248.03,282.13c-2.9,1.38.71,4.7,2.72,3.11,2.02-1.65-.82-4.21-2.72-3.11Z"/><path class="cls-1" d="M268.51,276.93c-3.84.53-2.64,3.69.48,2.7,2.03-.33,1.67-3.14-.48-2.7Z"/><path class="cls-1" d="M274.41,274.43c-1.95-1.33-3.68,1.49-1.68,2.82,2.55,1.45,3.62-1.8,1.68-2.82Z"/><path class="cls-1" d="M245.08,286.21c-1.59-.62-3.34,1.26-1.44,2.43,1.86,1.23,3.51-1.72,1.44-2.43Z"/><path class="cls-1" d="M255.59,283.5c-1.63-.04-2.04,1.47-1.1,2.54,1.62,1.61,3.14-2.77,1.1-2.54Z"/><path class="cls-1" d="M230.33,290.2c-1.88-.81-2.04,3.13-.08,2.53,1.19-.43,1.24-2.02.08-2.53Z"/><path class="cls-1" d="M262.72,279.74c-1.84-.02-1.44,2.23-.12,2.56,1.51-.11,1.77-2.47.12-2.56Z"/></g></g></g></svg>