<?xml version="1.0" encoding="UTF-8"?><svg id="Layer_2" xmlns="http://www.w3.org/2000/svg" xmlns:xlink="http://www.w3.org/1999/xlink" viewBox="0 0 300 300"><defs><style>.cls-1{fill:#E0EBFE;}.cls-2{fill:none;}.cls-3{clip-path:url(#clippath);}</style><clipPath id="clippath"><rect class="cls-2" width="300" height="300"/></clipPath></defs><g id="States"><g id="Georgia"><g class="cls-3"><path class="cls-1" d="M149.66.24l-116.38-.24c-6.38,0-9.91,3.19-8.91,9.08-.21,8.12,23.46,114,15.45,117.59-5.32,6.96,19.51,39.2,10.29,51.17-6.79,8.19-.94,16.59-6.08,23.38-5.14,6.78,3.97,17.52,1.4,30.6-2.95,17.24,5.49,41.43,19.75,42.88,0,0,135.68,9.93,135.68,9.93,3.21.24,6.66.05,7.99,5.42,1.32,5.37,2.62,9.71,6.76,9.95,15.19-1.82-5.15-34.85,11.08-31.97,14.56,4.99,25.62,16.82,25.19-5.37.89-40.69,35.66-70.48,19.74-76.92-10.1-9.38,2.22-15.88-19.65-36.69-7.44-7.93-1.33-13.54-17.86-31.4-16.51-17.84-39.97-43.28-51.21-58.16-11.24-14.87-10.96-22.47-23.84-27.75-12.91-5.3-18.85-9.09-17.2-14.71,1.66-5.62,8.68-8.05,10.49-9.08,4.28-2.48.66-7.71-2.71-7.71Z"/></g></g></g></svg>