<?xml version="1.0" encoding="UTF-8"?><svg id="Layer_2" xmlns="http://www.w3.org/2000/svg" xmlns:xlink="http://www.w3.org/1999/xlink" viewBox="0 0 300 300"><defs><style>.cls-1{fill:#E0EBFE;}.cls-2{fill:none;}.cls-3{clip-path:url(#clippath);}</style><clipPath id="clippath"><rect class="cls-2" width="300" height="300"/></clipPath></defs><g id="States"><g id="Hawaii"><g class="cls-3"><path class="cls-1" d="M186.28,131.23c-3.81-1.5-9-3.92-11.14.13-.89,2.71,2.9,2.49,3.89,4.09,1.11,2.15-.8,5.69,3.23,6.21,7.15,1.7,11.01-7.75,4.02-10.43"/><path class="cls-1" d="M236.02,141.31c.34-5.65-7.59-4.08-9.5-8.39-5.47-2.47-7.62-7.37-14.32-3.49-1.12.59-2.56,1.48-3.72,1.2-2.46-1.65-2-6.05-6.65-7.19-4.56-1.36-7.52,5.72-6.05,9.02,1.41,2.78,5.88,7.49,9.33,5.98,5.96-1.23,1.62,10.62,5.93,12.16,4.48,2.17,8.49-1.29,12.37-2.89,5.22.54,10.6-.64,12.59-6.4"/><path class="cls-1" d="M192.24,115.18c-3.12.71-5.98-.11-9.14,0-.96-1.44-3.19-4.89-4.29-1.29-1.23,1.75-7.51-.65-9.58-.43-6.68-4.02-3.65,1.46-5.99,3.65-.56.81-2.52,2.79-1.38,3.69,1.49.69,3.69-.35,5.38.08,2.59.64,5.25-1.21,7.75-1.28,1.87.36,3.44,3.5,5.75,2.37,2.57-.44,4.74,1.92,7.46,1.48,1.7.39,2.52-1.11,3.67-2.07,2.68-2.1,5.37-5.67.36-6.19"/><path class="cls-1" d="M204.34,150.5c-.03-.73-.08-2.59-1.4-2.42-.63.2-3.81,1.23-4.65,2.17-.69,1.29-3.46,2.96-2.76,4.44,1.1,1.27,2.98.5,4.22.02,2.52-.84,7.35-.09,4.59-4.22"/><path class="cls-1" d="M11.47,65.54c-2.5-1.27-3.75,2-4.76,3.64-2.68,1.62-5.94,4.22-6.62,7.03-.85,2.84,4.96,5.89,5.24,1.75.17-3.1,3.19-2.24,4.92-3.79,1.07-1.01.21-2.01.75-2.98.96-1.31,2.72-4.43.47-5.66"/><path class="cls-1" d="M53.45,58.35c.16-2.31-1.93-4.05-4-3.72-1.98.11-3.74-1.07-5.8-.79-1.21.07-2.31,1.54-3.26.58-.68-.3-1.18-1.01-1.81-.96-.64.02-5.2,1.08-6.05,3.11-.91,1.74-3.12,1.67-4.32,3.16-.68.85-.62,1.86-.97,2.75-.59,1.14-2.1,2.44-1.37,3.94,1.67,1.78,3.91,2.93,6.18,3.76,2.31,1.47,4.13,4.55,7.33,4.12,1.73.45,3.51.21,5.21.52,2.94,1.38,4.66-1.97,5.68-4.02,2.81-.94.85-4.58,1.73-6.53,1.08-1.99,3.41-3.54,1.46-5.91"/><path class="cls-1" d="M297.92,209.21c-1.84-.92-4.68-1.87-5.47-3.64-.68-3.45-.7-8.84-6-7.66.4-4.42.43-6.69-4.01-9.07-3.77-2.29-6.13-6.08-10.04-8.21-4.82-2.89-10.64-3.14-15.75-5.05-1.94-1.02-3.88-2.53-5.97-3.3-2.06-1.71-3.27-3.65-6.21-4.49-6.83-2.06-8.7,6.43-4.07,10.21,4.87,3.88.65,7.07-1.13,11.09-.42,2.01-1.91,2.06-3.52,2.68-2.04,1.21-4.87,4.6-5.34,6.99-.55,2.97,2.39,3.78,3.7,5.5.81,1.26.58,2.53.95,3.93.7,1.61,1.55,2.97,1.82,4.74.63,1.38,2.2,2.11,1.99,3.81.2,2.98,2.66,5.49,1.13,8.53-.29,4.05-3.56,10.02.58,12.95.86,2.99,4.45,2.88,6.38,4.76.88,1.47,3.15,1.03,3.79,2.52.76,3.35,6.34-2.29,7.36-3.46.95-1.46.93-3.25,1.95-4.6,3.43-3.14,7.77-5.41,10.92-8.78,4.2-5.73,11.53.49,17.93-6.2,2.72-2.55,16.19-9.81,9.02-13.24"/><path class="cls-1" d="M141.29,105.08c-1.23-1.36.39-2.43-1.93-3.78.61-2.98-2.55-4.38-3.87-1.2-4.22-8.82,1.35-3.05-6.25-11.53-1.12-7.02-5.14-5.26-8.36-.68-1.36,2.33-3.14,3.37-5.88,2.82-1.04.26-7.02-.13-6.21,1.74.64,1.01,1.59,2.68,1.69,3.25.06.68-.24,1.36.16,2.11,1.51,1.76,2.56,3.49,3.66,5.52,2.87,2.18,2.23,2.57,3.41,5.53,1.93,1.26,3.19-.18,4.79-.6,1.48.25,3.59,0,3.38-2.14,1.03,1.32,2.49,1.36,3.77,1.74,1.44,1.81,3.82,2.02,5.85,2.84,1.2-.02,1.92-1.27,2.97-1.42,4.36.89,6.95-.08,2.83-4.18"/></g></g></g></svg>