<?xml version="1.0" encoding="UTF-8"?><svg id="Layer_2" xmlns="http://www.w3.org/2000/svg" xmlns:xlink="http://www.w3.org/1999/xlink" viewBox="0 0 300 300"><defs><style>.cls-1{fill:#E0EBFE;}.cls-2{fill:none;}.cls-3{clip-path:url(#clippath);}</style><clipPath id="clippath"><rect class="cls-2" width="300" height="300"/></clipPath></defs><g id="States"><g id="Idaho"><g class="cls-3"><path class="cls-1" d="M48.81,227.86v62.76c0,6.43,4.19,9.38,9.39,9.38h189.24c8.69,0,9.45-5.47,9.45-12.9v-85.24c0-5.3-5.47-17.13-11.98-10.45-7.89,8.2-7.83.9-15.41,3.42-7.58,2.53-10.19-3.61-15.43.73-5.24,4.34-11.56-3.07-14.8,1.44-3.82,6.28-9.19,1.42-11-9.73-1.48-9.17-8.5.88-12.49-13.49-2.54-12.94-8.18-8-11.34-19-2.42-8.41-7.28-10.33-12.11-6.13-4.85,4.21-12.76,8.79-14.8-.24-1.79-6.62,5.6-7.79,3.82-15.71-1.78-7.91,1.19-18.77,3.09-23.91,1.9-5.14-3.61-6.49-7.75-5.41-4.15,1.07-5.51-.54-10.38-7.22-4.86-6.68-20.04-22.26-25.91-24.05-5.85-1.78-5.22-2.8-3.57-7.65,1.67-4.84-1.25-5.31-3.95-9.43-14.09-16.32-8.69-30.78-9.56-49.89,0-3.7-2.05-5.14-4.78-5.14h-24.88c-3.3,0-4.28,2.51-4.28,5.12.93,3.37-2.55,116.42,2.68,114.95,2.8,3.81-.38,12.63,4.84,16.83,19.71,10.39,11.1,6.2,4.33,27.43-1.92,6.25-7.14,7.54-7.77,13-.65,5.49-14.29,19.53-9.19,26.41,5.1,6.89,9.96,8.29,7.52,15.95-2.41,7.66-2.97,5.26-2.97,8.16Z"/></g></g></g></svg>