<?xml version="1.0" encoding="UTF-8"?><svg id="Layer_2" xmlns="http://www.w3.org/2000/svg" xmlns:xlink="http://www.w3.org/1999/xlink" viewBox="0 0 300 300"><defs><style>.cls-1{fill:#E0EBFE;}.cls-2{fill:none;}.cls-3{clip-path:url(#clippath);}</style><clipPath id="clippath"><rect class="cls-2" width="300" height="300"/></clipPath></defs><g id="States"><g id="Illinois"><g class="cls-3"><path class="cls-1" d="M234.58,201.77c-.42,5.53-4.56,4.4-5.57,10.21-.93,6.51-2.69,2.76-3.89,8.2-.21,2.78-4.14,3.64-3.94,6.5-.04.14-.12.29-.73.47-1.29.32-1.91,1.63-3.31,1.26-.37-.08-.58.17-.65.5-.1.62-.51,1.46-.94,1.93-1.09,1.74,2.18,2.64,1.57,4.5-.2,1.36-1.63,1.38-2.17,2.46-.54,1.13-.18,2.69-1.07,3.72-.49.6-.4,1.64-.18,2.36.49,1.39-1.04,2.95-.76,4.2.29,1.65-1.13,2.58-.5,4.49,3.4,4.61-6,6.83-3.96,11.74,7.99,10.29,1.81,6.86-6.4,9.67-1.32.24-2.2,2.64-3.59,1.92-3.43-1.42-4.78,3.95-4.68,6.45.19,2.09,1.93,4.08,2.68,5.55,1.1,2.38-.22,6.73-3.3,6.58-2.11-.08-3.72-1.79-5.53-2.66-1.83-.99-4.25-.86-5.8-2.42-4.36-3.07-10.94-4.71-13.84,1.08-1.28,3.42-5.96,4.92-1.69,8.45-1.93,3.14-4.03-1.34-4.66-3.18-.76-.04-1.11-.02-1.26,0-.32.96.23,1.68-.15,2.33-1.41.75-3.98-.78-4.73-2.05-.57-1.08-.2-2.22-.96-3.28-2.03-2.25-2.37-4.9-3.2-7.61-1.03-.25-1.68-1.87-1.64-2.92.8-3.09,5.35-2.23,2.53-7.26-1.38-1.73-2.22-3.93-2.78-6.05-.47-1.34.71-1.79.78-2.85-.32-2.71-1.12-5.26-3.81-6.41-6.26-2.48-1.48-2.5-6.31-5.93-5.26-2.73-2.23-4.31-7.98-2.2-4.22-.86-.15-4.65-1.91-4.83-3.91-1.17-6.62-4.62-9.95-6.78-1.4-.83-3.02-1.8-3.54-3.44-1.94-2.44-5-4.58-4.22-8.24.35-4.26,2-4.44,3.27-7.72.37-2.24,1.54-4.75,2.85-6.59,4.38-5.46-1.17-6.44,2.92-11.24,1.38-1.83,2.98-3.33.23-4.81-2.78-2.84-6.75-3.53-10.29-5.01-2.46-.89-3.22,1.67-4.35,3.23-5.02,5.54-9.82-6.58-8.09-10.28.21-.48.25-1.3.07-1.79-.78-2.17-.79-2.27-.79-2.32.38-6.35-7.95-11.78-12.79-14.96-1.96-.99-2.07-3.44-3.29-4.91-1.69-1.01-2.79-3.23-4.29-4.35-1.37-.62-2.27-2.44-3.47-3.38-1.26-1.26-3.45-2.25-3.51-4.27.35-2.52-1.7-4.01-2.66-6.06-.76-3.67,1.71-2.36-1.33-7.56-1.79-5.3-2.44-11.82.02-17.03,2.33-5.2,5.91-2.94,3.98-10.94-2.17-4.65,4.29-7.58,8.29-6.88,3.06-.89,3.43-5.12,3.78-7.86,3.43-6.61,7.72-8.61,5.78-17.63-1.64-2.38-5.74-4.23-5.88-7.26-.13-1.84,1.48-3.08,1.54-4.86.52-3.07.68-4.74,4.46-5.39.1,0,2.54.66,2.78.69.69.12,4.3-1.84,5.89-1.65.93.04,2.12-.11,2.98-.46,2.12-.41,3.43-2.65,5.51-2.92,4.76.34,4.88-2.39,8.17-4.58-.22-8.76,4.52-7.38,6.94-13.35,1.92-6.11,1.45-15.53-5.79-17.91-5.77-2.84-3.59-5.99-6.31-9.87-1.4-2.05-8.92-4.95-6.67-7.81,0,0,0,0,0,0,28.05.02,85.97.39,113.77-.51.72-.23.16,4.05.33,4.26-2.26,7.22.55,12.9,5.3,18.51,2.52,5.52,2.24,12.79,6.6,17.32,0,0,0,0,0,0,0,0,0,.01,0,0-.8,31.93,8.02,104.77.89,134.52,3.37,3.31-2.49,4.96-.47,8.28,1.91,1.83,2.09,3.65,2.64,6.01.46,1.14,2.08,1.61,2.01,3.09.14,1.7-1.59,3.6-.17,5.1.29.1.32.48.31.73-.08,1.41,1.15,2.48.92,3.93"/></g></g></g></svg>