<?xml version="1.0" encoding="UTF-8"?><svg id="Layer_2" xmlns="http://www.w3.org/2000/svg" xmlns:xlink="http://www.w3.org/1999/xlink" viewBox="0 0 300 300"><defs><style>.cls-1{fill:#E0EBFE;}.cls-2{fill:none;}.cls-3{clip-path:url(#clippath);}</style><clipPath id="clippath"><rect class="cls-2" width="300" height="300"/></clipPath></defs><g id="States"><g id="Indiana"><g class="cls-3"><path class="cls-1" d="M245.43,218.43c-2.38,2.7,2.26,5.7-4.23,4.83-.73-.06-1.71.07-2.28.52-1.16.98-2.93.12-4.22.77-2.47,1.12-5.09,2.57-7.12,4.37-6.99,5.44-6.03-.86-10.27-1.6-2.19.04-4.42,1.06-6.66.71-3.79-.1-2.67,3.73-1.87,6.07.21,1.29-.11,2.67.5,3.88,1.14,1.65,1.04,4.51-.47,5.8-4.09,5.72-6.95,4.1-10.55,8.06-1.19,3.03-1.11,6.91-4.03,8.96-4.05,4.14-6.1-.66-8.1,2.33-2.13,6.88-5.13,3.95-4.33,13.64h0c-1,4.57-1.36,6.28-6.37,6.9-1.53,1.26-1.53,4.53-3.61,1-1.05-2.39-3.55-2.23-5.8-2.3-10.69-2.62-3.57-8.35-8.21-11.02-.84.64-.72,2.8-2.26,2.74-.35,0-1,.06-1.41.13-.73.07-.82.96-1.45,1.14-1.31.11-3.64-2.53-3.59.49,1.68.76,2.24,2.73.41,3.71-1.33,1.06-4.3.37-4.26,2.7.06,1.58.31,3.69.79,5.04.96,2-1.75,2.96-3.31,2.27-2.1-.28-1.37,2.13-1.69,3.43-.33,1.6-3.68,2.94-4.13.87-.03-1.24,1.66-3.91-.75-3.73-6.2,4.27-4.71-4.61-8.61-6.15-1.86.11-2.84,2.01-3.99,3.17-2.29,2.31-7.32.55-8.4,4.25-1.12,2.76-.83,6.06-3.56,7.98-2.28,1.14-3.31-2.95-4.9-3.62-1.26-.29-3.11-.34-4.15-1.35-2.48-2.57-5.79-4-8.53-6.12-3.59-1.3-3.96.88-6.95,1.67-5.15.92-4.11-9.1-6.45-.73,4.75,4.43-1.55,9.65-3.98,6.14-.85-1.44,1.24-2.93,0-4.08-2.72-1.01-5.47,1.75-8.13,1.4-2.73-1.14-4.19-6.78-6.38-.95-.38,1.24,1.22,2.27,1.39,3.31.29,1.13.19,2.68-.99,3.36-1.06.64-.96,1.62-2.3,1.57-1.18.02-1.84-.77-2.84-1.26-3.07-.42-1.96-2.37-3.2-4.32-.74-1.1.59-2.67.95-3.65.08-1.64-.41-3.05.97-4.42,1.3-1.83-.66-4.3.04-6.21.64-1.4,3.28-1.97,1.64-3.84-.69-.96-.7-.96-.27-1.28,11.18-4.26-4.21-4.94,4.71-13.33,6.97,0,4.76-4.71,9.89-7.38,1.8-1.32.23-4.97,1.41-6.5.96-.64,4.9-2.03,4.68-4.48.34-1.87,1.63-3.65,1.99-5.52.23-1.18.43-3.18,1.68-3.81,9.99-4.97,3.43-8.75,2.85-16,3.66-8.82.78-4.02-1.82-10.93.1-6.08-7.01-5.87-1.24-13.53.69-4.56-1.32-8.91,4.27-11.56.32-.33.45-176.4,1.38-176.33,1.05.62,2.08,2.33,3.45,2.44,1.5.21,1.43,1.88,2.68,2.41,11.41,5.08,23.34-2.97,32.89-8.71C159.92,1.57,206.03,1.3,239.59,0c.97,0,4.24,198.95,4.46,199.33-8.4,6.5,2.22,5.42-1.01,11.42-.57.65-1.51,1.6-1.2,2.57.09,1.32,1.72,1.33,2.69,1.41,1.71.15,1.94,2.76.9,3.7"/></g></g></g></svg>