<?xml version="1.0" encoding="UTF-8"?><svg id="Layer_2" xmlns="http://www.w3.org/2000/svg" xmlns:xlink="http://www.w3.org/1999/xlink" viewBox="0 0 300 300"><defs><style>.cls-1{fill:#E0EBFE;}.cls-2{fill:none;}.cls-3{clip-path:url(#clippath);}</style><clipPath id="clippath"><rect class="cls-2" width="300" height="300"/></clipPath></defs><g id="States"><g id="Iowa"><g class="cls-3"><path class="cls-1" d="M3,62.71h246.45c2.53,0,3.56,2.36,2.85,3.62-4.13,5.15.05,8.21,4.48,10.59,2,1.16,1.31,3.73.2,4.91-10.49,11.13,1.89,26.21,13.02,28.65,4.42.98,6.75,4.78,9.44,10.45,6.68,12.77,28,18.46,17.89,37.68-16.31,29.98-38.62,3.69-41.13,32.6.61,3.16,5.15,4.79,6.85,6.85,3.45,4.09-3.97,7.95-4.49,12.87-.68,6.33-1.18,8.06-4.61,9.61l-8.18,3.69c-6.34,2.87-1.75,6.26-1.95,10.04-.28,5.02-9.44,3.41-12.53-1.93-2.08-3.62-4.08-8.85-11.11-8.85H40.99c-3.37,0-5.28-4.61-5.28-8,2.08-9.72,2.93-4.58-.06-14.41.74-13.11-.18-7.04-4.59-16.73-.32-2.36,2.76-4.71,1.86-6.91-1.22-2.94-6.84-1.93-8.26-4.76-2.28-4.57,3-10.25,1.84-15.21-1.46-6.39-8.15-10.73-11.83-16.11-2.91-4.23.56-7.51-.41-11.09-.66-2.49-5.26-2.64-5.73-5.17-.34-1.93,1.74-4.04,1.52-5.98-1.23-6.35-10.79-7.89-9.98-15.98.88-6.7,10.58-10.81,10.11-17.53-.27-3.78-6.4-4.27-7.04-8.02-.34-2.03,2.02-3.76,2.02-5.85-.49-2.78-8.76-6.91-2.14-9.02Z"/></g></g></g></svg>