<?xml version="1.0" encoding="UTF-8"?><svg id="Layer_2" xmlns="http://www.w3.org/2000/svg" xmlns:xlink="http://www.w3.org/1999/xlink" viewBox="0 0 300 300"><defs><style>.cls-1{fill:#E0EBFE;}.cls-2{fill:none;}.cls-3{clip-path:url(#clippath);}</style><clipPath id="clippath"><rect class="cls-2" width="300" height="300"/></clipPath></defs><g id="States"><g id="Kansas"><g class="cls-3"><path class="cls-1" d="M298.79,120.68c-2.54-2.91-9.34-1.34-9.31-6.61-3.25-3.95-1.13-2.14-2.17-6.05-.42-.66-2.07-.57-2.71-.91-1.26-2.87-2.14-4.13-4.93-5.79-.76-1.37,1.5-2.56,1.49-3.52-.69-2.37.8-2.82,2-4.38.37-4.36,3.64-2.03,4.78-4.27-.04-.37-1.06-.62-1.15-1.14-.1-.64,1.33-1.31,1.23-1.99-.16-1.02-1.88-1.61-2.51-2.24-.39-.4-.51-1.81-.99-1.94-4.51.73-3.27,2.28-8.54-.43-2.6-2.75-1.03-3.41-5.88-4.76v-.14c-40.41,3.72-260.41-6.98-260.41-6.98L0,222.47c63.36,3.67,153.05,7.16,300,8.01-.93-33.21-1.23-73.47-1.21-109.8"/></g></g></g></svg>