<?xml version="1.0" encoding="UTF-8"?><svg id="Layer_2" xmlns="http://www.w3.org/2000/svg" xmlns:xlink="http://www.w3.org/1999/xlink" viewBox="0 0 300 300"><defs><style>.cls-1{fill:#E0EBFE;}.cls-2{fill:none;}.cls-3{clip-path:url(#clippath);}</style><clipPath id="clippath"><rect class="cls-2" width="300" height="300"/></clipPath></defs><g id="States"><g id="Kentucky"><g class="cls-3"><path class="cls-1" d="M0,217.4c17.03-.65,37.96-.12,54.96.15.85-1.23.36-3.37.26-4.75,0,0-.23-2.44-.23-2.44l-.85-1.21v-.69c2.22-.08,6.85.04,9.01.49l-.36,1.59c16.36-.7,34.68-.09,51.04-.85l1.1.98c1.02-.46,3.32-.88,4.44-.98,10.28,1.19,25.69,1.38,35.94,2.05,10.53-1.53,23.88-.1,34.27.72,12.71-.51,28,.79,40.59.49,0,0,2.18-1.59,2.18-1.59h.62l.49-.85c.59.02,1.47-.43,1.95-.74,0,0,1.59-.72,1.59-.72l1.33-.13c.71.34,3.9.15,4.39-.85.13-.62,7.44-2.67,7.44-2.67,1.53.16,3.81.41,2.7-2.18.96-.22,1.48-1.52,1.46-2.31l.85-.49.54-.77c1.02.16,2.69.19,3.62-.33-.21.03,4.63-1.48,4.36-1.57l-.13-.85c.5-.88.11-2.35-.13-3.26l.72-.54s.62.36.85-1.33l1.34-.13,1.59-.85.62.49.13-1.33.85.23c0-.8.07-3.2-.23-3.93,2.66-1.41,6.26-4.17,9.11-5.21,3.44-2.82,5.86-.87,6.34-3.03l.62.13.36-.85,14.27-12.32-.72-.36c-.7.43-1.68.66-2.31-.03l-.23.72-.49.36-.13-1.34c-.79-.12-1.89-.23-2.67-.38l-.49-.62.62-.36v-.49l-.62-.36h-.49l-.85-.62c-.25-.43-.44-1.17-.36-1.67l-1.05.69-.82-1.33c-.72-.18-2.02-.77-2.62-1.21l-.23-1.46c-.29-.38-1.25-1.63-1.46-2.03l.49-.77v-.72c-1.87-1.34-4.12-2.88-3.77-5.47-1.01-.6-2.3-1.77-3.16-2.54l.82-1.13-.49-.62.85-.36.13-.49-.85-.13-.13-.85h-1.34c-.22-1.71-1.32-3.68-2.64-4.77l-.15-.69-.98-.49-.23-.62-.85-.64-.08-1.39,1.21-.08c.21-.5.61-1.64.62-2.18-.22-.33-.5-1.23-.62-1.62l.98.05.57-1.05c-.08-.53-.19-1.56.1-2.05-.05-.72-.53-1.64-1.1-2.08.36-.97.27-2.21-.13-3.16,1.39-3.48-3.09-4.59-4.52-7.26-3.44-.43-6.53-2.34-5.96-6.26l-.49-.72c.21-.47.04-3.01-.23-3.41l-1.82.13c-1.29,1.17-2.56,1.34-4.24,1.23l-.72,1.69-2.11.72-1.69,2.93c-.22-.03-2.26.4-2.57.36,0,0-1.21-.49-1.21-.49l-1.1.13-.98,1.21-1.21-.36c.68-2.73-3.4-3.28-5.11-3.31-.49-.15-1.59-1.33-1.95-1.69-1.89-.39-3.69.33-5.37,1.08l-.62.85c-.04.5-.07,1.48-.49,1.85l-.72.13-2.08-1.21h-1.1l-.98-.98-.49-1.59-1.21-.23-.72-.72c.48-1.14-1.18-2.35-1.92-2.8l-1.46.13c-.41-.22-1.2-.7-1.57-.98-1.81.44-4.05.91-5.96.72-.76-1.19-2.51-1.36-3.77-1.57-1.14-1.09-1.5-2.8-1.57-4.49-1.28-2.25-2.86-4.13-2.82-6.78-1.12-.61-3.47-1.6-4.75-1.69l-.36-.62v-1.46l-.41-1.23-1.1-.36c-.45.3-1.29.97-1.69,1.34l-1.1-.23c-.56.41-1.72,1.2-2.31,1.57-.89-.15-1.97-.81-2.64-1.39l-1.13-.33c-.37-.46-1.04-1.51-1.34-2.03l-1-.1c-.53.44-1.44,1.45-1.82,2.03-.97-.22-3.26,2.23-4.13,2.8.51.8,2.81,3.89,2.8,4.85-.46.45-1.38,1.4-1.82,1.87-.55,2.19,2.96,1.23,3.77,2.18.22.76.21,1.43-.85,1.46l-1.21.98.13.98c2.64,3.81-1.68.31-3.36,1.31,0,0-1.85,0-1.85,0l-1.21.49c-2.33,1.74-5.38,3.99-8.24,4.72-.69-.43-1.52-1.71-1.9-2.41l-1.49-.49c-.98.25-4.14,1.24-4.85.26-.53.15-1.75,1.19-2.18,1.54-.1,1.07.47,3.07.87,4.06,0,0-.15,1.57-.15,1.57l.77,1.49c0,.37.06,1.99-.13,2.31-.36.18-1.85.93-2.18,1.08,0,0-.13,2.31-1.21,2.31-8.62-.04-1.83,6.87-9.83,10.11-.32-1.64-2.08-.89-3.05-.97-.49-.13-.69,3.48-.62,3.29-4.65,2.3-1.26,7-3.52,10.01-.44,1.44.28.51-2.05.98-2.67.47-1.6.62-2.03,2.13,0,0-.67.8-1.75-1.51-.44-.95-1.46-1.1-1.46-1.1-4.54.21-3.07-.35-6.47-2.18,0,0,.13.72-.13-.72-.23-1.46.23-2.8.23-2.8-.66-3.11-1.65-1.84-2.8-3.64h-1.69c-.46.62-.05,1.55.38,1.95.48-.09,1.46-.16,1.95-.13.62,1.27-1.15,1.69-2.05,1.57l-.72,1.1c-.54-.08-1.14-.43-1.46-.87l-.62-.13-.82.62.33.87.72.49s1.34.13.23,1.33c-1.1,1.21-2.57.85-2.57.85l-1.21.49c-1.35,5.28,3.74,6.13-2.77,5.98-.6,1.94.66,2.39-1.34,4.16l-1.18-.03v-1.34l.72-1.8-.23-.72c-1.02-.46-2.44.45-3.41.72-3-4.08-2.32-7.6-7.16-2.03-.89.43-4.54.85-5.29,1.64.07,2.32-.23,6.26-3.21,6.49-.7-.29-.72-2.51-1.28-2.82-2.86-.19-5.67-4.03-8.01-4.13-1.95-2.83-4.51-1.11-6.21.62-1.84-1.25-2.19-1.02-2.54-3.39l-.98-.23c-.67,3.62-2.91,1.34.36,4.85.12.57-.3,2.14-1.69,2.69,0,0-.98.85-.98.85-.92-.69-.72-2.48-.72-3.29.52-.61.21-1.04-.23-1.46h-.72l-.98.49c-.63-.07-1.62.05-2.18.36l-.13.49c-.56.03-1.75-.06-2.31-.13l-1.69-1.69s-.36-.67-.59-.67c-.46-.03-1.36,1.28-1.36,1.28-1.34,1.22-.15,1.99.62,2.69.05.41.16,1.43.13,1.82l-.72.72s.23.62-.13.72c-.36.1-.49,1.21-.98.85-.49-.36-.85-1.1-.85-1.1-2.09-1.16-2.55-.91-2.67,1.08-1.41,3.1-4.4,2.36-4.39,6.47,0,1.59.62,2.67.62,2.67.21,1.52,2.7,2.5,3,3.93-.02,2.77-2.42,1.89-4.03,2.18-3.92,1.02-5.66.14-8.47,3.39l-.72-.72c.39-1.32-3.2.33-2.93.23-.42.36-.6,2.21-.69,2.72-.38.9-1.09,2.73-1.41,3.64.1,1.51,1.1,2.94,2.36,3.75,1.99,3.43.9,3.81-.38,6.93-2.42.45-4.14.64-5.21-1.95-2.42-1.18-6.01-.87-7.42-3.52-4.97-1.75-7.33-4.23-11.81.15-.78.77-.58,1.74-1.34,2.93-2.4,2.43-2.97,2.67-2.67,5.47.63.48,2.39,1.83,3,2.28-.82,1.74-.91,6.32-3.44,6.39-.21.62-.24,1.67-.1,2.31.04,0,1.8.5,2.05.62l.28.62-.36.98-1.52-.36s-.72-.36-.98,0c-1.01,1.24.09,2.96.8,3.88l.21.85c-1.31.87-1.2,1.42-1.64,2.54.08,4.07-4.56,2.29-4.52-.72,0,0-.21-.23-.98-.13-1.82.28-1.34.72-1.46,1.21-.77,1.88-1.13,3.59-1.67,5.47Z"/></g></g></g></svg>