<?xml version="1.0" encoding="UTF-8"?><svg id="Layer_2" xmlns="http://www.w3.org/2000/svg" xmlns:xlink="http://www.w3.org/1999/xlink" viewBox="0 0 300 300"><defs><style>.cls-1{fill:#E0EBFE;}.cls-2{fill:none;}.cls-3{clip-path:url(#clippath);}</style><clipPath id="clippath"><rect class="cls-2" width="300" height="300"/></clipPath></defs><g id="States"><g id="Louisiana"><g class="cls-3"><path class="cls-1" d="M254.98,181.26c-10.01-9.22-.38-20.05-.19-29.64l-111.66,4.9c-1.5.09-2.55-1.73-1.64-2.97,7.28-7.38-9.39-16.22,2.01-20.17,8.46-4.79-3.2-15.68,8.12-20.18-.59-26.48,20.37-23.48,17.56-35.56-.29-2.32-.53-4.32.62-5.73.39-.48,1.12-1.08,2.34-1.17,4.39-.72,11.37-9.89,5.78-12.51-7.56-3.51-8.68-6.29-10.72-12.86-2.45-4.31-1.74-7.54.7-11.11-.77-2.71-2.41-9.46-.88-13.52.87-1.79-2.88-3.86-3.35-5.94L.14,17.81C-.05,51.67-.1,84.89.33,88.53c.94,1.45,5.92,6.52,8.64,9.31,7.8,6.12,3.56,10,4.35,17.71,3.44,2.7,8.92,17.55,9.81,21.49.69,3.49,2.07,4.12,4.53,5.9,7.37,5.72,1.58,28.77-1.99,35.27-9.8,16.79-1.65,11.06-5.24,22-1.03,1.93-1.78,4.69.44,6.92,3.8,3.8,1.41,13.34.4,15.7-.67,1.57-3,4.89-6.74,10.17-5.27,7.64-8.87,9.56-2.55,16.11,4.16-.5,14.13-1.82,16.96-3.14,3.61-1.68,17.03-4.9,19.99-2.84,2.97,2.07,22.83,5.16,26.18,5.93,3.35.78,26.05,6.84,29.79,6.84,18.26-.12.66-30.42,38.18-9.42,2.71,2.58,8.77,8.26,11.09,9.03,2.32.77,7.87,2.84,9.16,5.42,10.27,19.54,8.43,11.93,24.76,14.06.77,1.29,8.25,5.29,9.8,5.16,1.55-.13,8.64-7.09,10.84-5.68,8.19,7.24,4.29,2.28,12.38.39,2.97,0,10.45,4.26,13.41,2.84,2.97-1.42,9.03-7.09,9.67-8.77.64-1.68,1.42-11.74,4.13-11.48,2.71.26,12.51,7.09,15.86,9.93,3.35,2.84,8.64,1.81,9.55,3.22.9,1.42,9.03,15.35,11.99,14.58,24.63-5.81,13.7-16.19-5.68-24.64-8.64-3.61-13.54-10.32-12.77-13.54.77-3.23,12.38-15.22,14.57-17.15,3.5-1.61,5.96-20.14.9-20.33-3.1-.05-16.51,8.33-19.48,10.39-2.97,2.06-6.84,1.81-6.97-3.87-.13-5.68-3.74-13.16-11.35-7.09-7.61,6.06-10.19,7.09-14.44,6.96-4.26-.13-10.71-3.51-10.84-6.4-.13-2.89-1.55-10.11,4.13-12.69,5.67-2.58,11.48-5.55,17.93-2.71,10.02,4.02,14.6,4.26,22.83,6.4-.58-3.53-4.3-14.61-9.63-19.25"/></g></g></g></svg>