<?xml version="1.0" encoding="UTF-8"?><svg id="Layer_2" xmlns="http://www.w3.org/2000/svg" xmlns:xlink="http://www.w3.org/1999/xlink" viewBox="0 0 300 300"><defs><style>.cls-1{fill:#E0EBFE;}.cls-2{fill:none;}.cls-3{clip-path:url(#clippath);}</style><clipPath id="clippath"><rect class="cls-2" width="300" height="300"/></clipPath></defs><g id="States"><g id="Maine"><g class="cls-3"><path class="cls-1" d="M250.36,177.8c-.28-.53-.64-1-1.07-1.41-.46.55-1.06,1.02-1.36,1.69-1.14-1.27-2.52-2.36-1.4-4.33,4.48,3.37,4.64.71,2.76-3.18-.52-2.92.18-6.4-2.64-8.39-3-3.96-1.62-3.14-6.2-5.58-.74-.69-.45-1.92-1.31-2.52-1.25-.93-3.23-.06-3.59,1.4-2.36,4.08-3.58-2.82-4.83-4.35-3.72-5.37,3.54-7.67-1.87-13.58-1.19-1.66-1.16-2.35.41-3.69,3.34-2.47-.67-5.77-2.35-8.01-1.42-1.11-2.98.06-4.51.44-2.04-4.64-8.73-4.61-9.75-9.47.29-1.54.7-3.18-.21-4.63-3.85-4.7,2.31-1.34-.6-9.68-.63-24.54-1.25-49.09-1.64-73.64.29-2.91-2.97-3.88-4.4-5.91-3.25-6.56-9.78-9.87-14.16-15.64-3.08-2.55-11.27-3.75-11.78,1.64.08,3.46-3.7.1-5.67,2.03-4.07,4.06-4.78-.33-8.3,2.24-7.26,5.76-9.23,3.96-14.95-1.79-.86-.29-1.03-.73-.97-1.56.55-6.01,1.01-9.21-6.26-9.7-4.53-1.27-6.58,3.86-8.86,6.75-4.43,6.46-8.84,12.95-13.23,19.48-6.17,9.15-12.34,18.29-18.5,27.44-2.39,2.93-2.18,6.69-2.69,10.2-1.35,8.82-13.61,12.98-10.2,22.89,2.37,3.19-1.69,4.03-1.36,6.95,2.51,4.42-2.83,3.52,1.24,7.93,2.42,7.41-8.75,7.83-9.64,14.11-1.41,5.72-3.59,3.48-6.89,6.1-2.1,3.46-5.29,6.97-5.75,11.1-.22,2.69,2.38,4.22,2.53,6.7-3.78.53-6.93-7.37-8.91,2.26-.84,1.44,3.35,7.15.29,6.12-3.03-1.01-3.28-5.49-6.89-5.21-6.06.19-6.03,2.71-5.53,7.91.54,26.2,1.04,52.39,1.63,78.58.23,11.14.46,22.27.81,33.4.05,2.73,3.04,4.55,2.52,7.35-.69,6.73-.96,14.13,5.27,18.19,1.64,3.01-1.83,8.16,2.2,9.7,1.84.51,3.78,2.39,5.7,1.7,8.21-5.3,2.05-10.85,7.25-17.25.97-1.41,2.97-.77,4.2-1.86,1.55-2.05,4.88-4.02,4.46-6.86-.63-1.89-.7-1.87.74-3.29,3.66-4.6,4.33-.83,7.2-2.92,3.07-3.9-1.77-4.01-.9-7.25,1.56-3.15,2.01-7.33,5.84-8.18,1.9-2.42,2.3-4.17,5.88-3.85-.11,2.06-2.54,5.49-.92,6.99,3.11.78,3.95-6.32,5.68-8.3l.35.07c1.77,4.14-.71,14.59,6.24,7.3.33-.31.33-1.1.29-1.65-2.31-7.76-1.61-8.94,5.12-13.49l.25.28c-2.39,3.46-.24,8.26,3.58,9.32,1.53-2.97-.31-6.39.7-9.48.94,3,1.34,12.48,4.87,5.3,3.5-4.47,3.35-9.48,1.91-14.7l.31-.08c1.67,3.64,2.23,11.01,7.87,9.47,1.32-1.05,1.62-2.95,2.94-4.06,1.74,2.43-4.44,6.12-.76,7.16,3.09-.58,2.93-3.15,3.81-5.34,1-1.71,6.21-3.46,4.68-5.54-2.48-2.78.65-6.71.96-9.88,1.98-10.09,6.48-3.45,3.46-13.36,4.1-2.82,8.6-2.66,7.75-9.42,3.03,3.1-3.73,17,2.99,10.01.53,1.94-.84,2.57-2.11,3.52-1.25.87-2.15,5.44.46,4.2,3.57-1.54,8.56.21,9.46,4.26,1.54,2.53,3.74,1.09,4.81-1,.12-2.26-5.65-9.83-2.32-11.19,1.47-.95,4.44-1.28,4.01-3.6-.56-1.49-.65-2.32,1.29-2.11-.18,2.14,1.16,7.99,3.34,3.61q1.68,1.15,3.23.5,2.18-.94,1.29-3.12c.97.44,1.74,1.28,2.81,1.46.35-1.53-.99-2.81-1.42-4.22.11-.06.21-.11.31-.18,3.31,1.34,1.68,7.51,6.07,4.93,1.57,7.73,1.87,12.41,8.34,3.79.48-1.94-2.13-3.79-1.14-5.86h.31c.72,1.69.38,3.75,2.3,4.72.93-.82,1.54-1.83,1.81-3.04,2.12,2.1,4.73-.06,3.37-2.47-1.12-1.9-1.23-4.36.31-6.07-.2,1.38-.38,2.85.52,4.03,1.22-.38,1.96-1.37,2.46-2.49l.31.13c-.32,1.61-.63,3.23-1.03,5.24,3.09-.97,5.37-5.51,8.77-3.29,3.02.91,2.52-4.07,1.45-5.63-.73-1.43.97-1.95,1.88-2.6.6,3.6,3.3,3.93,5.13,1.04.38.9,1.26,1.7,2.29,1.28,1.56-.56.59-2.29.54-3.47.08-1.5,1.87-1.6,3.15-2.65-1.55,4.15-.79,5.28,3.58,5.2,2.08.07,1.23-2.7,2.25-3.87,2.8-4.2,11.13-5.97,8.38-12.28Z"/><path class="cls-1" d="M193,212.84c-2.26-2-2.74-5.51-6.62-4.68-1.88.23-2.82.89-3.23,2.91.19,3.28-3.06,6.37-1.11,9.49.59,1.21.4,4.11,2.47,3.19,2.06-1.22,5.2-2.81,1.94-4.77-.02-1.44.14-2.83,1.31-3.93-2.31,9.8,10.25,1.02,5.24-2.21Z"/><path class="cls-1" d="M117.05,244.09c-.12-1.31-1.31-2.01-2.32-.86-1.61,1.95-1,4.84-1.44,7.2.66,2.68,3.35,3.49,3.44,0-.3-2.09-.02-4.29.32-6.33Z"/><path class="cls-1" d="M161.47,231.9c-.65-.26-1.27-.57-1.96-.93-1.44-5.03-5.06-.53-3.35.94.44.38,1.03.72,1.24,1.22,1.05,3.7,9.17,1.01,4.07-1.23Z"/><path class="cls-1" d="M173.02,232.24c-.76-1.2-2.99-.77-3.04.73.23,1.61-1.53,5.81,1.27,5.47,1.96-1.29,2.82-4.08,1.77-6.2Z"/><path class="cls-1" d="M157.63,216.18c.71-1.43,3.22-5.87-.12-5.29-1.3.91-3.07,6.12.12,5.29Z"/><path class="cls-1" d="M171.38,222.83c-.27-1.97-2.62-4.66-3.95-1.88-1.99,2.46,4.43,5.47,3.95,1.88Z"/></g></g></g></svg>