<?xml version="1.0" encoding="UTF-8"?><svg id="Layer_2" xmlns="http://www.w3.org/2000/svg" xmlns:xlink="http://www.w3.org/1999/xlink" viewBox="0 0 300 300"><defs><style>.cls-1{fill:#E0EBFE;}.cls-2{fill:none;}.cls-3{clip-path:url(#clippath);}</style><clipPath id="clippath"><rect class="cls-2" width="300" height="300"/></clipPath></defs><g id="States"><g id="Maryland"><g class="cls-3"><path class="cls-1" d="M8.98,66.98h233.73c11.88,0,12.13,2.12,12.99,11.92l9.15,105.57h29.57c4.28,0,6.43,3.84,5.25,8.71-2.58,7.61-3.8,26.85-12.36,30.94-4.74,3.17-11.02,2.94-16.54,4.43-23.7,11.56-14.56-1.39-20.77-15.26-6.17-8.78-12.12-2.08-22.22-15.45-6.95-9.19-4.36-25.34,4.26-23.32,3.77.88,5.5-4.05,1.05-7.62-4.09-3.24-12.21-2.79-13.57-7.83-.76-2.89,1.59-6.97,4.47-7.75,2.12-.55,3.78,4.36,5.67,3.27,7.96-5.3-6-19.98,5.41-26.14,3.32-3.53-1.47-8.44-5.04-4.89-1.3,1.29-5.9,3.49-6.13,1.66-.86-5.77,6.63-22.39,12.38-21.78,0,0,5.08,0,5.08,0,2.6,0,5.14-4.81,0-7.77-2.42-1.4.78-4.36,0-7.05-1.08-3.76-6.21-4.09-8.75-1.37-2.49,2.64-1.28,5.65-3.1,8.79-2.25,3.92-5.55,3.38-10.47,7.92-3.73,3.44-2.85,11.21-7.68,12.78-5.25,1.13-9.69-7.3-13.45-6.25-9.74,8.47,17,13.11,13.73,25.74-7.18,6.5-10.46,18.18-6.82,27.5-.47,11.61-1.83,16.98,8.1,25.23,2.33,2.33.89,6.24-2.91,6.24s-7.2-5.5-9.78-8.88c-3.55-4.62-8.31.19-5.84,4.49,3.01,5.19,8.82,13.2,13.24,13.2h6.25l-.8,7.69c-.4,3.8,6.23,6.13,5.73,9.93-.25,1.76-2.01,3.78-3.78,3.78-4.76,0-5.98-7.72-10.11-10.1-24.46-3.73-19.23-21.59-34.63-27.65l-1.56,6.51c-.92,3.86-7.03,3.46-11.98,2.52-4.02-.77-7.15-4.46-7.18-8.63-.08-6.4,6.38-11.08,9.59-16.61,3.17-5.49,5.63-11.44,9.49-16.47,2.61-3.39,9.11-4.81,9.11-9.09,0-3.78-4.35-7.03-8-8-3.56-.95-6.99,2.98-10.66,2.84-12.65-.44-22.58-5.15-25.08-14.48-1.03-3.86,7.03-6.51,6-10.37-2.08-7.73-15.94-5.67-20.8-12.01-4.76-6.2-3.41-14.5-9.97-21.04-6.31-6.32-18.15-6.93-29.32-.48-3.15,1.82-7.63,6.93-10.99,8.33-7.3,3.02-15.27-8.17-22.89-6.13-5.29,1.41-6.34,10.22-11.63,11.63-3.11.84-5.75-5.77-11.14-2.98-7.55,3.9-7.99,12.14-13.64,18.48C5.89,115.92,0,118.46,0,115.74v-40.63c0-6.03,3.4-8.14,8.98-8.14Z"/></g></g></g></svg>