<?xml version="1.0" encoding="UTF-8"?><svg id="Layer_2" xmlns="http://www.w3.org/2000/svg" xmlns:xlink="http://www.w3.org/1999/xlink" viewBox="0 0 300 300"><defs><style>.cls-1{fill:#E0EBFE;}.cls-2{fill:none;}.cls-3{clip-path:url(#clippath);}</style><clipPath id="clippath"><rect class="cls-2" width="300" height="300"/></clipPath></defs><g id="States"><g id="Massachusetts"><g class="cls-3"><path class="cls-1" d="M244.34,225.86l-12.05,3.48-1.59-6.42,11.24-8.03s11.51,6.69,12.58,7.23c1.07.52-10.17,3.73-10.17,3.73"/><path class="cls-1" d="M300,221.04s-6.69,2.16-8.55,1.09c-1.89-1.09-12.85,4.01-14.19,4.55-1.4-.7,8.57-12.19,9.37-13.67l13.38,8.03"/><path class="cls-1" d="M284.74,161.1s-1.32,21.41-2.14,21.41c-9.13,3.15-28.52,10.19-37.46,12.85l-12.03,13.92c-2.87-4.41-8.99-13.84-11.78-18.2l-8.03,4.55c-1.89,5.97-5.75,19.05-7.51,25.16l-8.85,3.61-1.76-11.38-28.91-33.71c-22.62,1.32-137.13,30.02-161.46,35.6L0,136.59c34.59-9.42,117.48-30.32,153.09-39.18,0,0,31.97-26.75,31.97-26.75,2.69,20.87,3.08,10.89,11.38,23.52l-4.82,18.74-7.23,4,1.07,14.19,3.75,6.96,16.33-.54,9.35,7.78s15.26,19.27,14.19,19.79c-1.07.54,10.44,9.1,10.44,10.44s23.54-2.41,25.15-2.41,9.62-5.35,9.62-6.14v-14.99l10.44,9.1"/></g></g></g></svg>