<?xml version="1.0" encoding="UTF-8"?><svg id="Layer_2" xmlns="http://www.w3.org/2000/svg" xmlns:xlink="http://www.w3.org/1999/xlink" viewBox="0 0 300 300"><defs><style>.cls-1{fill:#E0EBFE;}.cls-2{fill:none;}.cls-3{clip-path:url(#clippath);}</style><clipPath id="clippath"><rect class="cls-2" width="300" height="300"/></clipPath></defs><g id="States"><g id="Michigan"><g class="cls-3"><path class="cls-1" d="M148.05,112.26c.44-4.33,2.59-4.9,6.25-5.14,2.38-1.65,4.27.93,6.49,1.18,3.28-2.21.98-2.86,6.23-2.1,4.98.94,5.21-9.22,10.37-5.98,8.05,2.83,13.8,1.47,20.21,9.22.65.82,1.54,1.91,2.79,1.34,3.04-1.37-2.15-15.66,5.84-6.88.94,1.34,1.35,1.34,2.71.45,4.72-3.76,22.94,3.35,17.2-4.12-1.84-1.56-4.62-1.64-4.25-4.75,0-1.98-2.79-3.74-4.33-2.94-1.29.68-2.16.22-3.18-.54,3.33-4.51.16-9.9-4.2-12-2.42-.07-4.44,2.15-6.77,2.88-.83-1.52-1.41-3.94-3.47-2.88-3.84,2.51-3.38.75-7.04.7-4.61.72-5.05-7.27-2.7-10.01,2.57-4.27-3.18-2.66-5.5-2.88-5.69-.09-10.28,4.33-15.95,4.77-11.25-1.21-23.13,1.47-30.46,10.94-1.19,2.24-2.2.9-3.69-.22-1.95-2.59-4.29,3.08-6.04.19-3.8-6.29-6.01-3.58-10.92-.86-4.3,1-4.66-3.74-6.22-6.4-5.68-7.71-13.82-14.46-23.94-12.24-1.09-6.36-7.26,3.05-8.51,5.34l-.39-.16c.73-5.02,1.6-12.07-4.14-14.4l.19-.38c1.75.29,3.44,2.86,4.75.19-.23,2.27-1.04,4.29.16,6.32,4.02-1.13,4.35-6.13,6.95-8.83,2.87-2.82,7.61-3.63,8.41-8.28.17-2.58,5.03-1.55,6.63-1.97,3.76-.48-.45-4.65-2.55-4.2-6.91-.11-14.42-.4-19.2,5.49-4.99,6.33-13.01,8.84-17.96,15.12-1.34,1.84-1.97,2.16-4.16,1.61-3.56-1.27-4.12,5.46-9.47,6.37-4.29,1.97-9.53-.57-13.36,1.64-7.58,8.01-10.75,7.44-19.83,11.62-.88,4.76,5.52,3.3,7.2,6.56,1.95,5.79,2.85,6.64,8.86,7.77,5.83,1.57,11.6,3.35,17.44,4.72,8.41,1.46,15.32,6.69,23.29,9.07,2.49,2.55,2.45-1.7,4.59-.85,4.25,2.71,9.64.92,13.26,4.09,2.35,1.73-3.31,4.89,2.26,5.76,2.74.35,5.46,2.07,7.35,3.98.38.97-.29,2.04.35,2.98,1.17,2.76-1.72,8.37-1.76,11.77-.37,3.42,4.28,1.1,5.96,1.78.83,3.45-2.71,8.5,1.61,10.65,1.97,1.24,2.16,1.15,2.84-1.03.42-2.89,2.76-4.53,4.23-6.84,1.83-4.14,3.35-8.41,5.15-12.56,2.01-4.94,6.22-8.48,7.9-13.62l.5.11c.31,1.87-1.82,7.97,1.98,6.16,3.24-1.82,6.16-3.82,6.01-7.98,2.72,1.69,3.88.17,6.1-.38,1.03,3.55-7.66,7.28-4.6,10.82,1.08.67,1.71-.33,2.39-.88,4.67-5.51,10.83-4.12,10.15-9.37Z"/><path class="cls-1" d="M284.74,235.82c-3.91-5.11-3.3-12.76-5.56-18.78-1.32-5.11-4.11-9.85-4.61-15.37-.07-4.4-7.83-16.31-12.86-12.77-3.49,2.62-11.44,1.44-9.92,8.1-.29,2.9-3.43,8.77-6.28,9.59-5.21-.4-2.59,10.5-10.54,4.48-4.31-3.93-5.74-16.74,1.84-17.29,1.37.02,2.01-1.13,2.8-2.02.64-.61,1.64-.68,2.14-1.46,3.78-4.02-.73-8.82,2.92-9.06,3.31-.81,5.76-4.05,5.66-7.45-.77-6.66.33-13.71-1.16-20.2-2.74-3.48-5.38-3.92-4.18-9.1.85-2.83,3.35,2.11,5.09,1.82.75-2.61-6.42-13.44-8.35-16.16-3.95-6.2-12.05-4.37-18.31-5.71-.68-.22-1.2-.83-1.32-1.54-1.07-3-4.86-4.2-7.15-6.26-3.4-2.89-4.26,1.63-6.8.38-3.04-1.75-5.74-4.59-9.25-5.26-2.79.19-8.44-.78-6.32,3.76,1.11,4.15-11.06,11.62,1.51,15.29-3.75,4.75-4.37-3.61-13.27,6.53-1.56,7.21.74,15.56-3.89,21.75-.17-3.21,1.89-6.03.6-9.02-4.87.52-1.9,7.17-4.92,9.05.25-3.77.12-7.48,2.05-10.81.69-1.1-.26-2.25-.05-3.39.44-1.25,1.6-2.13,1.9-3.49.3-1.78-2-1.36-2.66-.27-2.51,3.37-7.2,5.82-7.33,10.42.06.97-.66,1.15-1.51.59-3.34-1.82-7.5,3.29-7.52,6.32.08,2.14-1.3,4.22-3.31,4.95-2.69,1.31-3.24,2.66-2.39,5.53,1.06,3.62.29,7.56.18,11.26-4.58,11.21-10.2,12.2-4.85,24.64.39,1.33.63,2.75-.54,3.88-11.26,18.1,30.4,36.53-6.44,89.85,21.79-.18,43.51-.61,65.32-.49,2.01.12.72,2.18,2.9,1.82,14.6-1.06,30.12-.16,44.37-2.06,2.7-10.66,5.06-6.66,9.55-13.91-1.28-11.28,7.34-12.63,8.37-22.01-.15-2.05,1.94-2.9,2.61-4.54.11-4.22-.83-2.61,3.36-4.72.18,2.7,1.98,2.78,3.89,2.63v2.4l.35.28c4.7-1.39,4.58-18.11,3.89-22.21Z"/><path class="cls-1" d="M54.61,21c3.38-1.99,6.42-3.04,4.21-7.32,4.1-2.18,9.9-2.45,11.45-7.53.19-.19.42-.33.67-.41,2.57.13,7.04-4.01,3.85-5.72-1.44-.28-2.14,1.4-3.12,2.13-1.82,1.39-4.1,1.64-6.25,2.49-2.16,1.39-10.15,7.24-12.28,8.35-4.56,1.37-2.99,9.86,1.48,8.01Z"/><path class="cls-1" d="M228.07,103.56c1.67,3.73,4.35-1.91,7.21,1.44,3.34,2.22,5.94-1.94,4.69-5.11-1.78-3-4.86-5.98-8.41-3.6.19.36.92,1.71,1.12,2.02l-2.55,1.81c-3.06-2.18-3.11,1.44-2.06,3.44Z"/><path class="cls-1" d="M214.33,80.88c.05.83.11,1.66.14,2.49h.06c4.18,4.3,5.11,2.93,3.93-2.41-.08-3.38-4.52-2.85-6.38-1.26.15.09,2.18,1.07,2.24,1.18Z"/></g></g></g></svg>