<?xml version="1.0" encoding="UTF-8"?><svg id="Layer_2" xmlns="http://www.w3.org/2000/svg" xmlns:xlink="http://www.w3.org/1999/xlink" viewBox="0 0 300 300"><defs><style>.cls-1{fill:#E0EBFE;}.cls-2{fill:none;}.cls-3{clip-path:url(#clippath);}</style><clipPath id="clippath"><rect class="cls-2" width="300" height="300"/></clipPath></defs><g id="States"><g id="Minnesota"><g class="cls-3"><path class="cls-1" d="M279.13,67.69c-3.49-.51-4.53-.5-7.36,1.56h-1.77l-2.67-2.22-1.11-2.47c-2.35-.66-5.61-1.27-8.06-1.32-1.05.37-5.39.88-5.84.45-1.27,0-5.95.08-7.12-.21l-2.92,1.35-1.77-.66-1.11-1.11.45-1.77c-1.06-.92-2.85-2.9-3.33-4.24-1.04.45-3.41,1.46-4.03,2.47,0,0-6.25,3.79-6.25,3.79l-2.02,2.46-1.77.9-2.22-.21-2.47,1.11h-3.13c.48-3.48-3.5-2.59-4.9-2.67-.59-1.21-2.05-2.7-2.92-3.99,0,0-2.47-.66-2.47-.66-2.23-1.61-5.39-2.59-7.57-4.27.52-.6-1.01-3.79-1.32-4.03l-1.77-.21c-1.07.99-3.02,1.49-4.45,1.32l-1.11,1.11c.17,1.43.38,3.49,0,4.9l-2.68-.45c-1.07-2-2.59-4.73-4.06-6.46l.45-2.92-1.56-.66-.45-.9-3.96.87-1.6-.56-1.01-1.35.21-1.01,2.22-.21.35-2.02-1.35-.56c-.54.21-1.64.43-2.22.35-1.76-1.37-6.83-2.77-8.37-4.38-.65-.11-1.88-.11-2.46.24,0,0-3.92,0-3.92,0-1.87-1.48-2.14-1.15-4.17-.66-.65-.26-1.87.21-2.46.45l-.35,1.01c-1.09-.22-2.72.69-3.68,1.11l.45,1.35c-1.32,1.56-3.86,2.02-5.73,1.22l-.9.9c-1.11-.12-3.79-.11-4.93-.1l-.45-.8.21-1.56-1.22-3.02c-4.28-.83-10.17-1.29-14.52-1.98l.45-1.56-1.22-.8c-1.08.08-3.19-.1-4.24-.35-2.92,1.92-6.41-1.54-8.86-2.92-1.02-2.74-1.08-3.34.31-6.04-1.68-6.87-3.57-14.29-5.14-21.15l.66-1.35c-2.75-.12-5.2-3.67-7.92-1.25l-3.37-1.56c-.13,4.37-.42,13.93-.76,18.2-11.84,2.76-56.75-2.55-70.67-1.77l-.17,2.85c.44.42.59,1.55.63,2.12.31.39.62,1.2.59,1.7l.38.17.21,1.94-.56,1.15c1.27.86,1.54,2.8,1.35,4.2,0,0,.35,1.15.35,1.15,0,0,.76.87.87,1.04.1.17.21,1.32.21,1.32-.36.71-1.17,2.13-1.67,2.74-.09.62-.39,1.87-.66,2.43.22.89.57,2.78.38,3.68.74,1.82-.55,3.19-.56,5,1.43,4.48-.65,9.56.24,14.03l.66.45-.07,1.67,1.22,1.32c.18,1.12.44,3.62.17,4.72l1.22.94c-.38,2.95,1.7,5.57,2.26,8.27l1.01.76-.35,1.25c.23.77.77,2.31,1.11,3.02,0,0,.35,1.11.35,1.11l-.21,1.04.76.73c.21,1.42.55,3.51-.59,4.62l.59.56c-.16,4.05.32,8.51-.42,12.54l.45,1.04-.45,1.11c.55,1.53.97,3.8.35,5.35l.45.35c-.42,1.66.16,3.67-.8,5.21,0,0,.59.76.59,1.04v1.25c.35.47.86,1.5,1.04,2.05l.73.1c.23.27-.48,1.18-.52,1.32-.17.8.03,1.61,0,2.53-1.26,2.92-1.17,2.38-.14,5.35-.29.48-.5,2.79-.56,3.26l-.35,1.67.35,1.15c1.06,1.17.73,4.95,1.67,6.11-.49,1.87,1.17,4.61,2.22,6.11,0,.49.22,1.38.45,1.81.42.18,1.19.8,1.53,1.11-.37,3.33-.46,7.23.8,10.42.07.17-.38.94-.38.94.58,1.01.55,2.44-.04,3.44-.07,2.16-.3,5.29,0,7.43,0,0-1.6,5.11-1.6,5.11-.74.45-1.94,1.56-2.4,2.29,0,0-2.74,1.49-2.74,1.49-.32-.11-1.54,1.96-1.77,1.94-1.05.59-2.28,1.61-2.71,2.67,1.27,2.9,4.21,5.76,4.1,9.1l1.88,2.15,2.53.38s1.53,1.25,1.7,1.39c.17.1,1.67.45,1.67.45.37.81,1.37,2.76,1.77,3.51,1.1,1.31-3.57,90.61-3.23,92.03,61.68,2.61,131.82,2.82,193.27,1.77-.22-2.78-.36-6.64.24-9.38,0,0,.21-2.68.21-2.68l-1.77-4.69.66-2.22-.9-1.77-1.77-1.35-.9.21c-4.18-2.48-1.95-4.03-8.47-6.01,0,0-2.01.21-2.01.21-.49-.56-4.22-3.94-4.24-4.69-2.5-.43-4.9-3.57-5.8-5.59-1.08-.63-1.54-4.28-1.81-5.35-3.21-2.69-8.16-3.98-12.09-5.31-.6-1.14-1.71-3.5-2.22-4.69-1.62-.19-3.85-.75-5.38-1.32,0,0-2.22.45-2.22.45-1.45-1.43-4.01-4.59-5.14-6.29-.8-.27-2.4-.91-3.13-1.32,0,0-2.22-.45-2.22-.45.55-1.56,1.67-4.69,2.22-6.25l-.66-2.46c.93-1.64.33-4.36-.21-6.04-3.67-2.96.22-3.07,1.77-5.35-.74-2.47-.65-5.72-.87-8.27,0,0,2.02-1.77,2.22-2.92.21-1.11,1.77-2.92,1.77-2.92l.45-2.22c-.62-.72-1.99-2.25-2.68-2.88l-.66-2.67c-.65-.59-2.74-1.12-3.58-1.32,0,0-2.01-1.11-2.01-1.11.03-3.67,1.23-6.07,3.99-8.47,1.63-6.22,3.36-6.46,8.06-10.07.28-1.48,1.84-.73,2.26,0,1.93-2.76,1.59-3.28,4.9-2.02l.21-2.46c.48-.41,1.5-1.21,2.01-1.56l-.66-1.35,1.11-2.01c-1.25-7.57-.7-18.4-.66-25.94.59-.27,2.71-.21,3.37-.21,1.4-1.18,3.21-5.62,4.24-7.19,0,0,2.92-3.13,2.92-3.13l2.02-.66c.94-1.76,3.34-2.84,4.69-4.24,0,0,3.79-2.22,4.03-3.13.21-.9,1.77-2.67,1.77-2.67,2.26-1.5,7.27-3.15,7.15-6.49,1.39-.73,3.15-2.92,4.93-4.03.66-.21,2.92-4.69,3.78-5.59,3.71-3.98,7.5-6.59,10.94-10.28,0,0,7.15-4.93,7.15-4.93,2.69-1.26,8.16-3.96,10.73-5.38,0,0,8.47-1.11,9.62-2.02,4.78-3.85,10.91-6.77,15.21-10.49l-1.84-.73Z"/></g></g></g></svg>