<?xml version="1.0" encoding="UTF-8"?><svg id="Layer_2" xmlns="http://www.w3.org/2000/svg" xmlns:xlink="http://www.w3.org/1999/xlink" viewBox="0 0 300 300"><defs><style>.cls-1{fill:#E0EBFE;}.cls-2{fill:none;}.cls-3{clip-path:url(#clippath);}</style><clipPath id="clippath"><rect class="cls-2" width="300" height="300"/></clipPath></defs><g id="States"><g id="Missouri"><g class="cls-3"><path class="cls-1" d="M300,233.16c0,.86-7.12,5.7-7.12,5.7l-5.98,9.11-1.98,9.11-4.85,15.65v5.89l-31.68,3.41,1.81-8.44,11.38-11.67-4.27-10.25-204.65,6.82v-25.14l-3.15-.11v-126.75l-8.51-7.39-5.7-7.12-4.55-10.52,5.69-9.4-.85-8.62h-10.53l-7.97-8.17-5.13-11.1-7.68-7.68L0,21.67l173.91-3.7,3.7,7.11,5.51,6.46,1.9,18.22,5.31,16.32,28.85,25.81c2.07,12.09,1.86,9.64,8.73,19.35h12.9l6.46,5.7-4.18,17.07-6.82,11.01,11,14.79s7.97,12.27,9.87,11.83c1.89-.43,14.43,0,14.43,0l11.76,20.06c.19,18.76-3.02,21.02,15.18,29.6,0,0,1.52,11.02,1.52,11.86"/></g></g></g></svg>