<?xml version="1.0" encoding="UTF-8"?><svg id="Layer_2" xmlns="http://www.w3.org/2000/svg" xmlns:xlink="http://www.w3.org/1999/xlink" viewBox="0 0 300 300"><defs><style>.cls-1{fill:#E0EBFE;}.cls-2{fill:none;}.cls-3{clip-path:url(#clippath);}</style><clipPath id="clippath"><rect class="cls-2" width="300" height="300"/></clipPath></defs><g id="States"><g id="Montana"><g class="cls-3"><path class="cls-1" d="M9.23,61.23c95.19,11.81,190.8,15.22,282.03,15.92,6.69.07,8.74,2.75,8.74,8.3v133.39c0,5.77-1.17,6.52-5.55,6.69-57.7,2.31-114.58,2.29-169.8-3.63-4.3-.46-6.89-.83-7.45,4.6l-1.15,10.84c-.18,1.65-2.18,2.07-3.11.46-9.79-16.78-3.42,1.82-14.97-1.41-5.61-.75-8.78-2.38-15.32.66-3.23,1.5-7.46-3.75-12.17.17-3.39,2.84-7.15-.09-7.73-4.47-.55-4.41-.66-8.61-4.29-9.62-9.6-1.63-3.33-15.49-10.26-26.04-7.02-11.88-20.27-.4-18.74-14.89,1.08-10.2,9.64-26.57,2.77-29.61-6.87-3.04-13.3-19.93-19.83-25.35-6.54-5.42-8.01-9.17-7.84-14.78.18-5.6-1.56-9.03-2.99-11.59-4.51-5.91,2.02-28.79,1.71-35.44.32-2.68,2.43-4.66,5.93-4.23Z"/></g></g></g></svg>