<?xml version="1.0" encoding="UTF-8"?><svg id="Layer_2" xmlns="http://www.w3.org/2000/svg" xmlns:xlink="http://www.w3.org/1999/xlink" viewBox="0 0 300 300"><defs><style>.cls-1{fill:#E0EBFE;}.cls-2{fill:none;}.cls-3{clip-path:url(#clippath);}</style><clipPath id="clippath"><rect class="cls-2" width="300" height="300"/></clipPath></defs><g id="States"><g id="Nebraska"><g class="cls-3"><path class="cls-1" d="M300,218.25c-.47-2.06-.59-4.24-2.44-5.6-1.36-2.24-1.48-5.13-3.06-7.41-.71-3.32-4.72-3.3-5.92-6.03-.03-2.71-2.11-4.37-2.9-6.79-.31-3.97-2.7-6.98-4.79-10.1-.41-2.49.94-5,.3-7.52-.99-3.65-3.1-6.97-2.27-10.95.72-4.58-4.1-3.72-2.46-6.08,2.11-2.88-2.84-2.8-1.21-5.22,2.02-5.47-4.69-4.09-5.44-6.45-.61-4.59.98-9.79-2.54-13.29-.64-2.47.32-5.81-2.25-7.34-1.55-1.63-4.83-2.95-4.8-5.43,2.27-4.43-4.34-4.27-2.38-11.77-.49-6.1-10.12-2.06-11.21-8.42-1.22-4.29-6.66-3-9.73-4.67-.68-.5-.72-1.38-1.03-2.09-1.59-1.63-4.5.06-6.42-1.26-2.22-1.04-3.16-3.81-5.77-4.23-5.33-.94-10.17,3.3-15.5,1.06-3.19-.38-3.62,5.21-6.82,2.43-2.77-1.64-5.28-4.06-8.51-4.7-3.05-.06-4.67-2.96-6.88-4.56-59.46.71-123.5-2.81-181.38-1.23-1.31,29.68-3.04,59.75-4.57,89.51,19.15,3.8,44.77,2.11,65.34,3.96.79,0,1.06.27,1.03,1.1-.45,14.48-.77,28.74-1.16,43.27,75.6,1.41,159.53,2.27,234.79-.19Z"/></g></g></g></svg>