<?xml version="1.0" encoding="UTF-8"?><svg id="Layer_2" xmlns="http://www.w3.org/2000/svg" xmlns:xlink="http://www.w3.org/1999/xlink" viewBox="0 0 300 300"><defs><style>.cls-1{fill:#E0EBFE;}.cls-2{fill:none;}.cls-3{clip-path:url(#clippath);}</style><clipPath id="clippath"><rect class="cls-2" width="300" height="300"/></clipPath></defs><g id="States"><g id="Nevada"><g class="cls-3"><path class="cls-1" d="M251.54,251.04c-1.95-82.52-4.87-165.01-7.04-247.52-.08-3.89.85-3.51-3.9-3.51H51.2c-.2,41.52-3.9,91-2.44,131.86,61.04,56.05,121.81,112.29,183.06,168.13-1.43-7.55,2.94-3.96,2.12-8.52-.67-4.44-2.36-8.67-2.91-13.06.36-3,.68-5.94-.93-8.76-.73-1.46.71-2.57.79-3.96.24-2.13-2.2-2.9-2.74-4.75-2.55-7.69,5.56-5.66,10.32-6.08,1.87.35,1.72,3.53,3.6,3.83,5.69,1.4,10.02-1.71,9.47-7.67Z"/></g></g></g></svg>