<?xml version="1.0" encoding="UTF-8"?><svg id="Layer_2" xmlns="http://www.w3.org/2000/svg" xmlns:xlink="http://www.w3.org/1999/xlink" viewBox="0 0 300 300"><defs><style>.cls-1{fill:#E0EBFE;}.cls-2{fill:none;}.cls-3{clip-path:url(#clippath);}</style><clipPath id="clippath"><rect class="cls-2" width="300" height="300"/></clipPath></defs><g id="States"><g id="New_Hampshire"><g class="cls-3"><path class="cls-1" d="M186.72,4.77l18.64,212.07c.54,6.11,6.71,13.4,9.91,15.53,3.21,2.14.27,9.1,5.62,15.8,5.36,6.71,8.84,7.5,6.43,12.33-2.41,4.82-4.04,9.83-6.82,14.32-4.74,7.66-8.28,1.51-15.45,4.34-7.15,2.79-11.1,5.06-16.15,10.81-4.51,5.11-5.56,10.04-12.19,10.04h-88.95c-9.19,0-15.57-3.57-15.64-12.18-1.77-18.87,8.2-18.11,7.23-37.1,0,0,3.75-35.62,3.75-35.62,1.4-13.31,6.88-17.63,6.3-26.26-.33-4.95,10.39-10.3,10.43-18.87.04-4.79,2.06-7.85,3.79-10.36,11.29-13.45,3-44.86,12.42-48.29,6.98-1.62,10.09,1.48,13.8-5.22,3.1-5.58,9.64-5.1,12.05-9.92,1.48-5.47,6.03-4,5.89-8.3-.13-4.28-.39-5.22,2.68-6.82,3.09-1.62-6.69-11.25-6.82-16.75-.13-5.48,3.21-11.91,7.1-16.6,3.88-4.68-.28-6.15,0-10.84.88-8.32,7.97-22.46,10.36-30.67,2-5.54,5.69-6.64,9.1-5.1,5.23,2.41,6.22,4.83,9.04,1.21,3.47-4.45,7.11-1.83,7.5,2.46Z"/></g></g></g></svg>