<?xml version="1.0" encoding="UTF-8"?><svg id="Layer_2" xmlns="http://www.w3.org/2000/svg" xmlns:xlink="http://www.w3.org/1999/xlink" viewBox="0 0 300 300"><defs><style>.cls-1{fill:#E0EBFE;}.cls-2{fill:none;}.cls-3{clip-path:url(#clippath);}</style><clipPath id="clippath"><rect class="cls-2" width="300" height="300"/></clipPath></defs><g id="States"><g id="New_Jersey"><g class="cls-3"><path class="cls-1" d="M228.9,44.53c-.13.42-2.62,10.5-2.77,11.24-.14.92-8.06,17.26-8.14,18.17,0,0-1.06,5.36-1.06,5.36-.24.76-1.47.22-1.9.9-1.29,1.45-4.17,4.08-4.17,6.2.14.74-4.56,1.37-4.94,1.6-.64.33-2.5-.21-3.18-.15-3.89.13-2.49,7.42-3.59,9.51-.7,2.33-3.05,1.19-3.34,2.84.82,4.52-1.42,3.63-1.87,6.65.61,4.65,2.2,4.09,5.68,6.18.97.43,3.31-.36,4.28-.48,3.72-.42,7.18,1.09,10.24,2.86,6.47,3.03,7.92-.65,3.84-5.72-.33-1.7,1.73-.83,2.07.19.27.76,1.74,3.04,1.68,3.83,0,.71.2,7.71.13,8.2.58,7.12-4.02,26.1-5.57,33.17-2.15,10.71-4.47,31.59-6.01,42.21,0,0-16.58,30.15-16.58,30.15-.13.23-.43.5-.68.59-1.58.54-3.77,1.15-2.85,3.36.19.44.71,1.1.36,1.59,0,0-4.94,7.8-4.94,7.8-1.53,1.9-4.99,3.17-5.4,5.96-3.57,3.29-11.06,5.26-14.06,10.16,0,0-5.05,4.49-5.05,4.49-2.77,3.59-7.04,11.28-9.47,15.19-.58.78.88,1.46.42,2.21,0,0-6.58,9.4-6.58,9.4-.45.61-1.1,2.89-1.35,3.62-1.91,2.44-5.5,5.41-7.76,6.93-5,.98-3.76,1.9-9.34.74-.9-.09,2.04-10,2.1-10.29.36-.71,4.54-8.91,4.6-9.46,2.42-7.36,1.01-10.68-6.9-11.77,0,0-5.01-.75-5.01-.75-.1-.02-.19-.07-.25-.16,1-3.73-4.58-1.52-6.52-1.59-.55.04-1.77,0-2.07.61-2.43,3.86-1.47,3.59-4.47.34-.51-.02-.53-3.62-.63-3.94-.97-2.07-4.28-4.14-6.42-4.99-1.68-1.43-.07-3.43-3.31-3.63-.87-.39-1.41,1.29-2.12.75-.49-.57-2.32-2.25-2.49-2.99-.28-1.27-.75-2.78-2.01-3.37-.84-.74-2.09.72-2.91.05-.53-.46-1.97-1.74-2.18-2.41-.27-.64-.34-1.78-1.07-2.06-2.88-.85-4.31-4.16-5.46-6.68-.43-.93-1.73-.42-2.39-1.04-1.15-.92-2.46-2.46-4.12-2.01-.83.19-1.09-2.53-1.4-2.9-.07-.23,0-.6.16-.78,2.14-1.87,1.18-3.41,1.16-5.79-.23-1.3,2.21-3.88,1.39-5.1-1.52-1.96-4.2-3.8-3.47-6.58-.15-.58,1.98-2.46,2.31-2.87,2.01-2.93,1.32-4.93,4.88-7.11,1.09-.94,1.27-4.95,2.19-6.02,3.5-4.35,8.16-8.78,13.44-10.83.53-.44,4.53.01,5.2-.07,1.92-.35,5.6-1.73,6.97-3.29.96-.91,3.96.37,4.71-.87,1.86-3,1.28-3.78.87-7,.97-4.31,6.44-3.89,8.4-7.56,4.45-3.82,9.68-8.16,15.61-9.1.64-.5,3.79-2.22,4.15-2.93.36-.37,1.52-2.78,2.2-2.65,2.52.79,4.65-.24,6.65-1.76,3.32-2.59,2.5-2.07.62-5.57-.56-.57-2.18-3.32-2.9-3.66-.46-.42-6.09-3.76-6.15-4.36-5.01-10.87-5.5-6.08-10.24-12.68-.71-2.42-1.05-6.96-4.3-7.23-10.17,1.18-6.57-7.5-6.68-13.85,0,0-.86-2.91-.86-2.91-.44-.99-1.75-2.6-2.73-3.16-2.87-1.44-3.02-1.77-5.97-.28-.79.44-1.85-.67-2.47-1.03-.62-.41-.31-1.58-.38-2.16-.05-.78-.23-1.7-.4-2.44-.2-.98,1.1-1.7.83-2.7-1.3-3.78,1-2.44.75-4.61-.23-.65-1.23-1.97-1.05-2.69,1.08-3.16-1.05-8.38,2.71-10.14,3.24.56,3.05.63,5.38-1.74,1.39-3.49,1.39-5.74,4.87-7.98.25-.22.37-.64.27-.96-.4-2.29-3.13-7.15-4.17-9.25-1.31-1.74-3.27-4.29-2.53-6.55.67-.54,3.29-2.95,4-3.26,0,0,5.16-2.46,5.16-2.46,2.42-1.86,5.48-7.32,6.16-9.83,3.64-2.66,7.71-6.03,8.94-10.63.73-7.3,5.92-13.93,12.26-17.47,1.44-.15,3.29-1.57,4.67-1.21,18.88,12.39,54.59,33.6,74.32,44.47Z"/></g></g></g></svg>