<?xml version="1.0" encoding="UTF-8"?><svg id="Layer_2" xmlns="http://www.w3.org/2000/svg" xmlns:xlink="http://www.w3.org/1999/xlink" viewBox="0 0 300 300"><defs><style>.cls-1{fill:#E0EBFE;}.cls-2{fill:none;}.cls-3{clip-path:url(#clippath);}</style><clipPath id="clippath"><rect class="cls-2" width="300" height="300"/></clipPath></defs><g id="States"><g id="New_York"><g class="cls-3"><path class="cls-1" d="M297.63,240.96c-.77-.02-6.99,1.81-7.56,1.52-.62.14-12.04-2.61-12.28-1.76,0,0-10.69,5.51-10.69,5.51-.28.15-.59.22-.91.22h-26.98c-2.07.49-3.98-6.77-4.8-7.89-.42-.96-.04-2.08.89-2.57,1.1-.82,4.62-1.66,4.32-3.6,0,0-.98-17.38-.98-17.38.07-.6,2.4-21.67,2.48-22.29,0,0,0-13.42,0-13.42-.11-.58,8.33-25.35,8.42-25.95.49-.76.19-40.21.45-40.97.5-1.5-5.43-5.5-5.98-6.54-1.61-.88,1.44-12.81,1.31-14.19.2-1.12-2.23-8.91-2-10.01,0,0,1.99-10.97,1.99-10.97.04-.23.04-.46,0-.69l-3.07-17.77c-.04-.23-.04-.46,0-.69l3.06-16.84c.22-1.22-.72-2.34-1.96-2.34h-53.16c-.36,0-.72.1-1.02.28l-20.6,12.36c-.97.57-21.14,22.39-22.09,22.99,0,0-13.8,8.87-13.8,8.87-1.47.86-1.26,6.48-.29,7.57,8.89,7.94,5.27,4.9,2.27,14.18.91,12.37,3.12,10.19-6.75,14.31,0,0-9.9,10.23-9.9,10.23-7.08,2.6-24.14,4.58-31.73,3.84,0,0-13.49-5.74-13.49-5.74-.66-.42-20.89-1.33-21.6-1.53-.24-.01-.48.01-.71.08l-17.73,5.45c-.25.08-.49.21-.69.38-.82,1.15-6.56,4.36-5.9,6.22,0,0,1.16,7.04,1.16,7.04.37,2.27,7.82,8.03,6,10.4-2.55,3.93-8.23,11.68-10.97,15.48-.85.78-10.1,5.57-11.08,6.19-.5.73-11.96,9.2-11.2,10.37,0,0,0,10.22,0,10.22,0,1.1.89,1.99,1.99,1.99,1.61.81,165.95-1.55,166.89.82.93.73,3.39,5.89,4.96,5.63,1.51.14,4.79-.27,4.93,1.96,0,0,1.17,10.48,1.17,10.48,2.85,7.24,21.22,16.78,27.41,20.88,0,0,15.84,8.91,15.84,8.91,2.08.88.17,5.48.21,6.99-2.06,4.12-7.35,10.92-10.19,14.58-1.88,3.01,2.45,3.49,4.41,3.81,1.81.48,6.22-3.73,7.94-3.79,0,0,14.66-1,14.66-1,.71.07,3.47-2,4.09-2.32,11.53-2.63,27.25-4.77,37.95-10.14,0,0,16.4-5.58,16.4-5.58,2.26-.78,1.36-4.38-1.07-3.83"/></g></g></g></svg>