<?xml version="1.0" encoding="UTF-8"?><svg id="Layer_2" xmlns="http://www.w3.org/2000/svg" xmlns:xlink="http://www.w3.org/1999/xlink" viewBox="0 0 300 300"><defs><style>.cls-1{fill:#E0EBFE;}.cls-2{fill:none;}.cls-3{clip-path:url(#clippath);}</style><clipPath id="clippath"><rect class="cls-2" width="300" height="300"/></clipPath></defs><g id="States"><g id="North_Dakota"><g class="cls-3"><path class="cls-1" d="M299.11,224.7c-.29-6.48-3.11-11.62-5.83-17.26-.71-2.11-.26-4.32-.71-6.47-.58-2.52-2.03-4.78-2.07-7.43-.67-6.4,1.8-13.39-1.93-19.08-.51-1.67.32-3.34.06-5.02-.14-2.08-1.54-3.78-1.75-5.85.09-4.52-.79-8.95-.62-13.46-1.01-4.34.57-8.98-1.54-13.09-5.62-7.48-7.16-16.5-10.32-25.08-1.75-4.8.31-10.09-2.32-14.74,2.57-8.13-1.67-7,.93-15.24.36-5.72-5.06-9.48-5.59-15.07-.7-1.68.69-8.27-1.2-8.22-12.75.36-25.56.34-38.32.56-73.38,1.31-146.72.3-220.11-.53-4.58,43.54-3.19,91.78-6.11,136.85C1.14,210.35.61,225.03,0,239.84c45.37,3.28,95.46-.15,142.39,1.16,51.95.14,103.88-.67,155.81-1.98,2.06.18.79-5.2,1.55-6.53.32-2.65.54-5.23-.64-7.79Z"/></g></g></g></svg>