<?xml version="1.0" encoding="UTF-8"?><svg id="Layer_2" xmlns="http://www.w3.org/2000/svg" xmlns:xlink="http://www.w3.org/1999/xlink" viewBox="0 0 300 300"><defs><style>.cls-1{fill:#E0EBFE;}.cls-2{fill:none;}.cls-3{clip-path:url(#clippath);}</style><clipPath id="clippath"><rect class="cls-2" width="300" height="300"/></clipPath></defs><g id="States"><g id="North_Carolina"><g class="cls-3"><path class="cls-1" d="M290.06,139.43l-.24-.53c.18-.22,1.2-.95,1.45-1.14l.07-1.02c.47-.36,1.71-.99,2.05-1.5l-.24-.6c.29-.07.83-.28,1.09-.43l-.31-.34c-.06-.68.13-1.56.41-2.17l.48.29-.12.85,1.09,1.05h.6l.24.47,1.21-.47v-.69c.39-.27,1.14-.87,1.5-1.19v-.6c-.55-.37-1.2-1.03-1.26-1.72l-.54-.48c.35-.27,1.05-.61,1.5-.6l.36.9.6.07v-1.14l-.31-.29c.09-.22-.32-.99-.4-1.19-.16-.76.42-4.82-.45-4.81-.07-1.01-.55-2.93-.95-3.86l-.65-.29c-.35-.87-1.39-1.82-2.33-1.98-.77.57-2.07.44-2.9.9l.6,1.02c.37-.24,1.21-.75,1.67-.72l.48-.54.48.12-.53,1.14,1.45.12.19.54c-.3.13-1.01.44-1.33.48l-1.74-.84c.42.48,1.21,1.57,1.57,2.1l-1.21-.07c0-.37-.31-.98-.53-1.26l-.65-.19-1.69,1.33.24,1.93c-.43,1.09-.66,3.3-.43,4.45-.53.85-.58,2.28-.47,3.24-.26.36-.71,1-1.19,1.09l-.48-.48c-1.08.14-2.16-.28-2.76-1.21.57.08,1.63.76,2.27.41l1.02-.12v-.66h-.54c-.25-.84.17-1.93-.26-2.76-.81.17-1.66-.35-2.34-.71l.36-.54v-.48l.6.19c.2.4.79.79,1.19.95.31-.33.25-1.5.24-1.91-.27-.33-.29-1.34-.29-1.74l-.6-.48.55-.6.65.19c.33-.55.88-1.77,1.12-2.33l-.78-.07-.9,1.09-1.62-1.81.77.07.97.72v-1.45l.84.6h.65l.12-.6c-.48-.41-1.54-1.18-2.12-1.43l-1.33.24c-1.6-.76-5.82.67-7.03,1.62l.9.6-.29.31h-.84l-.48-.48h-.9l-.29.24h-.41v-1.02c-.15-.24-.26-.86-.29-1.14l-.65-.12-.29.6-.65-.12c-1.89.99-4.35,1.85-6.5,1.74-.78.29-2.01.24-2.71-.24-.26.03-.77-.04-1.02-.12l.24-.6c.28-.21.92-.68,1.21-.9l.19-1.14-.48-.24-.07-1.45-.9-.41c.2-1.14-.43-2.78-1.02-3.73.07-2.24.04-4.35,1.79-6.02v-.97l-.6-1.09,1.5.48c.21,1.25-.97,3.27-1.55,4.23l-.05,2.59c.15.27.81,1.66,1.09,1.79l.12,2.65c1.23.3,2.93,1.19,3.84,2.05h2.58l.48-.54c1.27-.21,2.04-1.14,2.58-2.22l-.17-.48.9-.19.6.24c.51-.1,2.34-.3,2.71-.72l-.12-.36c-2.4-.28-4.49-2.41-5.77-4.35.21.25,3.32,1.41,2.84,2.22.43.27,1.28.52,1.79.48,0,0,.97.41.97.41l2.83,1.33,1.45.12.17-.36c-1.18-.81-2.63-1.94-3.5-3.12l-.07-1.26c1.05,1.11,2.84,2.21,3.84,3.36l.9.17.48-.41-.12-.84c1.14.08,1.29,1.17,2.45.16.49-.79-.53-1.94-.84-2.59l-.84-.41c-.08-.05-1.22.3-.83-.31l.53-.12c.03-.37-.24-1.02-.43-1.33-.98-.33-2.12-1.24-2.76-2.04l1.38-.12.6.72h.84l1.33.84.48.9.96.72c.79,2.59,2.67,2.74,5.05,2.83l-1.69-1.21.31-.78c-.21-.89-.55-2.07-.38-3l.48,1.09,1.09.78v1.21l1.38,1.98v2.1c.45.39,1.83,1.57,2.28,1.91l.65.05-.41-.72v-1.86c-1.22-.8-1.24-2.33-1.43-3.6,0,0-.9-1.14-.9-1.14.3-1.98-.98-4.19-2.15-5.73l.29-.24v-2.05l-.41-.54v1.43c-.21.25-.57.8-.72,1.09-.22-.55-1.04-1.51-1.45-1.93l.12-.66.84.19v-.48l-.9-.41v-.54l-.72-.53.41-.78c-.56-.25-1.78-.82-2.41-.66l-.12-.41c.5-.02,1.25-.41,1.64-.71l-.29-1.21c-7.18.02-22.67.09-29.73.19l-.29.29-32.21-.29c-.32.33-1,.46-1.43.48l-.97-.41c-.42.06-3.26-.11-3.5.36-40.29-.47-82.33.73-122.51-1.9,0,0-2.59,0-2.59,0l-3.43-.78-.65,1.45s-.05,3.79-.05,4.16-1.62,3.07-1.62,3.07l.41.66v1.74c-1.13-.06-3.28-1.27-4.15.12-2.1,2.74-5.07,6.1-5.96,9.5-.18-.07-.59-.24-.78-.31.28,1.09-.98.86-1.38.97-.42.59-1.34.52-1.72,0-.28-.85-.57-1.28-1.55-1.33,0,0-1.33-.6-1.33-.6l-1.57,1.14c-1.64-.18-3.74,1.13-5.07,2.34-.29.54-2.05,3.67-2.05,3.67l-3.67,2.22c-.31-.29-1.09-.61-1.5-.71l.12-2.05.65-1.02-1.62-1.33c-1.95,1.54-5.68,2.55-5.72,5.47,0,0-.54.78-.54.78-.57-.3-1.72-.96-2.41-.78l-1.09.84c-.02.35.29,1.11.43,1.43,0,0,0,1.38,0,1.38h-.65v1.02l-1.33,1.38c.1,1.14-1.14,2.07-2.12,1.28h-2.59l-.9.66c-3.18.08-.61,2.77-4.45,1.98-.11,1.08-1.28,1.91-1.76,2.81l-.36-.29c-2.44-.12-2.8,3.12-4.57,4.5-.48.19-3.02.36-3.55.48-.54.12-1.93-1.02-1.93-1.02l-1.26.72c-3.02-.23-4.19-.14-6.69,1.81h-1.96l-1.57,2.17c-2.41.72-3.14,3.19-3.14,3.19l.19.54-.29,1.26-.65.66c.09.94.68,2.21,1.02,3.09h-1.62l-2.41,1.79-1.57-.24c-.84.63-.94.46-1.19-.48,0,0-.66-.53-1.02-.48-.36.05-.66.72-1.14.84-.48.12-1.09,1.33-1.09,1.33l.07,2.17h-.48c.04,1.15-.19,3.4-.48,4.52,0,0,0,3.79,0,3.79l24.25.07.41-.41,17.66-.12c.75-.18,10.62-3.53,11.08-3.55l.36.66.6.19c.49-.92,1.61-1.57,2.55-1.92l-.29-.33v-.48h.79l.26.36c.66-.24,1.05-1.1,1.88-.76.44-.29,1.19-.73,1.74-.57v-.6c1.14.15,2.57-.34,3.62-.72v.6c.81-.49,1.45-.4.97-1.69l1.57-.48v1.57l.72-.97,1.21.48c7.89-.77,35.3,1.59,43.91,1.45l.6.72.24.84-.84,1.57.48,1.57,4.22-2.53,5.31,7.61-.6.97v3.74l39.21.6,39.21,42.25c5.95-2.3,12.16-3.16,18.39-1.64l-1.53-1.12,2.36-.48s.9-1.47,1.12-1.53c.74-1.74.93-5.77,1.31-7.66-.01,1.69,0,5.36.07,7.02-.13.28-1.08,2.74-1.1,3.21v3.07c2.92-13.84,7.88-22.97,20.46-30.13-.06-.44.08-1.25.28-1.65-.47-.31-1.41-.93-2.02-.83l-.69-1.74,1.88-.28c.58-1.09.39-1.83-.41-2.71-.15-.15-1.31-.05-.9-.55v-1.26l1.95-.34-.9.48,1.33,1.19,1.12,2.09c-.54.73-1.5,1.8-2.36,2.16l.07.48,1.19.14c.55.46.82,1.4.9,2.09,2.34-1.47,3.99-3.97,6.1-5.62v-.76l.21.34,1.05-.41c-.07-.46.59-1.99-.48-2.02l.07-1.26-.48-.69,1.19.34c.15.53.26,1.93,1.03,2l-.69,1.95c3.9-1.28,8.55-2.98,12.74-2.28,0,.03,1.47.71,1.33,0l-.41-.34.28-.55-.21-.48-.55-.21-1.33.41.76-1.19.83-.28,1.67.48.41.55c.04.61-.52,1.51-.69,2.09l1.33.07c1.07-.97.99-2.92,1.17-4.24l.62,1.6.5.14c-.57.68-.22,1.29.24,1.91l2.17.07c.07-.73.15-2.3.07-3.02l1.09-.54.05.41.48.41.17-1.21c-.74-.82.44-.52.78-.48v-.66l.79-.12-.12-.72c.15-.18.1-.68.07-.9l.6-.48.05,1.09.41.19c.15-.83.18-1.01,1.14-.9l1.33-1.26-1.14-.07c-.06-.23-.23-.69-.34-.9l.66-.72c.37.22,1.14.53,1.57.54v-.66l.29-.19s-.05-.53-.05-.72c0-.17-.65-.78-.65-.78l-.29-1.21-.41.24-.48-.9-.55-.05-.17.66c.36.29.98.96,1.26,1.33l-.24.9c-.61-.26-2.63-1.32-2.05.29l-.6.53-.48-.66c-.46.26-.97.97-1.19,1.43l-.41-.9.05-.66.66-.17.41-.72-.31-.48c.2-.44.02-2.23,0-2.71l-1.09-.84v.29l.29.48-.24.84-.72.12c.2.56,0,2.36-.05,2.95l-.9-1.45c-.42-.07-1.26-.06-1.67.05l-.12,1.21,1.02,1.62-.48.9c-.56-2.29-1.88-.82-1.26-2.47l-.19-.72s-.84.24-1.09.36c-.24.12-1.02-.12-1.02-.12l-.65.41v.54l.72.84-.36.41s-.48-.72-.78-.72-.65-.24-.65-.24c-.21.23-.49.85-.6,1.14-.59.02-1.11.2-1.33.79-.94-1.11-3.26-1.08-4.39-1.74-1.12-.63-2.59-1.52-3.43-2.52.14-1.11-.51-2.22-1.12-3.07-.47-.24-.94-1.29-1.14-1.74,0,0-.05-1.26-.05-1.26.83.87,1.57,1.61,1.69,2.88l1.62.84c.72-.37.91-.12.72.67,1.21,1.29,3.32,2.36,4.76,3.41.11-.37,1.74-1.04,2.05-1.21,0,0,1.21-.66,1.21-.66l.48-.78.78-.12,1.14-1.45.77-.17c.37-.42,1.03-.47.36-1.21,1.34-.2,1.35-1.21,2.15-2.04l.05-.53-.72-.36-.36-.54-.66-.19c.17.25.33.79.36,1.09-.74-.02-1.77-.36-2.46-.6-.3.33-.95.93-1.31,1.19l-.77.07-.12-.66c.38-.1,1.1-.41,1.45-.6.04-.36.28-.99.53-1.26l1.02.48c.35-.29.82-.74,1.26-.9.41.08,1.09.19,1.5.31.2.14.69.44.84-.05l-.12-.54-.72-.41h-.6l-.12-.72c.8-.17,1.72.34,2.46.43l-.78-.9,1.33-.12-.17-.6.53-.41-.17-.29h-.72l-.24-.86-.84-.24-.07-.6-1.21-.72c-.22.02-1.61.14-1.79.12v-.72c-.8.21-1.82-.36-2.58.07l-.78-.24-1.74.78.24-.66,2.05-.97c-1.11-.57-2.73-.77-3.95-1.16-.12-.41-.74-1.18-1.02-1.5-2.06.64-3.27-1.58-5.12-1.91l-.17-.31c-.85-.19-1.96-.66-2.17-1.6l1.09.36c-.13-.37-.9-1.07-1.19-1.33l.65-.19c.71.54,1.58,1.52,1.97,2.33l1.09.17c1.79,1.67,4.81.91,6.74,2.4,1.11-.17,1.77-.22,2.77.48l.55-.41c.23.84,2.1,1.51,2.88,1.5l-.17-1.21-.48-.84-.12-.97.24-.54c-.1-.37-.97-1.39-1.21-1.69h-.97c.33-.57,1.16-.79,1.74-.97l-.12-.53c1.41.1,3.09.94,4.39.05l.24-1.21.72.84c-.42.46-.49,1.15-.48,1.86-.09.22-.85.34-1.09.48-.19.07-.55-.41-.55-.41l-2.1.12c.14.47.75,1.41,1.03,1.81-.19.29-.16.94-.1,1.26l1.14.31-.72.9.9.53h.29l.17.78,1.26.29v-.53l-.48-.36-.05-.54.72.29.31.66h.36v-.9c.28-.11.78-.73.96-.97-.37-.43-.44-.66-.24-1.21.43.49,1.95,1.43.9,2.22.2.26.67.81.97.95l.48-.19-.05-1.21.54.29.05.48.84.24-.19.78c.54.04,1.38-.23.43.66l1.5.6c.25-.48.14-1.22.24-1.74.18.27.59.81.9.95l.24.65c.59-.02,2.07-.04,2.6.24.14-.18.38-.8.47-1.02l1.02.05c.39-.24,1.21-.71,1.62-.9h-.72c.18-.67.52-1.62.71-2.29l1.38.48c.15-.41.46-1.31.57-1.72Z"/></g></g></g></svg>