<?xml version="1.0" encoding="UTF-8"?><svg id="Layer_2" xmlns="http://www.w3.org/2000/svg" xmlns:xlink="http://www.w3.org/1999/xlink" viewBox="0 0 300 300"><defs><style>.cls-1{fill:#E0EBFE;}.cls-2{fill:none;}.cls-3{clip-path:url(#clippath);}</style><clipPath id="clippath"><rect class="cls-2" width="300" height="300"/></clipPath></defs><g id="States"><g id="Ohio"><g class="cls-3"><path class="cls-1" d="M13.14,24.21l-1.19,217.23,4.31-2.77,2.55.57,2.38,3.17,3.92,2.38,3.92-1.98,3.52.4,1.98-2.38,1.98.79,1.19,5.11c9.35,0,6.48,5.59,12.2,12.59.15,1.37.09,6.86,1.19,7.88l10.61,2.38,4.71-1.19,7.49,2.38,1.19,3.17,3.92,2.38.4,3.17c1.95.76,5.75,1.55,7.84,1.58,0,0,2.38-3.52,2.38-3.92s5.9-1.58,6.29-1.58,3.17,2.38,3.17,2.38c3.93.86,8.93.75,10.66,6.29l1.98-1.98,7.88-.4s1.98-4.31,2.77-4.31,4.71-2.77,4.71-3.92,3.52,0,3.52,0l5.11-2.77,1.19,1.19c-.48,2.59,1.31,11.31,3.96,13.78,1.19,1.19,5.5,1.58,5.5,1.58l7.49,6.69,1.19,4.71,1.59,1.19,4.31-.4s5.9-2.77,7.09-2.77,4.31-.79,4.31-.79c0,0,2.38-9.47,2.38-10.21s7.09-2.38,7.09-2.38c-.16-1.47-.96-7.31-.79-8.67l-1.98-6.3,4.71-4.31v-5.11s2.38-4.71,3.17-4.71c2.04-1.12,3.08-3.93,3.96-5.55l1.59-.4,1.19,1.19.4,1.98,3.17.4,2.38,4.31-1.58,2.77.79,1.98,3.52-.79c-.07-2.97.21-3.36,2.77-4.75l2.38,1.98,1.19-.79-1.58-3.17,1.19-3.92-2.77-2.77-.4-2.38,3.92-1.19v-7.88c.91-.99,2.88-2.79,3.96-3.57l.79-3.52,7.09.4.4-5.9,6.3-4.71h2.77l2.77,4.71c.41-.21,6.96-3.51,7.09-3.57h3.17l1.98-3.92,4.71-2.38.79-2.38s7.09-9.07,9.82-9.82c2.77-.79,4.71-.79,4.71-.79-.2-2.68-.67-6.75,2.77-8.67l-2.77-3.92,3.17-2.77v-4.71l1.98-1.19-.79-3.92,2.77.79v-3.52l1.19-1.58.4-9.07,1.59-1.98v-5.11l1.58-1.19,1.59-4.31s3.17-4.31,3.17-4.71c.94-1.82.4-8.18-1.59-9.42l1.19-.4c3.57-6.5-.53-10.1-3.17-15.72l2.38-2.38h3.52l3.52-1.59.18-114.56c-9.3,3.14-21.92,10.32-31.87,11.01-1.16.56-14.12,7.42-14.97,7.48,0,0-2.38,0-2.38,0l-29.1,23.99-7.88.4-9.82-3.13-15.37,7.48h-6.29l-9.07,4.31-13.38-7.48-6.69-.79-5.5,3.52-8.67-1.98,5.5-3.17c3.41-.73,10.31-1.56,13.78-1.59l-5.9-1.58-.35-4.62-3.96,5.5-6.29-1.19c-5.33-5.19-3.98-5.28-11.4-7.48,0,0-10.61-7.09-10.61-7.09l-9.47.4,1.19-2.78-86.38,2.99Z"/></g></g></g></svg>