<?xml version="1.0" encoding="UTF-8"?><svg id="Layer_2" xmlns="http://www.w3.org/2000/svg" xmlns:xlink="http://www.w3.org/1999/xlink" viewBox="0 0 300 300"><defs><style>.cls-1{fill:#E0EBFE;}.cls-2{fill:none;}.cls-3{clip-path:url(#clippath);}</style><clipPath id="clippath"><rect class="cls-2" width="300" height="300"/></clipPath></defs><g id="States"><g id="Oklahoma"><g class="cls-3"><path class="cls-1" d="M.07,95.22c.21-6.39-1.99-15.25,8.1-14.9,0,0,275.36,0,275.36,0,6.06,0,9.99,3.94,9.99,9.33-1.51,9.01,5.25,50.01,6.48,59.68,0,0-2.12,65.12-2.12,65.12-.15,4.69-2.62,6.86-7.85,3.83-7.26-4.19-14.72-9.75-22.68-7.33-11.46,3.48-14.12.62-21.37,2.82-15.46,4.34-9.61,8.39-25.42,1.72-17.55-1.35-14.31,3.6-34.08-6.09-6.83-2.98-6.95,1.32-14.06-2.66-8.33-4.66-10.71-2.17-15.41-5.64-10.4-7.68-21.66-4.25-27.25-8.91-10.24-9.97-24.68-1.03-25.33-15.86,0,0,0-64.51,0-64.51,0-9.78.17-9.23-9.03-9.23H7.43c-5.57,0-7.37-2-7.37-7.37Z"/></g></g></g></svg>