<?xml version="1.0" encoding="UTF-8"?><svg id="Layer_2" xmlns="http://www.w3.org/2000/svg" xmlns:xlink="http://www.w3.org/1999/xlink" viewBox="0 0 300 300"><defs><style>.cls-1{fill:#E0EBFE;}.cls-2{fill:none;}.cls-3{clip-path:url(#clippath);}</style><clipPath id="clippath"><rect class="cls-2" width="300" height="300"/></clipPath></defs><g id="States"><g id="Oregan"><g class="cls-3"><path class="cls-1" d="M299.8,70.52c-2.32-2.58-2.68-8.13-7.11-7.84-1.09-1.32-1.98-2.49-3.96-1.85-2.46-2.16-4.42-5.79-5.97-8.81-.39.03-2.45.06-2.76.08l-70.78,1.98c-2.27.09-5.07,3.13-7.18,3.19-1.37.01-3.19-.27-4.43.05-5.2,1.19-6.27,1.44-6.51,1.5-2.09.17-3.82-.52-5.16.54-3.71,4.54-7.53,3.07-12.34,4.38-3.55.58-7.11,3.9-10.22,5.1,0,0-7.95.89-7.95.89-1.54.17-3.24-1.74-4.74-1.73-5.02.71-10.11,6.24-15.48,4.6-1.93-.44-4.21,3.19-5.85,1.65-1.09-3.28-4.54-4.69-7.77-4.26-4.38-.79-3.17-1.87-8.34-.58-2.78.45-6.93-.82-9.35,1.14-1.49.71-2.84,2.52-4.38,3.14-.92.17-8.69,3.83-9.47,3.18-2.75-1.14-3.74-1.19-6.04-1.1-.96.05-7.12-1.99-8.15-2.3-1.62-.67-3.71-4.27-3.94-4.52.32-3.8-.62-11.83-2.99-15.7-3.41-5.92-3.14-6.35-9.61-9.18-3.68-.65-2.69,2.08-8.88.24-.98-.13-.71-2.18-.93-2.8-.62-2.87-4.43-3.37-6.33-1.47-1.29,3.04-5.59.82-7.64,2.32-2.11,2.59-3.42-.43-5.44-1.42-.9-.78-3.46-1.99-2.2.42.41.44,1.08,2.29,1.28,2.94.25.77,1.16,6.49,1.24,7.46.05.33-.14.78-.41.97-3.52,2.17-2.44,2.57-1.39,6.02.24.86-.33,4.08-.55,5-.13.73.19,1.56.63,2.14.49.76.16,4.05.08,4.96-1.49,13.35-2.06,28.39-5.85,41.37-1.65,2.34-1.1,11.91-1.4,14.62-1.96,18.8-4.45,43.86-12.66,61.05-.8.55-2.3,1.21-2.24,2.38.35,3.51-1.29,9.55-2.09,12.9-.36,2.26-4.82,8.86-4.49,11.21.69,4.01,1.54,5.69,4.02,8.87,1.75,3.84.41,7.22-.97,10.8-.6,4.76,1.77,12.83,2.31,17.19h0c1.29,2.82,3.2,6.51,6.39,7.15,81.41,3.38,193.81,3.74,275.92.28.52-8.34-6.73-98.25-1.11-103.89.14-.73-.34-1.45-.93-1.83-2.12-1.79.75-4.35,1.67-5.91.87-1.64-1.97-2.27-2.76-3.28-1.94-1.46-2.76-3.15-5.66-2.43-.4.28-1.04.49-1.49.22-3.19-1.27-.16-2.32-1.54-4.27-3.22-3.14,1.02-7.52,2.14-10.63.88-9.31,7.05-10.13,9.54-18.02,1.37-2.28-.28-4.25.53-6.96.59-.9,2.88-4.13,3.06-5.21.93-5.27,3.34-11.92,5.52-16.82.33-1.63,4.29-7.69,3.15-9.1"/></g></g></g></svg>