<?xml version="1.0" encoding="UTF-8"?><svg id="Layer_2" xmlns="http://www.w3.org/2000/svg" xmlns:xlink="http://www.w3.org/1999/xlink" viewBox="0 0 300 300"><defs><style>.cls-1{fill:#E0EBFE;}.cls-2{fill:none;}.cls-3{clip-path:url(#clippath);}</style><clipPath id="clippath"><rect class="cls-2" width="300" height="300"/></clipPath></defs><g id="States"><g id="Pennsylvania"><g class="cls-3"><path class="cls-1" d="M299.02,201.96c-1.31-1.62-2.68-3.26-2.92-5.48.01-.81-.69-1.34-1.26-1.8-4.28-2.43-3.29-4.03-5.98-7.42-1.69-1.21-5.09.4-4.69-2.76-.25-3.93,0-9.95-4.82-10.89-1.14-1.73-.36-4.34-.68-6.27-.48-1.03-.26-2.32.54-3.14,8.16-5.85-1.95-14.87,3.39-16.39,4.18-2.13.1-5.22,6.57-6.86,3.32-2.19,4.03-6.68,4.94-10.26,1.53-2.45,3.11-4.96,4.73-7.36,1.27-4.27-4.33-8.18-8.06-9.02-6.18-1.95-7.4-9.14-8.46-14.7-.07-3.39-2.99-5.41-3.74-8.6-.89-1.83-3.31-1.6-4.44-3.19-1.93-2.36-2.21-6.26-5.33-7.4-74.55,1.03-149.73.7-224.36-.05v-19.58c-6.32,1.73-12.07,5.3-17.2,9.33l-.23-.24c1.1-.85,1.32-3.46-.69-2.3-2.01,1.02-2.35,3.43-3.86,4.81-6.26,3.14-12.86,5.65-19.24,8.4C1.18,131.85-.88,187.52.39,237.64c82.64,3.02,165.39.81,248.06.61.2-8.25,11.91-12.17,17.37-6.41,3.46-6.02,11.88-4.03,15.46-9.83.37-.51.73-1.2,1.31-.75,4.64-8.18,5.6-2.57,7.33-6.75.82-2.44,3.68-2.44,5.33-4.02,1.97-2.47,6.82-5.09,3.78-8.54Z"/></g></g></g></svg>