<?xml version="1.0" encoding="UTF-8"?><svg id="Layer_2" xmlns="http://www.w3.org/2000/svg" xmlns:xlink="http://www.w3.org/1999/xlink" viewBox="0 0 300 300"><defs><style>.cls-1{fill:#E0EBFE;fill-rule:evenodd;}.cls-2{fill:none;}.cls-3{clip-path:url(#clippath);}</style><clipPath id="clippath"><rect class="cls-2" width="300" height="300"/></clipPath></defs><g id="States"><g id="Rhode_Island"><g class="cls-3"><path class="cls-1" d="M184.03,0l-117.79,2.93.27,202.75c-27.12-1.54-11.56,10.71-12.14,25.9-.45,6.82-11.15,8.96-14.44,13.94,4.52.33,13.18-5.25,21.89-6.85,9.37-1.71,18.85.47,25.07-1.57,9.67-3.18,16.62-10,25.83-12.03,21.92-4.7,33.51,4.31,36.17-21.29,2.43,6.32,2.58,11.76-3.01,16.58,12.24,11.16,11.9-5.35,18.37-12.6-1.61-2.3-2.78-4.73-.88-8.03l7.63-1.69-1.32-9.33c5.36-2.63,3.24-11.07,4.55-16.85,1.43-8.55-3.52-14.45-7.99-20.55,4.38-1.52,10.98-1.06,12.04-5.54-6.19-4.88,2.11-10.21-2.09-23.84-2.41-2.15-5.02-4.03-9.93-2.68l1.19-6.19c13.58.23,7.73-.88,17.49,8.53.87-2.14,4.56-3.54,4.7-6.21.27-4.84-2.83-10.83,3.17-11.47-1.29-2.56-3.3-1.55-5.2-2.99-3.69-2.8-7.03-8.53-4.2-23.3-2.43-2.55-5.55-4.87-5.1-8.38,7.69-1.14,5.68-9.56,7.98-14.75,3.82,5.97,1.04,11.46-2.11,16.93,3.09,6.89,7.29,23.99,12.17,29.37,2.38,1.91,4.26-1.02,6.62.81,1.38,1.07.2,5.57,1.81,6.29,8.41-6.82-7.24-14.07-3.39-21.48l7.26,9.97,4.2-4.62c.97,6.11-1.89,9.86-2.85,14.05-.77,3.39.62,7.53-.92,9.8-1.17,1.74-3.85.64-4.75,2.69l2.27,7.21,6.01-5.57c2.24,2.38,1.31,10.65,6.84,6.93l5.72-10.56c-4.61-4.81-5.41-7.99-6.59-11.34,4.34,3.07,10.06,8.66,8.62,1.14-.68-4.05.63-6.95-9.23-16.32l-17.68-7.26c-8.08-7.42-3.19-15.74-1.51-24.6,1-5.28-3.86-7.41-1.42-16.57-4.7-3.27-9.4.44-14.1,2.39L184.03,0ZM233.79,118.53l-1.22,19.81c2.18,4.11.61,7.14-.63,10.27,4.58,6.41,3.45,12.95.5,19.23,3.45,6.08,1.72,7.51.24,9.16,3.55,4.29,6.49,8.78,4.04,15.07l6.38-.32c3.57-3.6,6.85-8.12,11.04-11.42,2.05-1.14,5.72.13,5.94-2.49l-3.86-30.9c-3.69-2.04-4.44-4.08-3.57-6.11-.61-3.31.64-5.69,3.06-7.48,2.1-3.23-1.06-6.46-.69-9.69-7.07-2.92-14.15-4.74-21.22-5.12h0ZM196.16,121.08c-.25-.01-.51-.01-.79.01-.25,5.98-1.22,6.9-1.93,9.67.99,4.29,4.53,3.57,5.37,6.16,1.18,3.61.82,8.09.21,12.7,4.26-2.82,9.7-3.75,9.15-14.27-2.1-1.91-4.32-3.81-8.91-5.72.48-4.37.58-8.35-3.1-8.56h0ZM229.76,126.21c-4.75,2.74-9.5,1.83-14.25,8.65-2.23,16.82-12.46,23.67-11.99,34.8l-4.92.3c3.8,5.78,2.14,9.74,1.62,14.08-2.06,1.95-3.66,5.39-8.14-.4-3.73,3.72-3.5,7.84-2.2,12.07,5.26-2.03,10.15-3.1,13.9-1.1,3.28-2.63,5.86-5.61,5.12-10.24,3.15-.16,6.45.78,9.12-2.7,3.48,6.03,4.48,3.74,6.61,5.27,3.48-2.66-1.75-5.4-1.14-7.17,1.33-3.86,6.05-5.77,5.28-12.51l-4.19-3.41,1.48-13.73c-3.29-3.41-5.26-7.61-1.9-11.74,0,0,4.86-2.29,4.86-2.29,0,0,.73-9.88.73-9.88ZM188.79,150.72l-9.51,17.2,4.32,11.7-4.65,1.91-.4,11.99,10.23-9.36.62-14.77,2.6-11.26-3.2-7.41ZM129.49,269.44c-.66.02-1.42.14-2.49.23-.1,3.58.87,7.23-1.9,10.64,1.57,1.65,3.42,3.26,1.69,5.43h0c-.6,1.07-4.22-3.58-4.68-2.77-4.55,8.12-4.06,13.46-3.42,16.68,3.44,1.99,3.91-5.11,12.48-2.92,3.36.96,3.24-.77,6.08-1.56,2.05-.57-4.63-7.46-4.42-8.78.68-14.95,3.64-14.95-3.35-16.94Z"/></g></g></g></svg>