<?xml version="1.0" encoding="UTF-8"?><svg id="Layer_2" xmlns="http://www.w3.org/2000/svg" xmlns:xlink="http://www.w3.org/1999/xlink" viewBox="0 0 300 300"><defs><style>.cls-1{fill:#E0EBFE;}.cls-2{fill:none;}.cls-3{clip-path:url(#clippath);}</style><clipPath id="clippath"><rect class="cls-2" width="300" height="300"/></clipPath></defs><g id="States"><g id="South_Carolina"><g class="cls-3"><path class="cls-1" d="M61.41,38.67c3.13-.51,10.92-.03,13.08-1.51.78,0,5.13.46,5.76,0,0,0,2.51-.26,2.51-.26l3.51.74,9.31-.26,2.25,1.51,3.03-1.77,7.54-.26,1.52-.74.74,1c5.98-.37,18.35-.72,24.38-.78v-1.7h2.77l.52,1.26,2.25-.26v2l-1.26,1.26.26,4.28,1.26,1.26c.73-.59,4.99-3.34,5.25-4.25l2.25.26,2.25,4.28,1.77,1.26-1,1.77,2.25.74,1,2,2.25,1.26c.16,1.28.26,6.85,1.26,7.79h2.51l-.26-1.26h4.51v1.48l7.8.26c3.62-.93,8.89-1.06,12.41-2.33,2.54-1.07,12.83-.57,15.63-.55l2.44-1.7,6.98.18.74,1.88c2.16.42,5.17-.39,7.35-.55,1.17,0,4.47.16,5.47-.55,8.63,2.77,14.89,11.63,22.98,15.3,0,0,1.88,2.62,1.88,2.62,1.83.02,8.43,6.63,9.79,7.76,0,0,7.54,4.91,7.72,5.47,3.07,3.54,8.07,6,10.94,9.83.18.96,9.24,6.61,9.24,6.61,1.35,1.31,4.03,4.07,5.28,5.47,0,0,1.7,2.44,1.7,2.44l2.25,1.51,2.62.74,1.88,2.07c-2.13,3.96-1.42,4.04-5.47,6.39-2.14.77-11.59,8.15-13.6,9.61-3.56,6.86-8.31,15.55-12.23,22.2,0,0-.55,3.95-1.15,3.95-.55,0-2.07,3.4-2.07,3.4l-1.51.18-1.15-3.58-1.51-.18-1.14.37c.61,2.06,1.22,5.01,1.29,7.17,0,0,2.62.74,2.85,1.33.22.59,2.25,2.07,2.25,2.07l-.18,2.25-2.62,1.7-.55,2.25-1.33,1.33-1.7-1.15-1.88,3.22-1.7,1.51-3.4,1.88-1.33,1.88-5.47-.37-1.15,2.84c-2.04.7-3.46,3.1-5.1,4.36l-.18,4.14-2.07,2.62-1.51.55c-1.42,3.29-4.58,6.42-7.91,7.57l-3.95-4.73-.74,3.03-1.7,1.33s1.51,2.25,3.03,2.85c.6,3.77.37,2.54-2.07,4.54,0,0-1.14,2.07-1.14,2.07l-1.33,1.14s-3.03,0-3.21.55c-.18.55.37,1.15-.18,1.15-2.12.15-4.4.62-6.24.92,0,0-2.44,1.51-2.44,1.51l-2.62-.55.55,3.95-2.07,2.07-1.51.44-.74.74s.55,1.7-.96,1.7-1.15,1.7-1.52,0c-.09-2.82,1.34-1.92-2.25-2.44-.46,1.03-3.25,2.49-4.17,3.03,0,0-4.51.19-4.51.19-4.51,3.08,2.82,3.99,3.58,3.58l-.37,2.07-2.07,2.07c-.68,2.53-3.26,4.34-5.47,5.47,0,0-.96,1.7-.96,1.7-4.82.16-5.75-1.14-7.72-5.1,0,0-4.14-3.4-4.14-3.4l-1.33.55-.18,3.4c.59,1.41,3.03,4.61,3.99,5.84-.25,1.26-.46,3.79-.37,5.06,2.14-.02,4.4-1.92,6.21-2.84l1.14.74-.37,2.44c-.66,1.3-2.27,3.41-3.4,4.32-1.66,2.05-4.96,3.12-7.35,3.99-.19,1.16-.71,5.26-1.29,6.24l-1.51-.37-.74-1.51-4.91-1.52-4.32-.37c-.95-.59-3.03-1.02-4.14-1.11l-2.85-6.02,1.51-.96c.55-2.36,1.48-6.68,1.29-9.05-.46-.9-1.46-2.87-1.88-3.77v-2.07c-4.56-6.75-9.67-9.53-16.77-12.78-2.87-4.64-3.62-10.14-2.84-15.48,0,0-.96-3.03-.96-3.03-1.07-1.1-5.05-5.21-5.84-6.43l.37-4.51-3.21-.96-3.03-2.44c.73-.8-3.86-3.04-3.77-2.84,0,0-3.03,0-3.03,0l-3.4-1.15c-.47-1.34-1.78-3.77-2.66-4.88l-2.25-.18c-.26-1.37-2.8-5.03-3.58-6.21,0,0-.37-3.03-.37-3.03-1.28-.44-3.9-1-5.25-1.11v-3.21l.96-2.44v-3.21l-3.22-2.25-.74-1.51-2.44-1.7-1.88.55-1.7-.74-2.25-2.44-2.62-.18c-.65-.74-2.08-2.49-2.44-3.4,0,0-1.88-2.25-1.88-2.25l.37-1.51c-2.99-4.3-8.11-6.88-12.64-9.24v-1.14l-2.25-1.88-4.14-1.7c-1.57-1.57-3.39-4.5-5.17-5.84v-2.62l-2.07-1.51-.37-1.33c-2.65-3.19-7.31-7.49-9.64-10.94.1-6.14-5.49-11.2-8.87-15.85l.96-1.7c-7.57,1.19-14.88-2.8-19.58-8.61-2.1-.82-6.67-2.85-8.5-4.14,0,0-2.44-2.62-2.44-2.62l-1.88-1.14v-3.03l2.07-.18.37-2.62c2.07-3.33,5.97-7.01,8.87-9.61,0,0,2.62-4.32,2.62-4.32,3.08-3.21,8.39-4.89,12.04-7.35l1.7.74,3.22-1.51.18-1.51c1.17-.25,3.52-.44,4.69-.18l1.7-1.14h.96l-.55-2.44,1.51-1.33c1.19-.13,4.33-.46,5.47-.37,3.07-.77,8.05-3.16,10.75-4.73,0,0,3.03-.96,3.03-.96l2.77.22Z"/></g></g></g></svg>