<?xml version="1.0" encoding="UTF-8"?><svg id="Layer_2" xmlns="http://www.w3.org/2000/svg" xmlns:xlink="http://www.w3.org/1999/xlink" viewBox="0 0 300 300"><defs><style>.cls-1{fill:#E0EBFE;}.cls-2{fill:none;}.cls-3{clip-path:url(#clippath);}</style><clipPath id="clippath"><rect class="cls-2" width="300" height="300"/></clipPath></defs><g id="States"><g id="Tennessee"><g class="cls-3"><path class="cls-1" d="M290.66,116.71l-.47.96-60.49-.47-.47,1.2c-9.2-.17-44.31-1.24-52.85-2.16-10.55.87-30.12.59-40.17-1.2-1.3.37-5.24,0-6.24.71l-1.2-.72c-12.11.4-31.4,1.01-43.52.95v-1.17c-2.27-.16-5.38-.52-7.64-.72,2.28,1.92,1.6,5.32,1.2,7.88-14.31-.88-33.76.29-48.06-.46.24,1.98-3.01,3.08-1.92.24h-1.67l.96,1.43c-.03.91,0,2.96.24,3.83l-.96,1.43s-.96.24-1.43.24-1.91-.24-1.67.47c.84,1.43,1.68,1.62,2.87,1.67l.24,1.2c-.92.48-2.83.7-3.83.95,0,0-.96-.24-.96-.24l-.96-.72-.24.47c.48.77,1.91,2.07,2.63,2.63,1.27.12.37,2.86.25,3.12-.81,1.09-2.62,3.67-2.88,5.01l-.96-.24c-.31.42,1.45,2.86,1.67,2.87v1.67l-.96-.47c-.96.09-1.9.71-2.16,1.67l2.39,1.67s.24.47-.24.72c-.47.24-4.54,2.63-4.54,2.63l-1.91-.47-2.16.96c-.35,2,.29,3.67,2.63,3.83-.86,2.27-.49,7.32-4.06,3.83,0,0-1.2,0-1.2.72v2.87l-.47.47-.96-.47h-1.45l-2.13,2.88.72,1.43c-.13,0,2.52-.95,2.39-.95,0,0,.72.47.24.96-.47.47-.96-.24-.96,1.43v1.67l-1.91-.24c-.74,3.07.94,1.93,2.63,2.39.09.33.7,3.92.96,4.06l-.72,1.43-1.67-.24-1.43.47-.72,1.67c-1.09.36-2.73,1.48-3.84,1.67l-.59,1.78h73.65v-.72l134.15.72.72-9.09,2.39-2.63.96.72c.73-.04,3.41-.38,4.06,0l1.91-1.43-.6-2.99h.47l.72-2.87c1.06-.85,3-2.74,3.83-3.81,1.24-.45,3.74-1.59,4.77-2.39l9.09.24s1.91-2.16,2.63-2.16c1.13-.2,6.9-2.54,5.97-4.54,4.5-2.24,3.47-2.33,8.6-1.92l3.59-5.03-.47-1.67c.26-.33.63-1.03.71-1.45.87-.81,1.93.83,2.16,1.2,2.06-2.64,3.36-4.21,6.46-5.73l1.2.96s-.24,2.63-.24,2.87,1.67.72,1.67.72l3.35-2.16c1.23-3.41,4.38-4.5,7.17-5.5,0,0,1.43-.72,1.43-.72h2.16l1.2,1.91,1.43-.24,1.43-.72s2.87-5.03,3.35-5.26c.47-.24.96-2.63.96-2.63l3.83-1.91,1.67,1.2,1.67-.24-.49-5.25.96-1.67-.47-1.2c.24-1.31,1.42-2.62,1.92-3.83h-9.34Z"/></g></g></g></svg>