<?xml version="1.0" encoding="UTF-8"?><svg id="Layer_2" xmlns="http://www.w3.org/2000/svg" xmlns:xlink="http://www.w3.org/1999/xlink" viewBox="0 0 300 300"><defs><style>.cls-1{fill:#E0EBFE;}.cls-2{fill:none;}.cls-3{clip-path:url(#clippath);}</style><clipPath id="clippath"><rect class="cls-2" width="300" height="300"/></clipPath></defs><g id="States"><g id="Texas"><g class="cls-3"><path class="cls-1" d="M213.78,284.8c-7.7-12.25-5.1-26.4.89-38.73,1.95-5.32,3.6-12.88,9.53-15.14,13.16-4.73,6.83-9.87,17.48-9.26,1.81,0,3.59-.5,5.13-1.45,2.44-1.82,12.23-6.63,13.67-9.33,2.08-3,4.48-7.47,8.16-8.69,8.81-4.17,24.92-8.32,26.67-19.86-.37-9.95.02-13.28,4.25-22.42,2.1-4.69-4-8.05-4.51-12.34-.7-5.84-1.21-9.87-5.88-14.09-4.23-2.69-.96-37.79-1.71-42.09-12.75,1.53-21.97-12.9-34.61-12.07-2.37.43-16.97,4.8-19.14,4.24,0,0-9.93-1.06-9.93-1.06-5.12-3.85-7.05-3.62-12.82-1.24-11.47-2.21-26.22-7.84-37.63-10.34,0,0-16.54-4.14-16.54-4.14l-8.66-5.38V7.25h-65.77v125.71c-1.2,1.1-82.51-2.14-82.29,1.17.08,1.06-.4,3.99.58,4.69,5.59,4.38,17.31,14.83,22.58,19.78,14.73,10.92,16.8,13,21.92,30.6,1.31,10.79,9.9,14.39,19.41,16.21,2.76.98,4.08,4.31,7.22,4.76,0,0,5.95,1.6,5.95,1.6,6.42.94,6.23-19.21,17.75-18.29,5.89-.18,16.46.88,22.27,1.95,4,0,12.75,8.98,15.9,10.98,2.85,2.33,7.17,16.98,9.12,20.02,0,0,4.71,8.72,4.71,8.72.98,1.79,6.47,8.25,7.82,9.9,1.82,2.61,8.02,4.36,8.16,8.01.32,1.93-.57,12.53,1.58,13.72,0,0,4.99,4.44,4.99,4.44,2.9,2.04-.8,7.94,3.26,8.83,7.8.11,12.33,4.77,18.96,6.86,5.13.72,12.47,2.99,16.87,5.61,1.03.49,2.27.09,2.82-.91.74-2,3.32-4.55,1.85-6.82"/></g></g></g></svg>