<?xml version="1.0" encoding="UTF-8"?><svg id="Layer_2" xmlns="http://www.w3.org/2000/svg" xmlns:xlink="http://www.w3.org/1999/xlink" viewBox="0 0 300 300"><defs><style>.cls-1{fill:#E0EBFE;}.cls-2{fill:none;}.cls-3{clip-path:url(#clippath);}</style><clipPath id="clippath"><rect class="cls-2" width="300" height="300"/></clipPath></defs><g id="States"><g id="Utah"><g class="cls-3"><path class="cls-1" d="M271.38,295.25c-2.96-79.01-6.48-158.15-9.45-237.19.14-2.87-8.05-.48-10.13-1.1-26.94.43-53.88.95-80.82,1.13-.35-19.39-.7-38.54-1.05-57.74C125.64.12,80.96.06,36.71,0q-2.07,0-2.11,2.07c-.78,34.72-1.51,69.59-2.26,104.29.57,63.51-6.7,133.01-2.39,193.63,80.49-.41,160.98.44,241.47-1.6-.04-1.37-.04-2.26-.04-3.15Z"/></g></g></g></svg>