<?xml version="1.0" encoding="UTF-8"?><svg id="Layer_2" xmlns="http://www.w3.org/2000/svg" xmlns:xlink="http://www.w3.org/1999/xlink" viewBox="0 0 300 300"><defs><style>.cls-1{fill:#E0EBFE;}.cls-2{fill:none;}.cls-3{clip-path:url(#clippath);}</style><clipPath id="clippath"><rect class="cls-2" width="300" height="300"/></clipPath></defs><g id="States"><g id="Vermont"><g class="cls-3"><path class="cls-1" d="M68.01.82v1.6c-3.01,2.6,1.45,1.56.48,10.71-2.48,1.91-2.65,2.77-2.48,5.78-.38.45-1.28,1.87-1.6,2.39v2.15c2.28,1.9,6.14,6,2.81,8.59-.23,1.07-.81,3.09-1.63,3.87.05.75-.4,6.36.27,6.84l-.72.48.21,1.27h-.48c-.02.48-.08,1.68-.06,2.15h-.39v1l-.61.82.48.54-.48.67h-.39l.48.73-.48.48v.88l-.27.33,1.06,1.06c-.3.62-.09,1.54.12,2.15l-.39.82c.56.33.93,1.02.88,1.66-.13.39,1.81,2.63,2.75,3.27.02.84.77,3.44,2.09,3.33v1.76l.94,1.06v.61l.39.33c-.04.63,0,1.93.33,2.48,0,0,0,3.75,0,3.75l.61.48v1.75l-.39.33v.88c-.09-.06-.61.28-.54.48-.18.49-.9,2.77-1.21,3.15,0,0-.12,1.15-.12,1.15l-1.6,1.82v2.36l.94,2.36-.12,4.9h.73l-.12,1.55.48.6.06,2.42c-.6-.87-.24,1.59-.33,1.42-.35.37-.6.97-.57,1.48h-.94c-1.26.92-2.08,2.18-2.51,3.6-.33.12-.61,1.15-.61,1.15-.52.37-2.08,1.55-2.69,1.66v1.6l-.6.82v1.48l-.33.55v2l-1.45,1.24c.34.78.82,1.94.72,2.82h-.72l.27,1.21c-.79,1.06-1.99,2.74-1.73,4.15-.04,1.1-.74,2.59-.63,3.75.43.15,2.47,1.71,2.87,2l-.27.6.48.55c-.04.35-.07,1.31-.39,1.54-.03.47-.18,1.43-.33,1.88,0,0-.06,2.27-.06,2.27l.48.55-.06,1.27.33.39c.03.4.02,1.22-.27,1.54,0,0-.21,2.42-.21,2.42.6.9.95,2.32,1.15,3.36,2.04,1.91,3.01,4.91,2.33,7.66l-.82.88h-.73c-.07.36-.33,1.03-.55,1.33l.27,1.21.73.82.27,1.6,1.79,1.21c.17,1.07,1.32,2.64,0,3.36-.15.78-.58,2.52-1.18,3.09v1.94c-.81.93-2.26,2.61-2.45,3.87l-1,.67.27,1.27-.52.39c.14,1.14-.65,2.65-.82,3.75l-.94.55v.73l-.39.48c1.02,1.46,1.66,1.42.54,3.09.38,1.36-1,2.75-.88,4.02h1.06c.59.41,1.87,1.27,2.48,1.66l.33-.88c1.56.9.55-2.02.67-2.21l.67-1.27c.72-.12.38-1,.27-1.33.35-.39.37-1.15.33-1.64.62-.13,1.8-.11,2.39.15,1.14-.14,3.03-.74,4.18-.24l.06.88.94,1,.94.21c-.84,1.15-2.5,4.11.03,4.3l.67.73.82-.33c.27.65,1.25,1.98,1.7,2.54v1.76l.39.48v.88l-.33.39v4.63l-.27.33.06,7.99-.55.55.27,7.45-.73.27.21,8.44-.54.39c.21,3.41.31,10.28.15,13.68l-.48.61.21,5.84-.48.06c.05,2.72.07,8.29,0,10.99l-.48.33-.27,6.72-.27.33v13.95l-.55.12.06,7.51c-.62.7-1.68,2.53-.6,3.27-.17.7-.52.81-.67,1.55-.26.18.89,6.68.94,7.11,10.44.53,31.62,1.23,42.01,1.27l.61.39c7.63.33,29.28,1.27,36.59,1.27-.59-1-1.88-3.2-1.76-4.42-.43-.47-1.43-1.48-2.09-1.6-.1.33-.37.96-.61,1.21l-.94.12.06-1.21.48-.55.06-.54c-4.53-4.52-2.83-4.63-4.84-9.47.45-.16.28-3.87.33-4.24,2.38-.89,2.27-1.22,2.09-3.57l.94-.27v-1.15l-.48-.61v-2.36l-.55-.73c.1-.76,2.45-1.6,2.88-1.69-.24-.58,1.03-.22,1.12-.27l.48-.94,1.42.21.88-1.6-.12-1.27.39-.73,1.21-.12.39-.88-.12-.61-1.76-1.66-.21-1.33.39-.21.12-1-.73-1c-.03-.65.41-1.21,1-1.42,0,0,2-2.15,2-2.15l.06-.88c-.49-.71-.95-1.75-.82-2.63.24-.08.68-.32.88-.48l.12-1.54c-2.09-1.17-1.97-4.8-2.15-6.72.47-.4,1.34-1.29,1.66-1.82l-.33-4.96.72-1.06c-.7-1.54-.59-3.61,1.15-4.36,1.29-1.69,1.74-4.1,2.3-6.08.26-2.5-3.25-1.32.76-5.87l-1.33-.12c-1.08-1.91-2.23-2.79-.24-4.69v-1.06l.55-.39.12-2.09c.28.05.37-2.35.33-2.24.17-.39.52-1.31.66-1.73l-.39-2.09.21-.39c1.16,0,.98-2.81.94-3.21-.3-.5-1.12-1.88-1.6-2.21v-1.76l.82-.33.94-2.75-.27-2c.12-.2.28-1.51.27-1.75.6-.39,3.79-2.02,4.03-2.72l.72-.21.12-1.15-.55-.33-.06-2.09.61-.39-.06-.55.48-.73.61-.12.21-2.42c.63-.24,1.11-1.43,1.21-2.15.38-.5-.22-1.43-.33-1.72.51-2.69.97-3.33,3.03-5.09l.06-.82c.74-.28,1.86-.61,2.36-1.27,1.99-.14,2.46-2.8,4-3.54,0,0,.33-2.48.55-2.48.93.36.62-1.29.67-1.45.26-.18.7-.61.88-.88v-.82c-.95-.03.68-4.54-.36-5.36l.12-1.06c.39-.24,1.01-.44,1.42-.64l.48-.94-.55-.48.12-1.06,1-.06c.92-3.81,1.49-1.85,2.6-3.78,0,0,.73-.67.94-.67,1.03.07.55-2.52.73-2.84l-.55-.48c1.17-.48,1.64-.86,1.94-2.12l.72-.55-.54-.33-1.88.06c0-.59-.2-2.53.27-3l-.33-.33.67-.82.88-.27c-.03-.37-.09-1.45-.33-1.75l.73-.12.12-.88.72-.12.39.48.39-1.27.61-.48-.67-.67.06-.55c.26-.19,1.1-.83,1.39-.94-.11-.31-.34-1.04-.27-1.36l.54.06.82-.48.33-1.15-.21-.94c.3-.05.93-.07,1.21.06l.33-.48c-.63-.76-.98-.9.15-1.27l.33-.82-.6-.73c-.27.12-1.02.43-1.21.67-.63-1.12-.73-2.2-.21-3.39l.61-.39h.73l.33-.66-1.15-.39-.06-3.63c-.86-.47-1.15-2.62-1.91-3.21,0-.57.02-1.56.45-2,.1-.41.37-1.44.67-1.76v-1.97l.27-.27.21-1.15c-.65-.85-1.72-2.24-.94-3.3l-1-.33c-.33-.4.55-1.84.73-2.03l1.76-.82c.99-1.25,1.28-2.18.85-3.75l.6-.48.48.61c1.14.09,2.5-.92,3.48-1.39l.06-.82c1.18.06,3.71.15,4.87.12.4-1.05,1.82-1.38,2.82-1.33l.88.55.55-.06c.28.13,1.14.52,1.33.76.46-.45,1.51-.5,2.09-.45,1.07-1.13,1.9-2.12,3.63-1.7-.06-.99-.15-3.11-.12-4.09l1.06.06c.07-.51.28-1.56.48-2.03l2-.12.67-.88.55-.21c.37.09.88.5,1.09.82.51-.22,1.2-.74,1.42-1.27l1.06-.06c1.19.85,3.38-1.54,4.3-2.21v-1l1.48-.39c.42-.73.66-1.98.61-2.81l1.54-.12v-.82l-.88-.21v-.88c.32-.32,1.05-.89,1.42-1.15l.54.55.61-.61,1.94-.06c.28-.9.82-2.08,1.6-2.66l.06-.88-.48-.6-.73-.21v-.42c1.29-.12,2.21-1.1,1.94-2.42-.48-.43-1.72-1.51-2.3-1.76l.12-1.21.61-.54c.64.35,1.64.31,2.33.39l.39-.88.39.27c.25-.03.75-.15.94-.33l-.67-1.15,1.21-.21c.14-.32.51-1.07.33-1.42-.67-.17-1.97-.78-2.57-1.12l.88-.88c-.16-.35-.16-2.02-.18-2.42l.73-.21c-.39-.38-1.16-1.16-1.55-1.54.32-.52.46-1.22.33-1.82l-1,.33-1.48-.73-.39-1.21.33-1.6c-.84-.58-1.32-1.76-1.03-2.75-.3,0-.27-1.1-.33-1.15-.51-.47-1.51-1.44-2-1.94l.12-.61-.94-.67.21-1.76-.61-.27.67-1,1.33-.06.06-1.33c.75-.33,1.56-1.15,1.48-2.03l.73-.67.72.06c.81-.78.4-2.23.94-3.15l-.67-.06v-1.21l1.21-.67.33-1.15.61-.39c.02-.39.05-1.25-.27-1.54l.12-.88.27-.27c0-2.64,1.6-.01,2.88-3.75l.27.06.27-1.15c.35-.3,1.09-1,1.27-1.42.56.51.4-.55.51-.67-.57-1.12-2.16-2.84-2.48-4.09l.48-.39-.33-2.69c-.41,0-.74-1.2-.88-1.36l-.67-.88-.88-.27.94-.82v-.6l.55-.82c.77-.13,1.6-.76,2.24-1.15.54.36,1.68,1.01,2.36.88l.27-.73,1.15-.67-.03-.3c-4.05.18-14.32.36-18.49.42l-.21.33c-8.37-.05-25.44.69-33.66.76l-.21.39-17.49-.27-.21.39-10.59.12.06-.39-8.05.12-.33-.39-13.29-.12-.48-.39-2.42.21-.27-.58-3.42.39-.55-.67-38.14.21-.06-.39h-1.42l-.12.33c-5.7-.11-19.59.41-25.06.33Z"/></g></g></g></svg>