<?xml version="1.0" encoding="UTF-8"?><svg id="Layer_2" xmlns="http://www.w3.org/2000/svg" xmlns:xlink="http://www.w3.org/1999/xlink" viewBox="0 0 300 300"><defs><style>.cls-1{fill:#E0EBFE;}.cls-2{fill:none;}.cls-3{clip-path:url(#clippath);}</style><clipPath id="clippath"><rect class="cls-2" width="300" height="300"/></clipPath></defs><g id="States"><g id="Virginia"><g class="cls-3"><path class="cls-1" d="M279.2,217.28c-31.75.61-216.11-.27-273.83-1.96-5.86-.08-8.62-7.45.68-10.09,10.89-3.08,14.03-8.84,20.75-12.93,7.35-4.48,11.71-3.82,18.64-9.39,16.67-15.05,12.29-2.76,21.95.08,10.43,3.09,8.86-7.71,18.75,2.89,6.86,7.33,19.6-10.25,27.82-15.81,30.7-16.71,18.85-52.16,43.85-40.46,7.92,1.98,4.26-24.12,12.19-22.31,16.23,3.76,16.93-5.58,20.24-16.03,6.83-21.97,15.01,4.84,21.78,1.98,6.53-2.76,8.07-6.28,13.71.5,2.84,3.4,3.34,6.86,10.05,11.43,8.61,5.86-.84,9.93-2.46,19.38-.6,3.5-.96,8.6,5.74,6.32,6.7-2.28,4.3,6.08,10.05,8.6,8.5,4.21,25.97,7.29,20.47,23.35-.92,3.58-6.25.68-12.59-2.16-2.2-.98-4.6-3.9-5.39-3.84-2.3.16.44,4.02,3.64,6.25,2.48,1.72,4.7,2.66,7.35,3.42,4.14,1.17,2.92,6.36.98,9.32-3.38,5.17-3.14,6.36.38,11.67,3.36,5.12,2.04,5.91-1.96,5.91-1.82,0-4.25-.42-5.97-1.1-3.9-1.52-5.66-3.49-6.38-2.17-.74,1.34,1.32,3.87,3.16,4.99,14.93,9.13,25.04.23,26.98,6.45,0,0,4.65,10.95,4.65,10.95,1.3,3.05-.52,4.75-5.22,4.75Z"/><path class="cls-1" d="M274.87,189.4c-4.77-6.53,8.59-39.69,17.87-37.86,2.19,0,9.38-2.28,6.66,2.64,0,0-15.63,25.67-15.63,25.67-2.14,2.07-5.01,15.16-8.9,9.56Z"/></g></g></g></svg>