<?xml version="1.0" encoding="UTF-8"?><svg id="Layer_2" xmlns="http://www.w3.org/2000/svg" xmlns:xlink="http://www.w3.org/1999/xlink" viewBox="0 0 300 300"><defs><style>.cls-1{fill:#E0EBFE;}.cls-2{fill:none;}.cls-3{clip-path:url(#clippath);}</style><clipPath id="clippath"><rect class="cls-2" width="300" height="300"/></clipPath></defs><g id="States"><g id="Washington"><g class="cls-3"><path class="cls-1" d="M80.41,53.28h197.15c11.63,0,13.54,3.26,13.91,13.94.83,2.49,3.14,148.19,7.69,144.09,2.49,9.26-.6,9.28-10,9.28h-64.99c-8.04,0-11.36,6.08-19.43,6.28-22.51-1.05-30.76,15.98-42.25,12.29-13.63-6.73-13.39,1.99-24.61,3.96-5.37.11-9.85-4.5-15.14-5.42-11.99-3.43-20.38,4.43-30.74,8.26-6.4,1.7-10.67.63-15.21-4.56-3.77-4.31-2.7-11.63-4.52-17.07-2.25-6.31-6.81-13.02-13.39-15.14-2.59-.62-5.38,1.88-7.95,1.13-2.76-.81-3.84-4.58-6.53-5.57-4.69-1.73-11.44,3.53-14.97,0-6.06-6.04,0-13.24,0-23.9,0-3.33-5.27-2.83-5.27-7.02,0-3.04,6.71-3.68,4.24-7.95-3.3-5.74-8.26-5.59-9.11-11.76-1.91-12.06-3.7-24.55-8.36-35.83C4.36,107.85-.61,100.3.06,87.25c.32-3.21,5.13-4.76,7.93-3.15,17.63,11.15,32.88,14.09,52.93,18.03,4.73.94,7.65,2.93,10.58,5.86,3.19,3.21,7.33,5.69,9.59,9.58,3.19,5.5.97,14.07,5.16,21.33,3.99,6.92,7.41-10.05,5.98-26.07-.61-6.86,1.79-14.03,0-20.67-1.18-4.41-5.64-7.43-6.82-11.84-1.11-4.08,1.61-8.78,0-12.7-1.8-4.35-6.83-4.33-9.18-8.42-1.48-2.55-.5-5.91,4.19-5.91Z"/></g></g></g></svg>