<?xml version="1.0" encoding="UTF-8"?><svg id="Layer_2" xmlns="http://www.w3.org/2000/svg" xmlns:xlink="http://www.w3.org/1999/xlink" viewBox="0 0 300 300"><defs><style>.cls-1{fill:#E0EBFE;}.cls-2{fill:none;}.cls-3{clip-path:url(#clippath);}</style><clipPath id="clippath"><rect class="cls-2" width="300" height="300"/></clipPath></defs><g id="States"><g id="West_Virginia"><g class="cls-3"><path class="cls-1" d="M191.53,90.92c0-4.21-2.39-6.03-6.4-6.03h-49.17c-5.39,0-6.23-2.48-6.23-5.87V19.95c0-9.84-10.98-8.14-13.18,0-1.13,4.24,5.43,7.36,2.63,14.02-12.72,56.74-9.89,60.8-62.38,87.69-7.8,6.86-2.64,26.93-13.13,20.97-8.24-6.49-9.53-3.99-12.88.84-3.34,4.83-9.16,14.38-7.8,19.21,1.37,4.83,3.96,9.3-1.11,10.65-5.08,1.36-4.06,10.52-13.62,13.26-10.65,3.06-7.21,6.95-7.66,14.61-.33,5.76-2.23,12.74,3.2,20.46,7.06,10.04,5.07,11.78,10.28,15.75,5.2,3.97,7.43,19.94,17.84,22.3,10.41,2.36,6.94,7.02,10.53,13.26,23.52,30.92,30.7-.93,43.11,7.93,4.09,3.47,18.58,1.62,22.67-3.83,4.09-5.46,7.8-2.85,15.85-7.44,8.05-4.58,13.16,1.82,20.96-8.26,13.82-18.18-11.2-9.75,13.48-33.14,6.2-6.06,17.45-22.86,20.23-31.45,2.81-8.59,2.81-23.3,11.56-11.73,8.77,11.57,20.35-.93,23.2-10.84,2.85-9.91,6.94-17.2,13.77-12.12,6.83,5.08,10.16-12.62,20.31-18.75,10.16-6.13,7.7-11.39,12.08-18.4,4.4-7,.54-18.57,6.48-13.68,5.96,4.92,21.9,17.19,21.9,17.19,8.65,13.13,15.29-17.22,10.16-19.1-3.14-2.81-1.4-6.84-6.49-10.69-5.08-3.84-1.67-7.71-8.61-9.2-6.94-1.48-14.62-11.65-20.93-5.7-6.32,5.95-10.9,3.6-13.63,9.42-2.73,5.83-8.05,4.59-12.14-1.85-10.92-14.71-8.43,13.83-20.81,10.49-6.81-.87-6.03,4.81-9.54,7.36-3.69,2.96-9.2,14.23-14.53,9.37v-27.59h0Z"/></g></g></g></svg>