<?xml version="1.0" encoding="UTF-8"?><svg id="Layer_2" xmlns="http://www.w3.org/2000/svg" xmlns:xlink="http://www.w3.org/1999/xlink" viewBox="0 0 300 300"><defs><style>.cls-1{fill:#E0EBFE;}.cls-2{fill:none;}.cls-3{clip-path:url(#clippath);}</style><clipPath id="clippath"><rect class="cls-2" width="300" height="300"/></clipPath></defs><g id="States"><g id="Wisconsin"><g class="cls-3"><path class="cls-1" d="M284.19,111.41c-7.95,1-4.88,7.71-9.09,9.34-2.85-4.9-2.53,3.65-4.13,5.17-.1,2.71-1.29,1.79-2.21,3.38-2.15,4.74-4.36,5.14-3.49,11.29-6.12-4.04-2.42,1.24-6.61,2.74-2.59-5.55-8.11,5.73-7.7,8.58-.01,1-.5,1.97-1.29,2.57-11.37,4.06-7.42,8.27-13.19,8.99.67-2.52,1.77-5,3.15-7.23.16-2.63-.15-5.1,1.84-7.18,3.05-3.36,3.56-8.05,5.7-11.81,6.07-2.2,10.33-4.45,10.23-11.72-12.87-8.75,2.37-12.89-4.18-17.97-1.66-.71-2.72.88-4.13,1.33-1.74.09-3.43,0-5.52,0,.74-3.64,3.34-6.95,3.06-10.72-.66-1.62,1.54-1.34,1.69-2.72.78-4.46-3.07-3.34-.77-6.46.16-6.15-6.83-4.88-9.43-8.92-1.45-2.34-4.14-.27-6.24-1.13-1.91-.68-.28-1.99.42-2.95.31-1.57-.8-5.69-2.92-5.49-2.47.38-3.88-1.96-6.07-2.34-9.22,3.3-9.89-5.07-17.83-.48-4.19-4-4.7.37-9.83-3.48-17.79-11.04-40.05-12.42-58.82-20.58-1.93-2.79-3.13-9.96-6.14-10.95-1.75.58-3.43,0-5.06-.22-1.86-.22-1.93-.22-1.65-2.07.35-2.22-7.47-1.62-9.54-2.54-2.73-.15-2.99-3.06-3.97-4.96-2.25-2.4-2.87,1.91-4.02,2.96-1.77.66-3.6,1.14-5.43,1.73,4.99-5.3-.21-8.79,2.64-10.11,4.19-1.17,3.47-5.59,3.25-8.91,1.74,1.92,2.42,1.98,3.72.53,3.28,1.78,8.97,1.01,8.23-3.72-1.31-.25-2.56.51-3.68.81-1.89-.2-3.48-.1-4.43,1.84-.97-2.9-2.29-4.17-4.68-1.58v.54c-8.36-7.92-11.98,5.78-19.26,4.13-.86-1.4-1.62-1.66-2.75-.48-5.33,6.1-13.19,5.76-20.09,8.41-17.05,7.91-13.4-4.16-20.7-2.59-.2,9.08-2.59,3.94-7.6,7.75-1.63,11.62-.37,24.02-.87,35.88-.38,4.36-5.82,2.44-7.79,5.4-4.37,5.07-13.88,4.38-13.53,12.9-2.28,6.79-5.89,1.08-6.47,13.7-.43,6.7,7.58.24,7.38,6.19,5.12,12.38-3.35,3.47-1.84,24.16-2.99,3.26-4.1,5.13-2.3,9.61,2.81,8.33-5.81,12.7,3.38,20.31,4.3,6.32,10.82,8.96,17.72,11.65,3.32,2.68,5.39,6.68,9.58,8.31,13.52,7.95,9.49,18.68,30.87,28.64,7.75,4.12,9.7,13.87,8.79,21.79,2.95,6.09-.89,13.85,3.67,19.41,13.57,6.26-1.32,3.43,1.5,27.25-.1,3.18,2.3,5.51,3.16,8.42,1,2.74.2,6.1,2.65,8.19,5.84,4.84,18.23,2.54,18.94,12.14,45.86,3.36,95.18.51,142.14,1.86-2.23-7.61,4.18-16.05-.93-22.76-3.87-6.37-3.59-13.86-3.97-20.97-.89-4.08-1.15-8.2-.78-12.36-.1-3.53,2.27-6.14,3.67-9.14.97-2.49.63-5.25,1.63-7.74,8.52-12.16-2.73-25.13,7.48-36.37,4.07-11.86,1.03-25.54,8.88-36.34,1.35-4.67,2.41-8.48,6.37-11.68,3.8-6.24-.19-6.22,4.78-13.73,3.56.42,3.19-4.42,2.81-6.6,2-1.62.5-3.52.68-5.59,5.06,4.36,4.38-5.62.9-5.31Z"/><path class="cls-1" d="M112.32,12.09c-2.12,2.04-8.72,4.57-5.97,8.13.21.19,1.08-.2,1.57-.46,1.72-1.07,4.06-2.09,4.43-4.16.44-2.07,4.81-1.55,2.82-3.99-.94-.41-2.1-.22-2.85.48Z"/><path class="cls-1" d="M291.57,104.44c-6.74-4.31-8.11,4.55-3.54,7.77,2.05-1.47,7.51-5.41,3.54-7.77Z"/><path class="cls-1" d="M119.83,4.89c1.42.97,4.91-2.53,3.26-4.29-2.37-2.33-6.07,2.72-3.26,4.29Z"/></g></g></g></svg>