<svg xmlns="http://www.w3.org/2000/svg" viewBox="0 0 49.85 52"><defs><style>.cls-1{fill:#3b54ba;}.cls-2{opacity:0.25;}</style></defs><g id="Layer_2" data-name="Layer 2"><g id="icons"><path class="cls-1" d="M28.12,52H21.73l-1-6.33a18.67,18.67,0,0,1-5.93-2.47L9.56,47,5,42.44l3.75-5.21A19,19,0,0,1,6.33,31.3L0,30.27V23.88l6.33-1a18.78,18.78,0,0,1,2.46-5.93L5,11.71,9.56,7.19l5.51,4-.62.86L9.67,8.58,6.43,11.82l3.65,5.07-.2.31a17.88,17.88,0,0,0-2.59,6.22l-.07.36-6.16,1v4.58l6.16,1,.07.36A18,18,0,0,0,9.88,37l.2.31L6.43,42.33l3.24,3.24,5.07-3.65.31.2a18,18,0,0,0,6.22,2.59l.36.07,1,6.16h4.58l1-6.16.36-.07a17.88,17.88,0,0,0,6.22-2.59l.31-.2,5.07,3.65,3.24-3.24-3.65-5.07L40,37a17.77,17.77,0,0,0,2.59-6.22l.07-.36,6.16-1V24.78l-6.16-1-.07-.36A17.69,17.69,0,0,0,40,17.2l-.2-.31,3.65-5.07L40.18,8.58,35.41,12l-.62-.86,5.51-4,4.51,4.52-3.75,5.21a18.78,18.78,0,0,1,2.46,5.93l6.33,1v6.39l-6.33,1a19,19,0,0,1-2.46,5.93l3.75,5.21L40.3,47,35.08,43.2a18.8,18.8,0,0,1-5.93,2.47Z"/><path class="cls-1" d="M29.61,35.23H28.54V19.51l.32-.14A9.79,9.79,0,0,0,28.29,1.2v9.39l-.27.28L25.34,13a.68.68,0,0,1-.83,0L21.62,10.7l-.05-.37V1.2A9.79,9.79,0,0,0,21,19.37l.32.14V35.23H20.25v-15A10.86,10.86,0,0,1,21.72,0a.72.72,0,0,1,.62.11.7.7,0,0,1,.29.56v9.44l2.3,1.8,2.3-1.8V.7a.69.69,0,0,1,.28-.56A.72.72,0,0,1,28.13,0,10.85,10.85,0,0,1,29.61,20.2Z"/><path class="cls-1" d="M24.93,36.83a10.36,10.36,0,0,1-6.59-18.35l.67.81a9.3,9.3,0,1,0,11.72-.09l.66-.83a10.36,10.36,0,0,1-6.46,18.46Z"/><g class="cls-2"><path class="cls-1" d="M5.74,11.76l3.7,5.14a18.37,18.37,0,0,0-2.67,6.41l-6.24,1v5.49l6.24,1a18.29,18.29,0,0,0,2.67,6.41l-3.7,5.14,3.88,3.88,2.47-1.77L10,42.38l3.7-5.14A18.46,18.46,0,0,1,11,30.83l-6.24-1V24.33l6.24-1a18.54,18.54,0,0,1,2.66-6.41L10,11.76l2.11-2.1L9.62,7.88Z"/></g><g class="cls-2"><path class="cls-1" d="M21.88.54A10.32,10.32,0,0,0,14.6,10.4a10.54,10.54,0,0,0,.08,1.13,10.26,10.26,0,0,0,4.4,7.35,10.16,10.16,0,0,0,1.7,1V35.23L25,36.3V19.86a10.67,10.67,0,0,1-1.71-1,10.28,10.28,0,0,1-4.39-7.35,10.54,10.54,0,0,1-.09-1.13A10.27,10.27,0,0,1,22.1,2.9V.7A.17.17,0,0,0,21.88.54Z"/></g></g></g></svg>