<svg xmlns="http://www.w3.org/2000/svg" viewBox="0 0 87.93 88.22"><defs><style>.cls-1{fill:#3b54ba;}.cls-2{opacity:0.25;}</style></defs><g id="Layer_2" data-name="Layer 2"><g id="icons"><path class="cls-1" d="M87.89,43.71H86.05c0-3.51-4.42-6.36-9.84-6.36s-9.83,2.85-9.83,6.36H64.53c0-3.51-4.41-6.36-9.83-6.36s-9.83,2.85-9.83,6.36H43c0-3.51-4.41-6.36-9.83-6.36s-9.84,2.85-9.84,6.36H21.51c0-3.51-4.41-6.36-9.83-6.36-5.26,0-9.66,2.77-9.8,6.18L0,43.54c0-.31,0-.47,0-.63C0,20.52,19.72,2.3,44,2.3s44,18.22,44,40.61c0,.17,0,.32,0,.48ZM54.7,35.64c4.83,0,9,2,10.75,4.92,1.78-2.89,5.93-4.92,10.76-4.92A13.67,13.67,0,0,1,85.9,39.2C83.87,19.48,65.84,4,44,4S4.1,19.45,2,39.14a13.64,13.64,0,0,1,9.64-3.5c4.82,0,9,2,10.75,4.92,1.78-2.89,5.93-4.92,10.76-4.92s9,2,10.75,4.92C45.72,37.67,49.87,35.64,54.7,35.64Z"/><path class="cls-1" d="M21.26,44.05l0-.65c0-.37,0-.75,0-1.13,0-22,10.05-40,22.39-40S66,20.23,66,42.27c0,.37,0,.73,0,1.09l0,.69L64.1,44l0-.72q0-.51,0-1c0-21-9.22-38.13-20.55-38.13S23.05,21.25,23.05,42.27c0,.36,0,.71,0,1.06l0,.67Z"/><path class="cls-1" d="M53.61,88.22A9.92,9.92,0,0,1,43.94,78.1V0h1.77V78.1a7.91,7.91,0,1,0,15.81,0v-.52h1.77v.52A9.92,9.92,0,0,1,53.61,88.22Z"/><g class="cls-2"><path class="cls-1" d="M58.49,6.24A42.43,42.43,0,0,0,43.24,3.38v0l-.24,0-.57,0A42.7,42.7,0,0,0,.52,46.1c0,.21,0,.42,0,.62.14-3.56,3.59-6.51,8.21-7.3A42.67,42.67,0,0,1,34.09,6.87h0c-7.39,6.08-12.53,19.58-12.53,35.28,0,.59,0,1.16.05,1.75L21.87,47l.87-3.06a10.16,10.16,0,0,1,6.57-4.32C29.87,24,35.5,10.94,43.24,5.79v41a6,6,0,0,1,.85-2.9,10.27,10.27,0,0,1,6.82-4.38V6.3c7.78,5.76,13.27,19.61,13.27,35.84,0,.59,0,1.16-.05,1.75h-.44A5.9,5.9,0,0,1,64.56,47c0-3.4,3-6.25,7.22-7.3C71.25,24.45,65.91,11.67,58.49,6.24ZM38.11,4.39,38,4.44Zm2.14-.68L40,3.79Zm8.84,1.4A17,17,0,0,1,50.9,6.29,18,18,0,0,0,49.09,5.11Zm-3.8-1.44a11.2,11.2,0,0,1,1.5.44A11.2,11.2,0,0,0,45.29,3.67Zm1.94.57a14.8,14.8,0,0,1,1.85.87A13.51,13.51,0,0,0,47.23,4.24Z"/></g></g></g></svg>