<svg xmlns="http://www.w3.org/2000/svg" viewBox="0 0 40.57 82.77"><defs><style>.cls-1{fill:#3b54ba;}.cls-2{opacity:0.25;}</style></defs><g id="Layer_2" data-name="Layer 2"><g id="icons"><path class="cls-1" d="M31.7,82.77V73.42a2,2,0,0,0-2-2H25.76a2,2,0,0,0-2,2v9.35l-1.33-.61a13,13,0,0,1-4.59-3.5l1.45-1.21a11.26,11.26,0,0,0,2.59,2.28V73.42a3.88,3.88,0,0,1,3.88-3.88H29.7a3.88,3.88,0,0,1,3.88,3.88v6.31a10.93,10.93,0,0,0-1-19l-.52-.27V47H34V59.28A12.81,12.81,0,0,1,33,82.16Z"/><path class="cls-1" d="M19.35,63.44,17.9,62.23a12.57,12.57,0,0,1,3.59-2.95V23.49A12.82,12.82,0,0,1,22.43.6L23.76,0V9.35a2,2,0,0,0,2,2H29.7a2,2,0,0,0,2-2V0L33,.6A12.82,12.82,0,0,1,34,23.49V49H32.09V22.35l.52-.27a10.93,10.93,0,0,0,1-19V9.35a3.88,3.88,0,0,1-3.88,3.88H25.76a3.88,3.88,0,0,1-3.88-3.88V3a10.93,10.93,0,0,0,1,19l.52.27V60.42l-.52.27A10.9,10.9,0,0,0,19.35,63.44Z"/><path class="cls-1" d="M11.65,82.07H4.71A4.71,4.71,0,0,1,0,77.36L.11,49.52,4.35,41.4H12L16.36,50V77.36A4.71,4.71,0,0,1,11.65,82.07ZM1.88,50.19V77.36a2.83,2.83,0,0,0,2.83,2.82h6.94a2.83,2.83,0,0,0,2.83-2.82V50.19l-3.61-6.9H5.49Z"/><rect class="cls-1" x="7.24" y="13.57" width="1.88" height="28.77"/><path class="cls-1" d="M11.05,14.51H5.31L3.42,11.26,4.6.52h7.17l1.17,10.74ZM6.4,12.63H10l1-1.78L10.08,2.4H6.28l-.92,8.45Z"/><g class="cls-2"><path class="cls-1" d="M21.63,12.29A11.68,11.68,0,0,1,23,6.77V1.46a11.88,11.88,0,0,0-.39,21.47V59.84a12,12,0,0,0-3.81,3l-.06,15.21A11.88,11.88,0,0,0,23,81.31V73.42A2.86,2.86,0,0,1,24.39,71l0-8.16a12,12,0,0,1,3.8-3V22.93A11.9,11.9,0,0,1,21.63,12.29Z"/></g><g class="cls-2"><path class="cls-1" d="M1.12,50V76.87a4.26,4.26,0,0,0,4.26,4.26H8.65V42.34H4.92Z"/></g></g></g></svg>