<svg xmlns="http://www.w3.org/2000/svg" viewBox="0 0 71.39 86.42"><defs><style>.cls-1{fill:#3b54ba;}.cls-2{opacity:0.25;}</style></defs><g id="Layer_2" data-name="Layer 2"><g id="icons"><path class="cls-1" d="M35.69,86.42l-13.52-9.5A52.2,52.2,0,0,1,0,34.25V15.88l1.1-.21A78.68,78.68,0,0,0,32,2.77l4-2.77,2.79,2A78.9,78.9,0,0,0,69.33,15.47l2.06.42v19A51.07,51.07,0,0,1,49.71,76.58h0ZM1.75,17.34V34.25A50.45,50.45,0,0,0,23.18,75.49l12.51,8.79,13-9.14A49.28,49.28,0,0,0,69.63,34.85V17.33L69,17.19A80.63,80.63,0,0,1,37.69,3.44L35.91,2.15,33,4.21A80.76,80.76,0,0,1,1.75,17.34Z"/><path class="cls-1" d="M29.91,60.43,15.2,45.72l8.14-8.14,6.57,6.56L48.05,26l8.14,8.14ZM17.68,45.72,29.91,57.94l23.8-23.8-5.66-5.66L29.91,46.62l-6.57-6.56Z"/><g class="cls-2"><path class="cls-1" d="M8.28,34.18V16.54l.39-.07a80.5,80.5,0,0,0,31.11-13c-.39-.28-.8-.53-1.19-.81L36.31,1,32.84,3.42A80.36,80.36,0,0,1,1.65,16.47l-.38.07V34.18A51.27,51.27,0,0,0,23.06,76.13l13,9.15,3.51-2.47-9.51-6.68A51.28,51.28,0,0,1,8.28,34.18Z"/></g></g></g></svg>