<svg xmlns="http://www.w3.org/2000/svg" viewBox="0 0 105.42 70.95"><defs><style>.cls-1{fill:#3b54ba;}.cls-2{opacity:0.25;}</style></defs><g id="Layer_2" data-name="Layer 2"><g id="icons"><path class="cls-1" d="M88.76,61.68a3.08,3.08,0,0,1-1.12-.2l-2.1-.75.58-1.63,2.12.75a1.39,1.39,0,0,0,1.81-.79l2.87-7.5a1.39,1.39,0,0,0-.8-1.79l-2.32-.93.65-1.6,2.3.92a3.06,3.06,0,0,1,1.72,1.63,3.14,3.14,0,0,1,.07,2.39l-2.88,7.5A3.08,3.08,0,0,1,90,61.41,3.15,3.15,0,0,1,88.76,61.68Z"/><path class="cls-1" d="M81.84,64,15.31,38.58A12.53,12.53,0,0,1,8.1,22.43L13.61,8A12.51,12.51,0,0,1,29.76.83L103.41,29a3.14,3.14,0,0,1,1.81,4L103,38.77a4.56,4.56,0,0,1-2.84,2.7L90,43ZM15.93,37,80.85,61.8l7.92-20.37,11-1.64a2.83,2.83,0,0,0,1.61-1.64l2.19-5.72a1.4,1.4,0,0,0-.81-1.8L29.14,2.44A10.79,10.79,0,0,0,15.23,8.66L9.72,23.05A10.79,10.79,0,0,0,15.93,37Z"/><rect class="cls-1" x="38.36" y="0.44" width="1.73" height="63.33" transform="translate(-4.78 57.27) rotate(-69.06)"/><path class="cls-1" d="M31.76,71a8.61,8.61,0,0,1-8-5.52L9.68,60.05l-.15,8.58L0,68.47l0-1.74,7.8.13L8,57.54,25.12,64.1l.13.39A6.89,6.89,0,1,0,38.12,59.6L38,59.28l4-10.49-7.59-2.9-3.66,9.56-.45.1a7,7,0,0,0-1.92.76l-.36.21L8.13,48.9l.12-7.39-7.8-.13,0-1.73,9.53.16-.13,7.91,18,6.89A8.88,8.88,0,0,1,29.46,54l4-10.33,10.82,4.14L39.85,59.25A8.63,8.63,0,0,1,31.76,71Z"/><path class="cls-1" d="M31.85,65.45a3,3,0,1,1,3-3A3,3,0,0,1,31.85,65.45Zm0-4.22a1.24,1.24,0,1,0,1.24,1.24A1.24,1.24,0,0,0,31.85,61.23Z"/><g class="cls-2"><path class="cls-1" d="M34.52,45,81.46,62.68l.88-2.32L22.55,37.72a11.64,11.64,0,0,1-6.71-15L21.35,8.3a11.55,11.55,0,0,1,7.41-6.9A11.62,11.62,0,0,0,14.42,8.3L8.91,22.69a11.64,11.64,0,0,0,6.71,15l18.29,7h0Z"/></g><g class="cls-2"><polygon class="cls-1" points="4.8 40.59 0.46 40.47 0.01 67.56 6.08 67.7 6.09 67.58 4.35 67.56 4.8 40.59"/></g><g class="cls-2"><polygon class="cls-1" points="82.34 60.36 82.34 60.36 82.95 60.6 82.34 60.36"/></g></g></g></svg>