<?xml version="1.0" encoding="utf-8"?>
<!-- Generator: Adobe Illustrator 21.0.0, SVG Export Plug-In . SVG Version: 6.00 Build 0)  -->
<svg version="1.1" id="Layer_1" xmlns="http://www.w3.org/2000/svg" xmlns:xlink="http://www.w3.org/1999/xlink" x="0px" y="0px"
	 viewBox="0 0 517 93" style="enable-background:new 0 0 517 93;" xml:space="preserve">
<style type="text/css">
	.st0{fill:#0C2C67;}
</style>
<g>
	<g>
		<path class="st0" d="M0.4,10h31c18.3,0,30.1,9.4,30.1,25.4v0.2c0,17-13.1,26-31.1,26h-9.9v20.7h-20V10z M29.9,46
			c7.1,0,11.5-3.7,11.5-9.4v-0.2c0-6.2-4.3-9.5-11.6-9.5h-9.4V46H29.9z"/>
		<path class="st0" d="M68.3,10h34.2c11.1,0,18.7,2.9,23.5,7.8c4.2,4.1,6.4,9.7,6.4,16.8v0.2c0,11.1-5.9,18.4-14.9,22.2l17.2,25.2
			h-23.1L97.2,60.4h-0.2h-8.6v21.9h-20V10z M101.6,44.7c6.8,0,10.7-3.3,10.7-8.6V36c0-5.7-4.1-8.6-10.8-8.6H88.4v17.4H101.6z"/>
		<path class="st0" d="M244.1,27.6h-21.7V10h63.4v17.6h-21.7v54.7h-20V27.6z"/>
		<path class="st0" d="M293,10h58.2v17h-38.3V38h34.7v15.8h-34.7v11.5h38.8v17H293V10z"/>
		<path class="st0" d="M353.8,46.4v-0.2c0-21.1,16.2-37.6,38.1-37.6c14.8,0,24.3,6.2,30.7,15.1l-15.1,11.7
			c-4.1-5.2-8.9-8.5-15.8-8.5c-10.1,0-17.3,8.6-17.3,19.1v0.2c0,10.8,7.1,19.3,17.3,19.3c7.5,0,12-3.5,16.3-8.8l15.1,10.7
			c-6.8,9.4-16,16.3-32,16.3C370.4,83.8,353.8,68,353.8,46.4z"/>
		<path class="st0" d="M447.8,27.6h-21.7V10h63.4v17.6h-21.7v54.7h-20V27.6z"/>
		<path class="st0" d="M218.1,32.1c0,0,0-4,0-6.2c0-1.3-0.3-2.4-0.8-3.2c-0.1-0.1-0.1-0.2-0.2-0.3c-0.4-0.6-1-1-1.8-1.5
			C204,14.5,181.4,1.2,181.1,1.1c-0.7-0.4-2.3-1.1-3.3-1.1l0,0c-1.1,0-2.6,0.7-3.2,1c-0.1,0.1-6.2,3.7-9.7,5.7L149,16
			c-1.3,0.7-2.7,1.5-4.1,2.3c-1.5,0.9-3.1,1.8-4.7,2.7c-0.8,0.4-1.4,0.9-1.8,1.6c-0.8,1.1-0.8,2.3-0.8,3.1c0,2.3,0,6.4,0,6.4
			c0,0.3-0.1,7,0.1,9.8c0.2,2.2,0.4,4.2,0.5,5l0,0l0,0.1l0,0.3l0,0l0,0c4.2,21.9,16.9,37.2,37.7,45.3c0.5,0.2,1.1,0.3,1.8,0.3
			c0.7,0,1.5-0.1,2.1-0.4c15.6-5.9,26.9-16.7,33.6-32c1.9-4.3,3.1-8.6,3.8-13.3l0-0.1c0-0.1,0.4-2.5,0.7-5.2
			C218.2,39.2,218.1,32.4,218.1,32.1z M200.1,37.6L200.1,37.6c0,0.1-0.2,5.2-0.9,8.8c-2.8,11.9-9.3,20.7-20.1,26.8
			c-0.7,0.4-1.1,0.4-1.3,0.4c-0.4,0-0.9-0.2-1.4-0.5c-10.6-6.1-17.2-14.8-20-26.7c-0.6-3.1-0.8-7.5-0.9-8.6c0-1.4,0-2.7,0-4.1
			c0-0.7,0.1-0.9,0.8-1.3c6.8-3.9,13.9-8,21.1-12.3c0.3-0.2,0.4-0.2,0.4-0.2c0,0,0.1,0,0.5,0.2c7.6,4.5,14.5,8.5,21.1,12.3
			c0.7,0.4,0.8,0.6,0.8,1.3C200.2,35.1,200.1,36.4,200.1,37.6z"/>
	</g>
	<g>
		<path class="st0" d="M497.3,11.1l0-1.3l7.1,0.1l0,1.3l-2.7,0l-0.2,8.9l-1.7,0l0.2-8.9L497.3,11.1z"/>
		<path class="st0" d="M517,10.1l-0.2,10.2l-1.7,0l0.1-7l-3.2,6.9l-1.2,0l-3-7.1l-0.1,7l-1.7,0l0.2-10.2l1.8,0l3.4,8.1l3.7-8
			L517,10.1z"/>
	</g>
</g>
<g>
</g>
<g>
</g>
<g>
</g>
<g>
</g>
<g>
</g>
<g>
</g>
<g>
</g>
<g>
</g>
<g>
</g>
<g>
</g>
<g>
</g>
<g>
</g>
<g>
</g>
<g>
</g>
<g>
</g>
</svg>
