<?xml version="1.0" encoding="UTF-8"?>
<!DOCTYPE svg PUBLIC "-//W3C//DTD SVG 1.1//EN" "http://www.w3.org/Graphics/SVG/1.1/DTD/svg11.dtd">
<!-- Creator: CorelDRAW 2021 (64-Bit) -->
<svg xmlns="http://www.w3.org/2000/svg" xml:space="preserve" width="900px" height="175px" version="1.1" style="shape-rendering:geometricPrecision; text-rendering:geometricPrecision; image-rendering:optimizeQuality; fill-rule:evenodd; clip-rule:evenodd"
viewBox="0 0 3260.99 632.89"
 xmlns:xlink="http://www.w3.org/1999/xlink"
 xmlns:xodm="http://www.corel.com/coreldraw/odm/2003">
 <defs>
  <style type="text/css">
   <![CDATA[
    .fil0 {fill:#7D3F98;fill-rule:nonzero}
   ]]>
  </style>
 </defs>
 <g id="Layer_x0020_1">
  <metadata id="CorelCorpID_0Corel-Layer"/>
  <g id="Aetna_Logo_ss_Violet_RGB_Coated.svg">
   <g>
    <g>
     <path class="fil0" d="M1486.62 414.9c152.41,0 230.64,-47.82 230.64,-150.67 0,-88.78 -64.51,-147.85 -204.63,-147.85 -169.82,0 -237.68,75.77 -253.15,211.49 -24.79,-1.58 -51.87,-2.11 -88.78,-2.28 0,-7.39 0.17,-14.77 0.17,-22.33 0,-137.66 -56.96,-187.4 -208.86,-187.4 -74.18,0 -139.58,11.07 -179.49,27.24l5.98 109.88c34.81,-18.46 86.67,-36.21 135.89,-36.21 69.45,0 90.54,28.65 90.54,97.39l-0.17 10.2c-4.75,-0.18 -17.06,-0.18 -23.74,-0.18 -172.99,0 -253.15,52.39 -253.15,149.43 0,100.04 49.75,158.93 191.62,158.93 74.72,0 148.56,-10.55 243.67,-10.55 -7.04,-40.08 -7.21,-97.74 -7.21,-137.3 0,-20.92 1.05,-45.89 2.11,-74.19 40.61,0.36 70.49,1.41 90.18,2.29 14.77,160.68 98.1,220.1 271.62,220.1 64.17,0 129.04,-10.9 162.97,-26.72l-5.98 -109.88c-33.75,19.52 -80.69,35.51 -132.2,35.51 -85.26,0 -131.5,-44.47 -131.5,-114.8l0 -3.34c15.29,0.71 45.71,1.24 63.47,1.24zm-520.21 121.65c-52.74,0 -75.24,-17.58 -75.24,-61.71 0,-42.54 28.65,-66.63 100.73,-66.63 6.68,0 14.77,-0.17 20.57,0.36 -0.35,41.13 -1.23,89.13 1.06,122.53 -12.48,3.34 -30.94,5.45 -47.12,5.45zm456.03 -206.57l0 -2.46c0,-68.92 21.8,-119.55 85.09,-119.55 35.87,0 58.9,18.81 58.9,52.92 0,48 -32,70.32 -98.45,70.32 -16,0 -33.05,-0.17 -45.54,-1.23zm606.53 192.86c-50.98,0 -65.93,-20.22 -65.93,-94.23l0 -191.1 100.56 0 0 -106.18 -98.98 0c0,-37.63 2.99,-93.18 6.15,-131.33l-93.17 0c-12.31,92.82 -39.2,140.64 -123.94,154.7 -0.35,24.97 1.05,59.07 0,82.81l56.43 0c-0.88,52.74 -2.46,149.08 -2.46,236.81 0,111.98 58.01,157.87 167.01,157.87 53.09,0 92.12,-7.74 105.13,-11.43l-6.68 -109.17c-9.49,6.5 -28.3,11.25 -44.12,11.25zm1060.79 -219.58c0,-137.66 -56.96,-187.4 -208.68,-187.4 -74.36,0 -139.59,11.07 -179.49,27.24l5.98 109.88c34.8,-18.46 86.49,-36.21 135.89,-36.21 69.44,0 90.54,28.65 90.54,97.39l0 10.2c-4.92,-0.18 -17.05,-0.18 -23.73,-0.18 -173.17,0 -253.16,52.39 -253.16,149.43 0,100.04 49.75,158.93 191.62,158.93 74.72,0 148.56,-10.55 243.49,-10.55 -6.85,-40.08 -7.03,-97.74 -7.03,-137.3 -0.17,-44.83 4.57,-107.77 4.57,-181.43zm-204.28 233.29c-52.92,0 -75.25,-17.58 -75.25,-61.71 0,-42.54 28.66,-66.63 100.74,-66.63 6.5,0 14.59,-0.17 20.39,0.36 -0.17,41.13 -1.23,89.13 1.23,122.53 -12.48,3.34 -31.11,5.45 -47.11,5.45zm-291.83 -143.45c0,-41.49 0.87,-96.7 0.87,-96.7 0,-124.29 -54.49,-180.02 -208.68,-180.02 -86.49,0 -148.19,15.12 -244.71,15.12 5.45,87.2 5.63,194.96 5.27,261.77 0.36,67.86 -2.28,189.51 -5.27,228.72l165.6 0c-3.87,-39.38 -7.03,-152.42 -6.68,-228.72 0,-43.42 0.53,-95.99 2.29,-166.49 16.53,-5.62 37.44,-9.84 60.13,-9.84 58.01,0 76.64,27.25 76.64,101.97 0,0 0.88,46.93 0.88,74.54 0,67.86 -2.28,189.51 -5.27,228.72l165.61 0c-3.87,-39.74 -7.21,-152.78 -6.68,-229.07zm-2051.27 -299.04c-15.48,-15.48 -35.69,-23.21 -55.73,-23.21 -20.22,0 -40.61,7.73 -56.08,23.38l-91.77 91.94 -91.95 -91.94c-15.64,-15.82 -35.87,-23.56 -56.08,-23.56 -20.22,0 -40.43,7.74 -55.91,23.21l-111.81 111.81c-30.76,30.77 -30.76,80.87 0.18,111.81l315.39 315.39 315.39 -315.39c30.94,-30.77 30.77,-80.87 0,-111.81l-111.63 -111.63zm2678.88 50.45c0,-16.7 -10.2,-23.73 -30.06,-23.73l-31.29 0 0 82.27 13.53 0 0 -35.16 12.66 0 21.28 35.16 15.29 0 -23.03 -36.21c12.48,-1.24 21.62,-7.39 21.62,-22.33zm-47.82 11.95l0 -24.08 16.35 0c8.09,0 17.93,1.23 17.93,11.07 0,11.96 -8.96,12.84 -18.98,12.84l-15.3 0 0 0.17zm14.77 -70.14c-39.38,0 -73.13,29.71 -73.13,74.36 0,42.37 30.41,74.37 73.13,74.37 39.03,0 72.78,-29.53 72.78,-74.37 0,-44.82 -33.75,-74.36 -72.78,-74.36zm0 135.72c-35.33,0 -57.31,-27.6 -57.31,-61.36 0,-36.21 24.96,-61.35 57.31,-61.35 31.82,0 56.79,25.31 56.79,61.35 0,36.4 -24.97,61.36 -56.79,61.36z"/>
    </g>
   </g>
  </g>
 </g>
</svg>
