<?xml version="1.0" encoding="UTF-8"?>
<!DOCTYPE svg PUBLIC "-//W3C//DTD SVG 1.1//EN" "http://www.w3.org/Graphics/SVG/1.1/DTD/svg11.dtd">
<!-- Creator: CorelDRAW 2021 (64-Bit) -->
<svg xmlns="http://www.w3.org/2000/svg" xml:space="preserve" width="289px" height="289px" version="1.1" style="shape-rendering:geometricPrecision; text-rendering:geometricPrecision; image-rendering:optimizeQuality; fill-rule:evenodd; clip-rule:evenodd"
viewBox="0 0 40.44 40.44"
 xmlns:xlink="http://www.w3.org/1999/xlink"
 xmlns:xodm="http://www.corel.com/coreldraw/odm/2003">
 <defs>
  <style type="text/css">
   <![CDATA[
    .fil1 {fill:#FEFEFE;fill-rule:nonzero}
    .fil0 {fill:#C63276;fill-rule:nonzero}
   ]]>
  </style>
 </defs>
 <g id="Layer_x0020_1">
  <metadata id="CorelCorpID_0Corel-Layer"/>
  <g id="ambetter_health_logo_vector_x0020__x0028_10_x0029_.eps">
   <path class="fil0" d="M40.44 20.22c0,11.16 -9.06,20.22 -20.22,20.22 -11.17,0 -20.22,-9.06 -20.22,-20.22 0,-11.17 9.05,-20.22 20.22,-20.22 11.16,0 20.22,9.05 20.22,20.22z"/>
   <path class="fil1" d="M17.62 21.73c0,0.2 -0.04,0.37 -0.13,0.53 -0.09,0.16 -0.2,0.28 -0.35,0.37 -0.15,0.09 -0.31,0.14 -0.49,0.14 -0.21,0 -0.4,-0.02 -0.55,-0.06 -0.14,-0.04 -0.27,-0.08 -0.41,-0.13l0 -3.64c0.04,-0.02 0.09,-0.04 0.15,-0.07 0.11,-0.05 0.34,-0.11 0.81,-0.11 0.18,0 0.34,0.04 0.49,0.13 0.15,0.09 0.26,0.21 0.35,0.37 0.09,0.16 0.13,0.33 0.13,0.53l0 1.94zm0.09 -3.78c-0.31,-0.2 -0.65,-0.29 -1.02,-0.29 -0.32,0 -0.6,0.03 -0.83,0.09 -0.06,0.01 -0.11,0.03 -0.17,0.05l0 -1.7 -1.05 0 0 6.84c0,0.15 0.04,0.28 0.12,0.38 0.07,0.1 0.17,0.17 0.32,0.22 0.26,0.1 0.52,0.18 0.75,0.23 0.24,0.06 0.52,0.09 0.82,0.09 0.37,0 0.71,-0.09 1.02,-0.28 0.31,-0.19 0.56,-0.45 0.73,-0.78 0.18,-0.32 0.27,-0.69 0.27,-1.08l0 -1.94c0,-0.38 -0.09,-0.73 -0.26,-1.05 -0.16,-0.33 -0.4,-0.59 -0.7,-0.78z"/>
   <path class="fil1" d="M4.84 22.64c-0.31,0.12 -0.62,0.18 -0.94,0.18 -0.3,0 -0.51,-0.08 -0.67,-0.24 -0.15,-0.17 -0.23,-0.4 -0.23,-0.72 0,-0.31 0.07,-0.52 0.22,-0.66 0.15,-0.14 0.39,-0.21 0.7,-0.21 0.21,0 0.41,0.02 0.6,0.06 0.12,0.02 0.22,0.05 0.32,0.08l0 1.51zm-0.82 -4.98c-0.46,0 -0.92,0.11 -1.36,0.33l0 0 0 0c-0.06,0.04 -0.11,0.08 -0.16,0.12l0.79 0.79c0.23,-0.09 0.47,-0.14 0.71,-0.14 0.27,0 0.47,0.08 0.61,0.24 0.16,0.17 0.23,0.44 0.23,0.78l0 0.3c-0.3,-0.08 -0.63,-0.12 -0.97,-0.12 -0.58,0 -1.05,0.16 -1.39,0.49 -0.35,0.33 -0.52,0.81 -0.52,1.44l0 0.01c0,0.39 0.07,0.74 0.23,1.03 0.15,0.3 0.38,0.53 0.67,0.7 0.29,0.15 0.62,0.23 1,0.23 0.31,0 0.61,-0.03 0.89,-0.09 0.28,-0.07 0.53,-0.15 0.74,-0.25 0.16,-0.07 0.26,-0.15 0.32,-0.26 0.06,-0.09 0.08,-0.21 0.08,-0.37l0 -3.13c0,-0.63 -0.16,-1.14 -0.49,-1.52 -0.33,-0.39 -0.8,-0.58 -1.38,-0.58z"/>
   <path class="fil1" d="M13.27 18.67c-0.16,-0.31 -0.39,-0.56 -0.67,-0.74 -0.29,-0.18 -0.61,-0.27 -0.96,-0.27 -0.3,0 -0.61,0.07 -0.92,0.21 -0.2,0.09 -0.39,0.18 -0.55,0.29 -0.13,-0.12 -0.28,-0.23 -0.44,-0.31 -0.26,-0.13 -0.54,-0.19 -0.83,-0.19 -0.29,0 -0.57,0.03 -0.84,0.11 -0.25,0.07 -0.5,0.15 -0.74,0.25 -0.22,0.09 -0.34,0.28 -0.34,0.53l0 5.23 1.04 0 0 -4.85c0.31,-0.11 0.59,-0.17 0.84,-0.17 0.17,0 0.31,0.04 0.44,0.12 0.13,0.07 0.23,0.18 0.3,0.32 0.08,0.14 0.12,0.31 0.12,0.51l0 4.07 1.05 0 0 -4.07c0,-0.2 -0.02,-0.4 -0.07,-0.58 0.1,-0.08 0.22,-0.15 0.36,-0.22 0.19,-0.1 0.37,-0.15 0.54,-0.15 0.16,0 0.3,0.04 0.43,0.12 0.13,0.09 0.23,0.2 0.31,0.35 0.08,0.15 0.12,0.32 0.12,0.53l0 4.02 1.04 0 0 -4.06c0,-0.39 -0.08,-0.74 -0.23,-1.05z"/>
   <path class="fil1" d="M22.3 20.15l-1.95 0 0 -0.38c0,-0.2 0.04,-0.38 0.13,-0.54 0.09,-0.16 0.2,-0.29 0.35,-0.38 0.15,-0.09 0.31,-0.13 0.49,-0.13 0.18,0 0.34,0.04 0.49,0.14 0.15,0.09 0.27,0.22 0.36,0.38 0.09,0.16 0.13,0.34 0.13,0.53l0 0.38zm1.04 -0.34c0,-0.38 -0.09,-0.74 -0.27,-1.06 -0.17,-0.33 -0.41,-0.6 -0.72,-0.79 -0.31,-0.2 -0.65,-0.3 -1.03,-0.3 -0.38,0 -0.72,0.09 -1.03,0.29 -0.3,0.19 -0.54,0.45 -0.72,0.77 -0.17,0.32 -0.26,0.68 -0.26,1.06l0 1.97c0,0.38 0.09,0.73 0.26,1.05 0.18,0.32 0.42,0.58 0.72,0.77 0.31,0.19 0.66,0.29 1.03,0.29 0.5,0 1,-0.17 1.48,-0.51l0 0 0.01 0c0.05,-0.05 0.1,-0.1 0.13,-0.16l-0.72 -0.73 -0.01 0c-0.12,0.08 -0.21,0.14 -0.29,0.18 -0.03,0.02 -0.11,0.05 -0.25,0.1 -0.1,0.03 -0.22,0.04 -0.35,0.04 -0.18,0 -0.34,-0.04 -0.49,-0.14 -0.15,-0.1 -0.26,-0.22 -0.35,-0.39 -0.09,-0.16 -0.13,-0.34 -0.13,-0.54l0 -0.52 1.95 0 0 0 1.03 0 0 -0.53 0.01 -0.01 0 -0.84z"/>
   <path class="fil1" d="M33.34 20.15l-1.96 0 0 -0.38c0,-0.2 0.05,-0.38 0.14,-0.54 0.08,-0.16 0.2,-0.29 0.35,-0.38 0.14,-0.09 0.3,-0.13 0.49,-0.13 0.17,0 0.33,0.04 0.48,0.14 0.16,0.09 0.27,0.22 0.36,0.38 0.09,0.16 0.14,0.34 0.14,0.53l0 0.38zm1.03 -0.34c0,-0.38 -0.09,-0.74 -0.26,-1.06 -0.17,-0.33 -0.42,-0.6 -0.72,-0.79 -0.31,-0.2 -0.66,-0.3 -1.03,-0.3 -0.38,0 -0.73,0.09 -1.03,0.29 -0.31,0.19 -0.55,0.45 -0.72,0.77 -0.17,0.32 -0.26,0.68 -0.26,1.06l0 1.97c0,0.38 0.09,0.73 0.26,1.05 0.17,0.32 0.41,0.58 0.72,0.77 0.31,0.19 0.65,0.29 1.03,0.29 0.5,0 0.99,-0.17 1.47,-0.51l0.01 0 0 0c0.06,-0.05 0.1,-0.1 0.14,-0.16l-0.73 -0.73 0 0c-0.12,0.08 -0.22,0.14 -0.29,0.18 -0.04,0.02 -0.11,0.05 -0.25,0.1 -0.11,0.03 -0.23,0.04 -0.35,0.04 -0.18,0 -0.34,-0.04 -0.49,-0.14 -0.15,-0.1 -0.27,-0.22 -0.35,-0.39 -0.09,-0.16 -0.14,-0.34 -0.14,-0.54l0 -0.52 1.96 0 0 0 1.03 0 0 -0.53 0 -0.01 0 -0.84z"/>
   <path class="fil1" d="M25.11 22.42c0,0.01 0,0.01 0,0.02 0,-0.01 0,-0.01 0,-0.02z"/>
   <path class="fil1" d="M25.11 22.4c0,0.01 0,0.02 0,0.02 0,0 0,-0.01 0,-0.02z"/>
   <path class="fil1" d="M25.11 22.44c0.02,0.06 0.05,0.11 0.07,0.15 -0.03,-0.06 -0.05,-0.11 -0.07,-0.15z"/>
   <path class="fil1" d="M24.05 22.49c0,0 0.02,0.33 0.24,0.68 -0.11,-0.19 -0.19,-0.41 -0.23,-0.68l-0.01 0z"/>
   <path class="fil1" d="M24.02 18.84l0 3.19c0,0.17 0.01,0.32 0.04,0.46 0.04,0.27 0.12,0.49 0.23,0.68 0.23,0.35 0.67,0.73 1.53,0.77 0.07,0 0.15,0 0.23,0l0.09 -0.75c-0.06,-0.01 -0.12,-0.02 -0.17,-0.03 -0.46,-0.11 -0.68,-0.36 -0.79,-0.57 -0.02,-0.04 -0.05,-0.09 -0.07,-0.15 0,-0.01 0,-0.01 0,-0.02 0,0 0,-0.01 0,-0.02 -0.03,-0.1 -0.05,-0.23 -0.05,-0.41l0 -3.15 0.83 0 0 -1.09 -0.83 0 0 -1.31c0,-0.01 0,-0.02 0,-0.03l-1.04 0c0,0.01 0,0.02 0,0.03l0 1.31 0 1.09z"/>
   <path class="fil1" d="M27.3 18.84l0 3.19c0,0.17 0.02,0.32 0.04,0.46 0.05,0.27 0.13,0.49 0.23,0.68 0.23,0.35 0.67,0.73 1.53,0.77 0.07,0 0.15,0 0.23,0l0.1 -0.75c-0.07,-0.01 -0.12,-0.02 -0.18,-0.03 -0.46,-0.11 -0.68,-0.36 -0.79,-0.57 -0.02,-0.04 -0.04,-0.09 -0.06,-0.15 0,-0.01 0,-0.01 -0.01,-0.02 0,0 0,-0.01 0,-0.02 -0.03,-0.1 -0.04,-0.23 -0.04,-0.41l0 -3.15 0.82 0 0 -1.09 -0.82 0 0 -1.34 -1.05 0 0 1.34 0 1.09z"/>
   <path class="fil1" d="M36.35 17.79c-0.73,0.14 -1.26,0.79 -1.26,1.54l0 4.53 1.04 0 0 -4.8c0,0 -0.13,-0.65 1.27,-0.41l0 -0.9c0,0 -0.5,-0.07 -1.05,0.04z"/>
   <path class="fil1" d="M38.24 23.31c0,0.35 -0.28,0.63 -0.63,0.63 -0.35,0 -0.63,-0.28 -0.63,-0.63 0,-0.35 0.28,-0.63 0.63,-0.63 0.35,0 0.63,0.28 0.63,0.63z"/>
  </g>
 </g>
</svg>
