<?xml version="1.0" encoding="UTF-8"?>
<!DOCTYPE svg PUBLIC "-//W3C//DTD SVG 1.1//EN" "http://www.w3.org/Graphics/SVG/1.1/DTD/svg11.dtd">
<!-- Creator: CorelDRAW 2021 (64-Bit) -->
<svg xmlns="http://www.w3.org/2000/svg" xml:space="preserve" width="900px" height="174px" version="1.1" style="shape-rendering:geometricPrecision; text-rendering:geometricPrecision; image-rendering:optimizeQuality; fill-rule:evenodd; clip-rule:evenodd"
viewBox="0 0 357.71 69.22"
 xmlns:xlink="http://www.w3.org/1999/xlink"
 xmlns:xodm="http://www.corel.com/coreldraw/odm/2003">
 <defs>
  <style type="text/css">
   <![CDATA[
    .fil2 {fill:#008BCC;fill-rule:nonzero}
    .fil1 {fill:#231F20;fill-rule:nonzero}
    .fil0 {fill:white;fill-rule:nonzero}
   ]]>
  </style>
 </defs>
 <g id="__x0023_Layer_x0020_1">
  <metadata id="CorelCorpID_0Corel-Layer"/>
  <g id="BCBS_x0020_full-logo.svg">
   <circle class="fil0" cx="33.7" cy="34.36" r="19.75"/>
   <path class="fil0" d="M104.74 9.13c-8.46,0 -21.41,-3.98 -21.41,-3.98 0,0 -2.82,7.3 -2.82,17.26 0,9.96 8.3,36.18 25.06,42.82 0,0 23.9,-15.1 23.9,-41.49 0,-15.77 -2.32,-18.59 -2.32,-18.59 0,0 -13.94,3.98 -22.41,3.98l0 0z"/>
   <g>
    <path class="fil1" d="M154.04 29.55l0 -28.55 10.79 0c5.15,-0.34 10.29,1.82 10.29,7.47 0,3.15 -2.16,5.31 -4.98,6.3 3.65,0.83 6.31,3.32 6.31,7.47 0,5.65 -7.14,7.8 -11.45,7.47l-10.96 0 0 -0.16 0 0zm10.96 -17.1c2.65,0 3.98,-1 3.98,-3.32 0,-2.32 -1.49,-3.32 -3.98,-3.32l-4.82 0 0 6.81 4.82 0 0 -0.17zm0 12.28c2.82,0 4.81,-0.5 4.81,-3.82 0,-3.31 -1.99,-3.81 -4.81,-3.81l-4.82 0 0 7.63 4.82 0zm21.24 -23.73l0 28.55 -5.97 0 0 -28.55 5.97 0zm18.1 26.06c-1.33,1.82 -3.16,2.98 -6.15,2.98 -1.99,0 -5.81,-1.49 -6.47,-4.31 -0.33,-1.16 -0.33,-2.49 -0.33,-3.16l0 -12.94 5.97 0 0 11.95c0,2.16 0.67,4.65 3.49,4.65 1.83,0 3.49,-1.66 3.49,-4.65l0 -11.95 5.97 0 0 16.26c0,1.17 0.17,2.33 0.17,3.49l-5.98 0 -0.16 -2.32 0 0zm16.43 -5.81c0,2.65 0.33,4.98 3.48,4.98 2,0 3.16,-0.83 3.66,-2.66l5.31 0c-0.5,4.98 -4.32,6.47 -8.97,6.47 -6.8,0 -9.62,-3.81 -9.62,-10.45 0,-5.98 3.48,-10.63 9.62,-10.63 3.66,0 6.81,1.33 8.47,4.82 0.5,1.16 0.83,2.32 1,3.48 0.16,1.16 0.16,2.49 0.16,3.82l-13.11 0 0 0.17zm6.97 -3.99c0,-2.15 -0.66,-4.15 -3.49,-4.15 -2.65,0 -3.32,2 -3.48,4.15l6.97 0zm26.23 -7.13c0,-2.99 -1.83,-5.48 -5.48,-5.48 -4.32,0 -5.48,6.47 -5.48,10.46 0,3.98 1.16,10.45 5.48,10.45 3.65,0 5.48,-2.49 5.48,-5.48l6.47 0c-0.33,7.14 -5.48,9.8 -11.95,9.8 -8.3,0 -11.95,-6.48 -11.95,-14.94 0,-8.3 3.65,-14.94 11.95,-14.94 6.64,0 11.79,2.66 11.95,9.79l-6.47 0 0 0.34zm15.1 -0.5l0.17 3.65c1.33,-3.15 3.82,-3.98 6.8,-3.82l0 5.31 -2.65 0c-1,0 -2.33,0.67 -2.82,1.5 -0.67,1.16 -0.83,2.15 -0.83,3.48l0 9.8 -5.98 0 0 -15.94c0,-0.83 -0.17,-2.49 -0.17,-3.98l5.48 0zm19.92 20.58c-6.47,0 -10.46,-4.32 -10.46,-10.62 0,-6.31 3.82,-10.63 10.46,-10.63 6.48,0 10.46,4.32 10.46,10.63 0,6.3 -3.98,10.62 -10.46,10.62zm0 -3.98c3.65,0 4.32,-3.49 4.32,-6.64 0,-3.16 -0.67,-6.64 -4.32,-6.64 -3.65,0 -4.31,3.48 -4.31,6.64 0.16,3.15 0.66,6.64 4.31,6.64zm24.73 -11.29c0,-1.33 -1.32,-1.99 -2.65,-1.99 -1.66,0 -2.33,0.5 -2.33,1.82 0,3.16 11.46,1.33 11.46,8.8 0,4.32 -5.31,6.47 -8.97,6.47 -4.64,0 -8.63,-1.82 -8.79,-6.3l5.47 0c0.17,1.49 1.5,2.49 3.32,2.49 1.66,0 2.83,-0.67 2.83,-2.16 0,-1.66 -2.83,-2.33 -3.99,-2.49 -3.82,-0.83 -7.3,-1.83 -7.3,-6.31 0,-4.15 4.98,-5.97 8.46,-5.97 4.15,0 7.81,1.49 7.97,5.97l-5.48 0 0 -0.33zm19.76 0c0,-1.33 -1.33,-1.99 -2.66,-1.99 -1.66,0 -2.32,0.5 -2.32,1.82 0,3.16 11.45,1.33 11.45,8.8 0,4.32 -5.31,6.47 -8.96,6.47 -4.65,0 -8.63,-1.82 -8.8,-6.3l5.48 0c0.16,1.49 1.49,2.49 3.32,2.49 1.66,0 2.82,-0.67 2.82,-2.16 0,-1.66 -2.82,-2.33 -3.98,-2.49 -3.82,-0.83 -7.31,-1.83 -7.31,-6.31 0,-4.15 4.98,-5.97 8.47,-5.97 4.15,0 7.8,1.49 7.96,5.97l-5.47 0 0 -0.33zm-179.44 53.45l0 -28.55 10.79 0c5.15,-0.33 10.29,1.82 10.29,7.47 0,3.15 -2.16,5.31 -4.98,6.31 3.65,0.83 6.31,3.31 6.31,7.46 0,5.65 -7.14,7.81 -11.45,7.47l-10.96 0 0 -0.16zm10.96 -17.1c2.65,0 3.98,-0.99 3.98,-3.32 0,-2.32 -1.49,-3.32 -3.98,-3.32l-4.82 0 0 6.81 4.82 -0.17zm0 12.28c2.82,0 4.81,-0.49 4.81,-3.81 0,-3.32 -1.99,-3.82 -4.81,-3.82l-4.82 0 0 7.63 4.82 0zm21.24 -23.73l0 28.55 -5.97 0 0 -28.55 5.97 0zm18.1 26.06c-1.33,1.82 -3.16,2.99 -6.15,2.99 -1.99,0 -5.81,-1.5 -6.47,-4.49 -0.33,-1.16 -0.33,-2.49 -0.33,-3.15l0 -12.95 5.97 0 0 12.12c0,2.16 0.67,4.65 3.49,4.65 1.83,0 3.49,-1.66 3.49,-4.65l0 -11.95 5.97 0 0 16.27c0,1.16 0.17,2.32 0.17,3.48l-5.98 0 -0.16 -2.32zm16.43 -5.81c0,2.65 0.33,4.98 3.48,4.98 2,0 3.16,-0.83 3.66,-2.66l5.31 0c-0.5,4.98 -4.32,6.48 -8.97,6.48 -6.8,0 -9.62,-3.82 -9.62,-10.46 0,-5.98 3.48,-10.62 9.62,-10.62 3.66,0 6.81,1.32 8.47,4.81 0.5,1.16 0.83,2.32 1,3.48 0.16,1.17 0.16,2.49 0.16,3.82l-13.11 0.17 0 0zm6.97 -3.99c0,-2.15 -0.66,-4.14 -3.49,-4.14 -2.65,0 -3.32,1.99 -3.48,4.14l6.97 0zm25.4 -8.13c-0.17,-2.82 -1.83,-4.31 -4.82,-4.31 -2.32,0 -4.48,1.16 -4.48,3.65 0,3.15 2.82,3.48 5.31,3.98 4.32,1.16 10.79,2.33 10.79,8.13 0,7.14 -6.14,9.63 -12.28,9.63 -6.47,0 -11.12,-2.49 -10.96,-9.79l6.31 0c-0.16,3.15 1.66,5.31 4.82,5.31 2.49,0 5.64,-0.83 5.64,-3.82 0,-3.32 -4.15,-3.65 -6.47,-4.31 -3.99,-1 -9.47,-2.82 -9.47,-7.97 0,-6.47 5.98,-9.46 11.96,-9.46 5.47,0 9.79,2.99 9.79,8.8l-6.14 0.16zm10.95 20.42l0 -28.55 5.98 0 0 11.12c1.16,-1.83 3.15,-2.99 6.14,-2.99 1.99,0 5.81,1.5 6.47,4.32 0.34,1.16 0.34,2.49 0.34,3.15l0 12.95 -5.81 0 0 -11.95c0,-2.16 -0.67,-4.48 -3.49,-4.48 -1.83,0 -3.49,1.66 -3.49,4.48l0 11.95 -6.14 0zm30.38 -28.55l0 5.14 -6.31 0 0 -5.14 6.31 0zm-0.33 8.63l0 19.92 -5.98 0 0 -19.92 5.98 0zm10.45 11.62c0,2.65 0.34,4.98 3.49,4.98 1.99,0 3.15,-0.83 3.65,-2.66l5.31 0c-0.49,4.98 -4.31,6.48 -8.96,6.48 -6.81,0 -9.63,-3.82 -9.63,-10.46 0,-5.98 3.49,-10.62 9.63,-10.62 3.65,0 6.81,1.32 8.47,4.81 0.49,1.16 0.83,2.32 0.99,3.48 0.17,1.17 0.17,2.49 0.17,3.82l-13.12 0.17 0 0zm6.81 -3.99c0,-2.15 -0.66,-4.14 -3.49,-4.14 -2.65,0 -3.32,1.99 -3.48,4.14l6.97 0zm15.77 -16.26l0 28.55 -5.98 0 0 -28.55 5.98 0zm18.92 0l5.98 0 0 24.73c0,1.33 0.16,2.66 0.16,3.98l-5.97 0c0,-0.99 -0.17,-1.82 -0.17,-2.82 -1.33,2.33 -3.48,3.49 -6.14,3.49 -5.81,0 -8.63,-5.48 -8.63,-10.63 0,-5.31 3.15,-10.62 9.29,-10.62 2,0 4.15,1.16 5.32,2.82l0.16 -10.95 0 0zm-4.31 25.23c3.15,0 4.31,-3.82 4.31,-6.64 0,-2.66 -0.99,-6.64 -4.31,-6.64 -3.82,0 -4.32,3.48 -4.32,6.64 0,2.99 0.5,6.64 4.32,6.64zm0.99 -35.52c-0.99,0 -1.82,-0.83 -1.82,-1.83 0,-1 0.83,-1.83 1.82,-1.83 1,0 1.83,0.83 1.83,1.83 0,1 -0.67,1.83 -1.83,1.83l0 0zm0 -4.15c-1.16,0 -2.16,0.99 -2.16,2.15 0,1.17 1,2.16 2.16,2.16 1.16,0 2.16,-0.99 2.16,-2.16 0,-1.16 -1,-2.15 -2.16,-2.15z"/>
   </g>
   <g>
    <path class="fil1" d="M342.77 27.55l-0.5 0 0 -0.83 0.67 0c0.33,0 0.66,0 0.66,0.34 0,0.49 -0.5,0.49 -0.83,0.49l0 0zm1.16 -0.49c0,-0.5 -0.16,-0.67 -0.83,-0.67l-1.16 0 0 2.49 0.33 0 0 -1.16 0.5 0 0.83 1.16 0.33 0 -0.66 -1.16c0.33,0 0.66,-0.17 0.66,-0.66l0 0zm11.62 41.16c-0.99,0 -1.82,-0.83 -1.82,-1.82 0,-1 0.83,-1.83 1.82,-1.83 1,0 1.83,0.83 1.83,1.83 0,0.99 -0.83,1.82 -1.83,1.82l0 0zm0 -4.15c-1.16,0 -2.15,1 -2.15,2.16 0,1.16 0.99,2.16 2.15,2.16 1.17,0 2.16,-1 2.16,-2.16 0,-1.16 -0.99,-2.16 -2.16,-2.16z"/>
   </g>
   <g>
    <path class="fil1" d="M355.39 66.23l-0.5 0 0 -0.83 0.66 0c0.34,0 0.67,0 0.67,0.33 0,0.5 -0.33,0.5 -0.83,0.5l0 0zm1.33 -0.5c0,-0.5 -0.17,-0.66 -0.83,-0.66l-1.17 0 0 2.49 0.34 0 0 -1.16 0.49 0 0.67 1.16 0.33 0 -0.66 -1.16c0.49,0 0.83,-0.17 0.83,-0.67l0 0zm0 0l0 0 0 0z"/>
   </g>
   <g>
    <path class="fil2" d="M63.74 61.08c-2.16,0 -3.82,1.66 -3.82,3.82 0,2.16 1.66,3.82 3.82,3.82 1.99,0 3.82,-1.66 3.82,-3.82 0,-2.16 -1.66,-3.82 -3.82,-3.82zm0 6.98c-1.83,0 -3.15,-1.33 -3.15,-3.16 0,-1.82 1.32,-3.15 3.15,-3.15 1.83,0 3.15,1.33 3.15,3.15 0,1.83 -1.16,3.16 -3.15,3.16z"/>
    <path class="fil2" d="M65.73 63.91c0,-0.83 -0.33,-1.17 -1.49,-1.17l-1.83 0 0 4.32 0.5 0 0 -1.83 1 0 1.16 1.83 0.66 0 -1.33 -1.83c0.83,-0.16 1.33,-0.49 1.33,-1.32zm-1.99 0.66l-0.83 0 0 -1.33 1.16 0c0.5,0 1,0 1,0.67 0.16,0.83 -0.83,0.66 -1.33,0.66zm-29.88 -25.06c-0.16,0 -0.16,0 -0.33,0.16l-6.31 9.63c1.99,0.83 4.15,1.33 6.48,1.33 2.32,0 4.48,-0.5 6.47,-1.33l-6.31 -9.63c0.17,-0.16 0,-0.16 0,-0.16l0 0zm-6.14 -7.97l-9.46 -0.83c-0.33,1.16 -0.5,2.49 -0.5,3.82 0,3.98 1.49,7.63 3.82,10.45l6.64 -12.61c0.33,-0.33 0.16,-0.67 -0.5,-0.83l0 0z"/>
    <path class="fil2" d="M48.8 19.42l0 -18.76 -30.04 0 0 18.76 -18.76 0 0 30.05 18.76 0 0 18.75 30.04 0 0 -18.75 18.76 0 0 -30.05 -18.76 0zm-14.94 -3.48c7.47,0 13.95,4.31 16.77,10.78l-13.28 0c-1.83,0 -2.66,-1.16 -2.82,-1.99 0,-0.99 0.16,-1.33 0.99,-2.49 1,-1.33 0.33,-3.65 -1.82,-3.82 -2.16,0 -2.83,2.49 -1.83,3.82 0.83,1.16 1,1.5 1,2.49 0,0.83 -0.83,1.99 -2.83,1.99l-13.27 0c3.15,-6.3 9.62,-10.78 17.09,-10.78l0 0zm-18.59 18.59c0,-2.33 0.5,-4.49 1.16,-6.48l12.45 1.16c2.33,0.34 2.66,2.66 1.99,3.99l-8.46 16.1c-4.32,-3.49 -7.14,-8.8 -7.14,-14.77zm28.72 15.6c-2.99,1.99 -6.48,2.99 -10.29,2.99 -3.82,0 -7.31,-1.16 -10.3,-2.99l9.13 -13.45c0.67,-0.99 1.66,-0.83 2.33,0l9.13 13.45 0 0zm1.33 -1l-8.47 -15.93c-0.66,-1.33 -0.33,-3.65 1.99,-3.99l12.45 -1.16c0.83,1.99 1.16,4.32 1.16,6.48 0,5.97 -2.82,11.28 -7.13,14.6l0 0z"/>
    <path class="fil2" d="M45.98 24.07c-1.99,-2.33 -4.65,-4.15 -7.64,-4.98 1,1.49 0.17,3.65 -0.66,4.65 -0.17,0.16 0,0.33 0,0.33l8.3 0zm-5.98 7.47c-0.66,0 -0.66,0.33 -0.49,0.66l6.64 12.62c2.32,-2.82 3.81,-6.48 3.81,-10.46 0,-1.33 -0.16,-2.66 -0.49,-3.82l-9.47 1 0 0zm-10.62 -12.29c-2.99,0.83 -5.64,2.66 -7.64,4.98l8.3 0c0.17,0 0.17,-0.16 0,-0.33 -0.83,-1.16 -1.66,-3.15 -0.66,-4.65z"/>
   </g>
   <g>
    <path class="fil2" d="M127.98 0.66c-7.3,3.66 -14.61,5.65 -23.07,5.65 -8.47,0 -15.77,-1.99 -23.08,-5.65 -4.81,9.47 -5.47,24.74 -1.32,37.52 3.98,12.28 11.78,23.57 24.4,30.54 12.78,-6.97 20.41,-18.26 24.4,-30.54 4.31,-12.78 3.48,-28.05 -1.33,-37.52zm-3.32 36.02c-3.65,10.46 -9.13,19.76 -19.59,26.23 -10.45,-6.47 -16.1,-15.77 -19.58,-26.23 -3.16,-9.29 -3.99,-20.25 -0.5,-28.71 5.31,1.82 8.3,2.32 11.12,2.82 2.66,0.5 4.98,0.66 8.96,0.66 3.82,0 6.31,-0.33 8.97,-0.66 2.82,-0.5 5.97,-1 11.12,-2.82 3.32,8.46 2.65,19.42 -0.5,28.71z"/>
    <path class="fil2" d="M114.04 13.11c-2.99,0.34 -6.15,0.67 -9.13,0.67 -2.99,0 -5.98,-0.33 -9.13,-0.67 -2.99,-0.49 -5.98,-1.16 -9.13,-1.99 -2.16,6.31 -1.83,14.28 0,21.25 3.15,13.28 11.28,23.4 18.26,27.88 7.13,-4.48 15.1,-14.6 18.26,-27.88 1.66,-7.14 2.15,-14.94 0,-21.25 -3.16,0.83 -5.98,1.66 -9.13,1.99l0 0zm-10.79 41c-0.17,0.67 0.16,1 0.16,1.33 -0.16,0.5 -0.5,0.33 -0.66,0 -0.33,-0.5 -0.5,-0.83 -0.5,-1.66 -0.17,-1.33 0.5,-1.82 0.83,-2.16 0.33,-0.33 0.66,-0.49 0.66,-0.49l0.17 2.15c-0.33,0 -0.66,0.17 -0.66,0.83l0 0zm2.82 2.16c0,0.33 -0.17,0.66 -0.83,0.66 -0.5,0 -0.83,-0.16 -0.83,-0.83 -0.17,-2.65 -0.17,-7.46 -0.17,-7.46 0,0 0.67,0.16 1.16,0.49 0.17,0 0.5,0.34 0.83,0.67 0,0.16 0.17,0.16 0.17,0.33 -0.17,1.83 -0.33,5.31 -0.33,6.14zm2.16 -4.98c-0.67,0.5 -1.33,0.67 -1.33,0.67l0 -2c0,0 0.16,-0.16 0.16,-0.49 -0.16,-0.34 -1.49,-1.33 -2.15,-1.66 -0.83,-0.34 -1.83,-0.67 -2.49,-0.83 -1.66,-0.67 -2.33,-2.16 -1.66,-3.82 0.16,-0.67 0.99,-1 1.33,-1.16 0.33,-0.17 0.99,-0.34 0.99,-0.34l0.17 2.33c0,0 -0.17,0 -0.33,0.33 -0.17,0.33 0.16,0.66 0.33,0.66 1.16,0.5 2.65,1.17 3.81,1.83 1.5,0.83 2,1.49 2,2.66 0.16,0.83 -0.34,1.49 -0.83,1.82l0 0zm-4.15 -10.79c1.16,0.17 1.49,0.17 2.49,0.33l-0.17 4.65 -1 -0.5 -0.99 -0.49 -0.33 -3.99 0 0zm6.64 1c-0.17,0.83 -0.67,1.49 -1.5,1.99 -0.83,0.5 -1.82,0.5 -1.82,0.5l0 -2.82c0,0 0.16,0 0.33,-0.17 0.16,-0.17 0.16,-0.33 0.16,-0.5 0,-0.16 -0.16,-0.33 -0.33,-0.5 -0.33,-0.16 -0.66,-0.16 -0.83,-0.16l-3.98 -0.5c-2.33,-0.33 -4.15,-1.83 -3.99,-4.15 0.17,-1.49 1.66,-1.99 2.83,-2.49l0.83 1.66c0.16,0.66 0.33,1 0.33,1 0,0 -0.5,0.16 -0.5,0.49 0,0.34 0.5,0.5 0.66,0.5 1.66,0.17 3.99,0.5 5.15,1 0.83,0.33 1.49,0.66 1.99,1.33 0.67,1.16 0.83,1.99 0.67,2.82l0 0zm-7.64 -10.79c0,0 0.5,0 1.99,0.16 1,0 1.83,0.34 1.83,0.34l-0.17 4.98c-1.16,-0.17 -1.82,-0.34 -2.82,-0.5 -0.33,-1.83 -0.83,-2.49 -1.49,-3.82 -0.17,-0.33 0,-0.5 0,-0.5 0.16,-0.16 0.83,-0.33 0.83,-0.33l-0.17 -0.33 0 0zm4.48 4.98c0,0 0.17,-2.33 0.17,-3.49 0.66,-0.16 0.83,-0.83 0.5,-1.33 -0.17,-0.33 -0.67,-0.49 -0.83,-0.49 -1.33,-0.34 -2.49,-0.34 -3.82,-0.5 -1.16,-0.17 -2.16,-0.33 -3.15,-0.5 -2.16,-0.5 -4.15,-1.66 -5.15,-3.65 -1.16,-2.49 -0.17,-5.65 2.32,-6.81 1.83,-0.99 3.82,-0.83 5.65,0 0.66,0.17 0.99,0.83 1.32,1.33 0.17,0.17 0.5,0.33 0.67,0.66 0.16,0.17 -0.17,0.17 -0.17,0.17 -0.33,0.17 -1.82,0.17 -2.16,0l-1.99 0c0.5,0.33 1.17,0.66 1.83,1 0.33,0.16 0.66,0.16 0.99,0.33 0.17,0 0.5,0.16 0.5,0.33 0,0.17 -0.33,0.17 -0.66,0.33 -0.5,0.17 -1.16,0.17 -1.83,0 -0.99,-0.16 -1.49,-0.83 -2.15,-0.5 -0.5,0.34 -0.5,0.83 -0.34,1.5 0.17,0.99 1.17,1.33 2,1.66 2.82,0.99 5.97,0.33 8.63,1.82 0.99,0.5 2.32,1.66 2.49,2.83 0.83,4.64 -4.82,5.31 -4.82,5.31l0 0zm4.98 -15.44c-0.16,0.5 -0.33,0.5 -0.66,0.83 -0.67,0.66 -1.66,1.33 -2.66,2.16 -0.66,0.5 -1.16,0.83 -1.66,1.66 -0.16,0.16 -0.33,0.5 -0.33,0.5 -1.66,-0.34 -3.15,-0.34 -4.48,-0.67l0 -1.33c0,0 1.49,0 1.66,-0.99 0,0 0,-0.33 -0.17,-0.5 -0.16,-0.17 -0.66,-0.33 -0.83,-0.33 1.16,0.16 2.33,0.66 3.49,1.16 0,-0.17 -0.17,-0.66 -0.17,-0.66 -0.16,-0.17 -0.33,-0.34 -0.83,-0.5 -0.66,-0.17 -2.49,-0.33 -2.49,-0.33l1.5 0c0.33,0 0.83,-0.17 0.83,-0.34 0.16,-0.16 0,-0.49 -0.34,-0.83l-0.49 -0.49c-0.17,-0.34 -0.5,-0.67 -0.67,-1 -0.33,-0.5 -1.66,-0.99 -1.66,-0.99 0,0 -0.16,-0.83 0.17,-1.17 0.17,-0.33 0.83,-0.33 0.99,-0.16 0.83,0.5 2,0.99 3.16,1.32 0.33,0.17 0.33,0.17 0.33,0.67 0.17,0.83 -0.17,1.99 0,2.49 0,0.16 0.33,0.16 0.33,0.16 1.16,-0.66 1.83,-1.66 2.99,-2.15 0.83,-0.34 2.32,0.33 1.99,1.49l0 0zm15.77 41c-1.99,0 -3.65,1.66 -3.65,3.65 0,1.99 1.66,3.65 3.65,3.65 1.99,0 3.65,-1.66 3.65,-3.65 0,-1.99 -1.66,-3.65 -3.65,-3.65zm0 6.81c-1.82,0 -3.15,-1.33 -3.15,-3.16 0,-1.82 1.33,-3.15 3.15,-3.15 1.83,0 3.16,1.33 3.16,3.15 0,1.83 -1.33,3.16 -3.16,3.16z"/>
    <path class="fil2" d="M130.3 63.91c0,-0.83 -0.33,-1.17 -1.49,-1.17l-1.83 0 0 4.32 0.5 0 0 -1.83 0.83 0 1.16 1.83 0.67 0 -1.33 -1.83c0.83,-0.16 1.49,-0.49 1.49,-1.32zm-1.99 0.83l-0.83 0 0 -1.33 1.16 0c0.5,0 1,0 1,0.66 0,0.67 -0.83,0.67 -1.33,0.67l0 0zm-23.4 -4.32zm-3.49 -41.33c0.33,0.33 0.33,0.66 0.83,0.66 0.33,0 0.5,-0.16 0.66,-0.33l0.34 0c-0.5,-0.5 -1.66,-0.5 -2.49,-0.66 0.33,0.33 0.5,0.16 0.66,0.33z"/>
   </g>
  </g>
 </g>
</svg>
