<?xml version="1.0" encoding="utf-8"?>
<!-- Generator: Adobe Illustrator 28.3.0, SVG Export Plug-In . SVG Version: 6.00 Build 0)  -->
<svg version="1.1" id="Layer_1" xmlns="http://www.w3.org/2000/svg" xmlns:xlink="http://www.w3.org/1999/xlink" x="0px" y="0px"
	 viewBox="0 0 101 53" style="enable-background:new 0 0 101 53;" xml:space="preserve">
<style type="text/css">
	.st0{fill:#0033FF;}
	.st1{fill-rule:evenodd;clip-rule:evenodd;fill:#03CC54;}
</style>
<path class="st0" d="M54.5,44c-0.6,0-0.9,0.3-1.1,0.6v-2h-0.8v5h0.8v-2.1c0-0.6,0.3-0.9,0.8-0.9c0.5,0,0.8,0.3,0.8,0.9v2.1h0.8v-2.3
	C55.8,44.6,55.3,44,54.5,44z"/>
<path class="st0" d="M58.4,44c-1,0-1.8,0.9-1.8,1.9v0c0,1.1,0.8,1.9,1.9,1.9c0.7,0,1.1-0.3,1.5-0.7l-0.5-0.4c-0.3,0.3-0.6,0.4-1,0.4
	c-0.5,0-1-0.3-1-0.9h2.7c0-0.1,0-0.2,0-0.2C60.1,44.9,59.5,44,58.4,44z M57.4,45.7c0.1-0.6,0.4-1,0.9-1c0.6,0,0.9,0.4,0.9,1H57.4z"
	/>
<path class="st0" d="M59.9,39.4c0-0.7-0.3-0.7-0.3-0.7h-0.4c-0.6,0-1.3-0.6-1.3-1.3V31c0-2.6,1.5-4.1,3.5-4.1c1.7,0,3,0.9,3,3v7.5
	c0,0.6-0.6,1.3-1.3,1.3h-0.4c0,0-0.3,0.1-0.3,0.7c0,0.6,0.3,1,0.3,1h7.5c0,0,0.3-0.3,0.3-0.9c0-0.6-0.3-0.8-0.3-0.8h-0.4
	c-0.6,0-1.3-0.6-1.3-1.3v-7.7c0-3.6-2.3-5.4-5.6-5.4c-2.4,0-4.3,1.1-5.4,2.8c0,0,0-1.7,0-1.9c0-0.5-0.5-0.7-1.1-0.5
	c-0.4,0.2-2.5,0.9-4.3,0.9c-0.1,0.1-0.3,0.4-0.3,0.8c0,0.4,0.1,0.6,0.3,0.9h0.4c0.6,0,1.3,0.6,1.3,1.3v8.7c0,0.6-0.6,1.3-1.3,1.3
	h-0.4c0,0-0.3,0-0.3,0.7c0,0.7,0.3,1,0.3,1h7.5C59.6,40.3,59.9,40.1,59.9,39.4z"/>
<path class="st0" d="M46.1,25.4c-1.1-0.7-2.5-1.2-4.1-1.2c-3.9,0-6.8,2.6-6.8,5.9c0,2,1.1,3.7,2.6,4.7l-2.7,3.3c0,0-0.3,0.6-0.3,1.2
	c0,0.6,0.4,1,0.4,1h1.9c-1.4,0.8-2,2.2-2,3.3c0,2.3,2,4.1,6.4,4.1c4.5,0,8.6-2.4,8.6-6.1c0-2.6-1.6-4.4-5.5-4.4h-6l1.2-1.6
	C40.5,35.9,41,36,42,36c3.9,0,6.8-2.6,6.8-5.9c0-1-0.3-2-0.8-2.8h2.3c0.1-0.2,0.3-0.5,0.3-1c0-0.4-0.1-0.8-0.2-1L46.1,25.4
	L46.1,25.4z M39.8,40.3h3.5c2.1,0,2.8,1.2,2.8,2.4c0,1.5-1.4,3.1-4.1,3.1c-2.5,0-3.8-1.1-3.8-2.7C38.3,41.9,38.9,40.8,39.8,40.3z
	 M42,34.1c-1.8,0-2.9-1.5-2.9-3.9c0-2.5,1.1-3.9,2.9-3.9c1.7,0,2.9,1.5,2.9,3.9C44.8,32.6,43.7,34.1,42,34.1z"/>
<path class="st0" d="M23.5,35.1c-0.5-0.2-0.9,0-0.9,0c-1.2,2-2.2,3-3.9,3c-3,0-4.9-2.7-4.9-5.9c0-3,1.3-5.9,4.4-5.9
	c1.9,0,3.4,1.2,3.4,3l0,0.6c0,0-0.1,0.3,0.7,0.3s1-0.3,1-0.3l-0.2-4.1c0,0,0-0.1-0.1-0.2c-0.1-0.1-0.1-0.1-0.1-0.1
	c-1.2-0.7-2.9-1.1-4.8-1.1c-4.5,0-8.7,3-8.7,8.5c0,4.9,3.7,8,7.9,8c4,0,5.8-2.5,6.7-5.3C24.2,35.5,23.9,35.2,23.5,35.1z"/>
<path class="st0" d="M29.2,23.2c1.4,0,2.6-1.2,2.6-2.7c0-1.5-1.2-2.7-2.6-2.7c-1.4,0-2.6,1.2-2.6,2.7C26.6,22,27.8,23.2,29.2,23.2z"
	/>
<path class="st0" d="M31.3,28.1c0-0.6,0.6-1.3,1.3-1.3h0.4c0,0,0.3-0.2,0.3-0.8c0-0.6-0.3-0.9-0.3-0.9h-7.5c0,0-0.3,0.4-0.3,1
	c0,0.6,0.3,0.7,0.3,0.7h0.4c0.6,0,1.3,0.6,1.3,1.3v6.3v3c0,0.6-0.6,1.3-1.3,1.3h-0.4c0,0-0.3,0.1-0.3,0.7c0,0.6,0.3,1,0.3,1h7.5
	c0,0,0.3-0.3,0.3-0.9c0-0.6-0.3-0.8-0.3-0.8h-0.4c-0.6,0-1.3-0.6-1.3-1.3v-2.2V28.1z"/>
<path class="st0" d="M79.5,44c-0.6,0-1,0.1-1.4,0.3l0.2,0.7c0.3-0.1,0.6-0.2,1-0.2c0.6,0,0.9,0.3,0.9,0.8v0.1
	c-0.3-0.1-0.6-0.2-1-0.2c-0.8,0-1.5,0.4-1.5,1.2v0c0,0.7,0.6,1.1,1.3,1.1c0.6,0,0.9-0.2,1.2-0.5v0.4h0.8v-2.2
	C81.1,44.6,80.6,44,79.5,44z M80.3,46.4c0,0.5-0.4,0.8-1,0.8c-0.4,0-0.7-0.2-0.7-0.5v0c0-0.4,0.3-0.6,0.8-0.6c0.3,0,0.6,0.1,0.8,0.1
	L80.3,46.4L80.3,46.4z"/>
<path class="st0" d="M82.9,44.9v-0.8h-0.8v3.6h0.8v-1.4c0-1,0.5-1.4,1.2-1.4h0V44C83.6,44,83.2,44.4,82.9,44.9z"/>
<path class="st0" d="M89.2,38.1c0-0.5-0.3-0.6-0.3-0.6h-0.4c-0.6,0-1.3-0.6-1.3-1.3V25c0,0,0-0.3-0.4-0.3h-1c-0.2,0-0.3,0.2-0.3,0.2
	l-1.3,1.8c-0.2,0.2-0.3,0-0.3,0v0c-0.9-1.1-2.4-2.4-5.1-2.4c-4.1,0-8,3-8,8.4c0,5.1,3.4,8.1,7.5,8.1c2.3,0,3.8-1,5-2.5v1.9
	c0,0,0,0.4,0.5,0.5c0.4,0.1,0.8,0,0.8,0l4.4-1.9C88.9,38.8,89.2,38.6,89.2,38.1z M79.1,38.7c-2.8,0-4-2.8-4-6.2c0-3.4,1.2-6.2,4-6.2
	c2.8,0,4,2.8,4,6.2C83.1,35.9,81.9,38.7,79.1,38.7z"/>
<path class="st0" d="M62.4,44c-0.6,0-1,0.1-1.4,0.3l0.2,0.7c0.3-0.1,0.6-0.2,1-0.2c0.6,0,0.9,0.3,0.9,0.8v0.1
	c-0.3-0.1-0.6-0.2-1-0.2c-0.8,0-1.5,0.4-1.5,1.2v0c0,0.7,0.6,1.1,1.3,1.1c0.6,0,0.9-0.2,1.2-0.5v0.4H64v-2.2
	C64,44.6,63.5,44,62.4,44z M63.2,46.4c0,0.5-0.4,0.8-1,0.8c-0.4,0-0.7-0.2-0.7-0.5v0c0-0.4,0.3-0.6,0.8-0.6c0.3,0,0.6,0.1,0.8,0.1
	L63.2,46.4L63.2,46.4z"/>
<path class="st0" d="M86.4,44c-1,0-1.8,0.9-1.8,1.9v0c0,1.1,0.8,1.9,1.9,1.9c0.7,0,1.1-0.3,1.5-0.7l-0.5-0.4c-0.3,0.3-0.6,0.4-1,0.4
	c-0.5,0-1-0.3-1-0.9h2.7c0-0.1,0-0.2,0-0.2C88.1,44.9,87.6,44,86.4,44z M85.4,45.7c0.1-0.6,0.4-1,0.9-1c0.6,0,0.9,0.4,0.9,1H85.4z"
	/>
<path class="st0" d="M75.8,47.1c-0.6,0-1.1-0.5-1.1-1.2v0c0-0.6,0.4-1.2,1-1.2c0.4,0,0.7,0.2,0.9,0.5l0.5-0.6
	c-0.3-0.4-0.8-0.6-1.5-0.6c-1.1,0-1.9,0.9-1.9,1.9v0c0,1,0.8,1.9,1.9,1.9c0.7,0,1.1-0.3,1.5-0.7l-0.5-0.5
	C76.5,46.9,76.2,47.1,75.8,47.1z"/>
<path class="st0" d="M65.9,42.7h-0.8v5h0.8V42.7z"/>
<path class="st0" d="M68,43.1h-0.8v1h-0.5v0.7h0.5v1.9c0,0.8,0.4,1.1,1,1.1c0.3,0,0.5-0.1,0.8-0.2v-0.7c-0.2,0.1-0.3,0.1-0.5,0.1
	c-0.3,0-0.4-0.1-0.4-0.5v-1.8h1v-0.7h-1L68,43.1L68,43.1z"/>
<path class="st0" d="M71.8,44c-0.6,0-0.9,0.3-1.1,0.6v-2h-0.8v5h0.8v-2.1c0-0.6,0.3-0.9,0.8-0.9c0.5,0,0.8,0.3,0.8,0.9v2.1h0.8v-2.3
	C73.1,44.6,72.6,44,71.8,44z"/>
<path class="st1" d="M27.3,11.3c0-1.7,0.8-3.2,2-4.2c1.2,1,1.9,2.5,1.9,4.2c0,1.7-0.8,3.2-2,4.2C28,14.5,27.3,13,27.3,11.3z M33.2,7
	c-0.5,1.2-0.4,2.5,0.1,3.5c1.1-0.4,2.1-1.2,2.6-2.4c0.5-1.2,0.4-2.5-0.1-3.5C34.7,5,33.7,5.8,33.2,7z M22.5,8.1
	c0.5,1.2,1.5,2,2.6,2.4c0.5-1.1,0.6-2.3,0.2-3.5c-0.5-1.2-1.5-2-2.6-2.4C22.1,5.7,22,6.9,22.5,8.1z M15.7,16.5
	c1.2,0.5,2.5,0.4,3.5-0.1c-0.4-1.1-1.2-2.1-2.4-2.6c-1.2-0.5-2.5-0.4-3.5,0.1C13.7,15,14.5,16,15.7,16.5z M41.5,13.8
	c-1.2,0.5-2,1.5-2.4,2.6c1.1,0.5,2.3,0.6,3.5,0.2c1.2-0.5,2-1.5,2.4-2.6C44,13.4,42.7,13.3,41.5,13.8z M38.3,18.5
	c-1.7,0-3.2,0.8-4.2,1.9c1,1.2,2.5,2,4.2,2c1.7,0,3.2-0.8,4.2-1.9C41.5,19.3,40,18.6,38.3,18.5z M34.3,12.6
	c-1.2,1.2-1.7,2.8-1.6,4.3c1.6,0.1,3.2-0.4,4.4-1.6c1.2-1.2,1.7-2.8,1.6-4.3C37.1,10.9,35.5,11.4,34.3,12.6z M20.1,18.5
	c-1.7,0-3.2,0.8-4.2,2c1,1.2,2.5,1.9,4.2,1.9c1.7,0,3.2-0.8,4.2-2C23.3,19.3,21.8,18.5,20.1,18.5z M24.1,12.6
	c-1.2-1.2-2.8-1.7-4.4-1.6c-0.1,1.6,0.4,3.2,1.6,4.3c1.2,1.2,2.8,1.7,4.4,1.6C25.8,15.4,25.3,13.8,24.1,12.6z"/>
</svg>
