<?xml version="1.0" encoding="UTF-8"?>
<!DOCTYPE svg PUBLIC "-//W3C//DTD SVG 1.1//EN" "http://www.w3.org/Graphics/SVG/1.1/DTD/svg11.dtd">
<!-- Creator: CorelDRAW 2021 (64-Bit) -->
<svg xmlns="http://www.w3.org/2000/svg" xml:space="preserve" width="900px" height="175px" version="1.1" style="shape-rendering:geometricPrecision; text-rendering:geometricPrecision; image-rendering:optimizeQuality; fill-rule:evenodd; clip-rule:evenodd"
viewBox="0 0 1931.61 375.38"
 xmlns:xlink="http://www.w3.org/1999/xlink"
 xmlns:xodm="http://www.corel.com/coreldraw/odm/2003">
 <defs>
  <style type="text/css">
   <![CDATA[
    .fil0 {fill:#86C446}
   ]]>
  </style>
 </defs>
 <g id="Layer_x0020_1">
  <metadata id="CorelCorpID_0Corel-Layer"/>
  <g id="_2339070082496">
   <g>
    <path class="fil0" d="M686.63 145.25c12.46,0 44.21,-10.46 64.96,2.95 16.88,10.91 14.26,36.33 14.26,61.18 0,43.69 -4.03,109.96 0.03,150.88 1.31,13.25 11.27,13.28 24.49,13.24 10.06,-0.04 29.06,2.01 36.61,-1.13 10.14,-4.22 6.78,-17.65 6.78,-30.95l0 -188.63c5.45,-0.13 15.57,-11.49 36.77,-11.34 17.44,0.13 26.74,0.84 35.76,13.33 10.71,14.84 6.7,65.23 6.7,91.38 0,32.39 0,64.77 0,97.15 0,35.74 -2.06,30.18 67.91,30.18 0,-53.13 0,-106.26 0,-159.39 0,-59.01 1.14,-91.02 -42.44,-117.91 -34.51,-21.29 -97.78,-14.44 -128.64,5.39 -8.02,5.15 -17.46,-5.34 -26.51,-8.69 -22.86,-8.48 -44.57,-9.65 -70.3,-9.92 -11.73,-0.13 -25.06,2.95 -36.67,3.88 -9.44,0.76 -23.55,5.15 -32.35,7.27 -8.29,2 -24.75,4.74 -25.35,14.26 -1.55,24.36 0.08,55.16 0.08,80.25 0,53.45 0,106.89 0,160.34 0,21.69 -5.59,24.71 15.08,24.53 55.63,-0.48 52.83,6.13 52.83,-27.36l0 -200.89z"/>
    <path class="fil0" d="M0 0l0 373.49c15.27,0 45.85,1.78 59.3,-0.12 11.11,-1.56 10.6,-7.4 10.51,-18.73l-0.01 -149.03c31.43,0 62.87,0.01 94.31,0 16.46,-0.01 27.78,0.26 37.34,9.82 10.82,10.83 7.93,21.86 7.93,40.17 0,31.43 0.07,62.88 0,94.31 -0.04,21.63 1.96,23.63 23.58,23.58 16.04,-0.03 32.07,0 48.1,0l0 -373.49 -52.65 0c-25.01,1.17 -19.03,7.76 -19.03,38.67 0,36.78 0,73.56 0,110.35 -24.2,0 -48.41,0 -72.62,0 -23.12,0 -51.44,4.03 -61.76,-11.81 -8.87,-13.64 -5.2,-45.63 -5.2,-67.42 0,-12.26 0,-24.52 0,-36.78 0,-17.8 1.44,-19.18 -3.78,-33.01l-66.02 0z"/>
    <path class="fil0" d="M1758.07 143.36c0,46.21 0,92.43 0,138.65 0,16.54 3.42,19.64 -7.33,26.62 -7.64,4.96 -14.99,9.17 -24.73,10.17 -53.88,5.52 -66.03,-18.01 -66.03,-68.86 0,-22.29 -1.48,-48.67 1.88,-67.92 9.13,-52.34 48.44,-38.66 96.21,-38.66zm-58.06 232.02l-14.54 0c-22.61,-1.55 -45.22,-10.13 -59.95,-24.01 -37.62,-35.45 -33.41,-86 -33.45,-150.48 -0.03,-54.6 26.53,-97.91 73.56,-111.3 35.96,-10.24 84.59,-6.75 123.77,1.69 7.04,1.51 32.53,8.61 36.58,8.69l0 273.52c-15.71,0 -31.46,-0.1 -47.17,0.01 -22.89,0.17 -20.74,-4.63 -20.74,-26.42 -2.6,0.99 -12.51,12.68 -26.35,19.87 -9.43,4.9 -20.35,7.63 -31.71,8.43z"/>
    <path class="fil0" d="M1192.17 143.36c0,46.21 0,92.43 0,138.65 0,16.54 3.42,19.64 -7.33,26.62 -7.45,4.84 -15.14,9.58 -24.76,10.13 -20.35,1.16 -42.47,2.92 -52.86,-13.12 -12.4,-19.13 -13.14,-27.07 -13.14,-55.7 0,-22.03 -1.96,-49.38 1.61,-68.19 10.01,-52.88 49.29,-38.39 96.48,-38.39zm-63.67 232.02l-0.91 0c-28.7,-0.17 -51.24,-8.11 -67.97,-24.02 -37.78,-35.89 -33.44,-85.51 -33.45,-150.47 -0.01,-54.9 26.37,-97.87 73.55,-111.3 35.97,-10.24 84.6,-6.75 123.78,1.69 7.03,1.51 32.53,8.61 36.58,8.69l0 273.52c-73.6,0 -67.91,5.06 -67.91,-26.41 -6.78,2.56 -22.42,28.23 -63.67,28.3z"/>
    <path class="fil0" d="M1312.89 101.86l0 271.63c16.82,0 61.5,5.83 66.81,-6.75 3.24,-7.65 1.1,-60.06 1.1,-73.42 0,-49.36 0,-98.72 0,-148.07 25.65,0 67.6,-12.98 86.33,6.1 15.84,16.14 11.76,58.48 11.76,89.16 0,33.32 0,66.65 0,99.97 0,38.49 -7.75,33.01 67.91,33.01 0,-45.27 0,-90.54 0,-135.81 0,-50.84 3.44,-83.51 -18.82,-117 -19.38,-29.14 -57.65,-37.68 -98.13,-37.68 -37.51,0 -89.53,8.52 -116.96,18.86z"/>
    <path class="fil0" d="M565.9 358.4l0 -269.74c-11.94,0 -23.89,0 -35.84,0 -39.82,0 -32.07,-7.27 -32.07,78.28 0,48.73 0,97.46 0,146.19 -12.79,0 -62.49,14.83 -84.44,-4.21 -17.67,-15.34 -13.65,-57.45 -13.65,-87.28 0,-33.32 0,-66.65 0,-99.97 0,-38.09 11.31,-33.01 -67.9,-33.01 0,44.64 0,89.28 0,133.93 0,41.69 -1.6,91.86 18.88,115.98 25.23,29.73 49.11,36.81 97.13,36.81 38.44,0 56.3,-2.42 90.75,-10.17 5.32,-1.2 23.33,-6.73 27.14,-6.81z"/>
    <path class="fil0" d="M1922.18 350.15c-3.68,8.24 -3.25,10.81 -11.22,14.95 -23.26,12.08 -46.11,-12.71 -36.35,-34.47 16.48,-36.77 60.13,-8.53 47.57,19.52zm9.43 -15.52l0 10.19c-1.99,14.74 -12.44,28.24 -27.51,30.39 -0.44,0.07 -0.88,0.12 -1.32,0.17l-9.04 0c-27.32,-3.29 -38.25,-36.63 -22.48,-55.64 9.53,-11.51 12.26,-7.83 20.74,-13.21 6.64,-4.22 22.62,2.96 26.83,6.18 7.59,5.81 11.63,13.7 12.78,21.92z"/>
    <path class="fil0" d="M1893.89 337.65l0 -9.43 3.81 0.9c4.12,1.24 6.65,1.33 7.26,4.12 1.21,5.51 -6.56,4.41 -11.07,4.41zm0 7.55l3.77 0c0.15,6.19 -0.52,0.56 3.76,7.56 4.62,7.56 5.56,7.53 13.22,7.53 -0.1,-4.03 0.06,-2.01 -2.67,-5.82 -5.73,-7.99 -7.89,-7.52 0.78,-15.87 0,-4.17 0.6,-9.63 -0.91,-12.29 -1.87,-3.28 -10.03,-5.41 -15.07,-5.71 -12.33,-0.71 -12.46,0.91 -12.38,8.49 0.05,5.47 -0.68,23.39 0.15,27.35 0.89,4.22 5.93,5.68 8.47,2.08 1.81,-2.58 0.88,-9.38 0.88,-13.32z"/>
   </g>
  </g>
 </g>
</svg>
