<?xml version="1.0" encoding="utf-8"?>
<!-- Generator: Adobe Illustrator 27.1.1, SVG Export Plug-In . SVG Version: 6.00 Build 0)  -->
<svg version="1.1" id="Layer_1" xmlns:serif="http://www.serif.com/"
	 xmlns="http://www.w3.org/2000/svg" xmlns:xlink="http://www.w3.org/1999/xlink" x="0px" y="0px" viewBox="0 0 300 88"
	 style="enable-background:new 0 0 300 88;" xml:space="preserve">
<style type="text/css">
	.st0{fill:#2B2E34;}
	.st1{fill:#009FAB;}
</style>
<g transform="matrix(0.755952,0,0,0.758621,-52.1369,-538.828)">
	<path class="st0" d="M454.2,748.2c2.8,0,5,2.2,5,5c0,2.8-2.2,5-5,5c-2.8,0-5-2.3-5-5C449.1,750.4,451.4,748.2,454.2,748.2z
		 M454.2,748.7c-2.5,0-4.5,2-4.5,4.5c0,2.5,2,4.5,4.5,4.5s4.5-2,4.5-4.5C458.6,750.7,456.6,748.7,454.2,748.7z M456.6,756
		c-0.3,0-0.5,0-0.8,0c-0.2,0-0.5,0-0.8,0c-1.4-2.6-1.5-2.7-1.5-2.7c-0.1,0-0.1,0-0.1,0.2c0,0.8,0,2.1,0.1,2.4c-0.2,0-0.4,0-0.7,0
		c-0.2,0-0.4,0-0.7,0c0-0.2,0.1-1,0.1-3.1c0-1.7,0-2.3-0.1-2.6c0.4,0,0.7,0,1.1,0c0.3,0,0.6,0,1.2,0c1,0,1.6,0.6,1.6,1.4
		c0,0.8-0.6,1.4-1.4,1.5L456.6,756z M454,750.6h-0.4c0,1,0,1.6,0,2.3c0.4,0,1.3,0,1.3-1.2C454.9,751,454.4,750.6,454,750.6z"/>
	<path class="st0" d="M222.5,762.5c-1.3,9.2-1.8,18.5-2.4,27.7c-1-0.2-2-0.3-2.9-0.3c-1,0-1.9,0.1-2.9,0.3c2.6-14,4.6-28,6.3-42.1
		c0.9,0.2,1.6,0.3,2.5,0.3c0.8,0,1.6-0.1,2.4-0.3c4.4,9.7,9.6,20.5,14.1,29.1c4.8-9.1,9.8-19.4,14.2-29.1c0.9,0.2,1.8,0.3,2.6,0.3
		c0.9,0,1.7-0.1,2.6-0.3c1.6,14,3.7,33.5,5.2,42.1c-1.6-0.2-3.3-0.3-4.9-0.3c-1.6,0-3.4,0.1-5.1,0.3c-0.4-8.5-1.5-18.8-2.4-28.3
		h-0.1c-4.6,9.4-9.1,18.8-13.5,28.3c-0.4-0.1-0.8-0.1-1.2-0.1c-0.4,0-0.8,0.1-1.2,0.1c-4.3-9.2-8.7-18.5-13.3-27.7"/>
	<path class="st0" d="M291.9,747.4c12.9,0,23.1,7.1,23.1,21.8c0,12.1-9.7,21.9-23.3,21.9c-12.9,0-23.2-6.6-23.2-21.8
		C268.5,757.2,277.7,747.4,291.9,747.4z M291.7,750.8c-8.3,0-13.2,8.4-13.2,18.9c0,13,6,17.5,12.8,17.5c7.3,0,13.7-6.1,13.7-19.4
		C305,757.3,299.6,750.8,291.7,750.8z"/>
	<path class="st0" d="M322.5,765c0-6.8-0.1-11.5-0.5-16.9c1.3,0.1,3,0.3,5,0.3c2,0,3.7-0.2,5-0.3c-0.4,5.4-0.5,10.1-0.5,16.9v8.3
		c0,4.5,0.1,9.1,0.1,12.3c4.6,0,9.3-0.2,14-0.8c-0.1,0.9-0.2,1.5-0.2,2.7c0,1.3,0.1,1.9,0.2,2.6c-2.2-0.1-5.1-0.3-10.7-0.3
		c-9.9,0-11.6,0.2-12.9,0.3c0.4-5.4,0.5-10.1,0.5-16.9"/>
	<path class="st0" d="M353.2,765c0-6.8-0.1-11.5-0.5-16.9c1.3,0.1,3,0.3,5,0.3c2,0,3.7-0.2,5-0.3c-0.4,5.4-0.5,10.1-0.5,16.9v8.3
		c0,6.8,0.1,11.5,0.5,16.9c-1.3-0.1-3-0.3-5-0.3c-2,0-3.7,0.2-5,0.3c0.4-5.4,0.5-10.1,0.5-16.9"/>
	<path class="st0" d="M373.5,748.2c0.9,0.2,1.8,0.3,2.7,0.3c0.9,0,1.8-0.1,2.7-0.3c8.8,9.7,17.5,19.3,26.5,29c0-9.7,0-26.3-0.4-29
		c0.9,0.2,1.8,0.3,2.7,0.3c0.9,0,1.8-0.1,2.7-0.3c-1,17.7-1,25.8-1,42.1c-0.9-0.2-1.6-0.3-2.5-0.3c-0.9,0-1.6,0.1-2.4,0.3
		c-8.4-9.9-17.2-19.7-26.6-29.6c-0.1,4.6-0.1,9.6-0.1,14.2c0,9.7,0.2,13.2,0.4,15.4c-1-0.2-1.9-0.3-2.9-0.3s-1.9,0.1-2.8,0.3
		c0.3-1.8,1.2-17.5,1.2-29.9C373.8,754.8,373.6,751.1,373.5,748.2z"/>
	<path class="st0" d="M454,790.2c-1.9-0.1-3.7-0.3-5.4-0.3c-1.7,0-3.5,0.2-5.2,0.3c-1.3-4.1-2.7-8.3-4.2-12.5
		c-2.6-0.1-5.2-0.1-7.8-0.1c-2.1,0-4.2,0.1-6.3,0.1c-1.6,4.1-3,8.3-4.1,12.5c-1-0.1-1.9-0.3-2.9-0.3s-1.9,0.2-3.1,0.3
		c3-6.8,12.1-28.5,17.4-42.4c0.8,0.1,1.5,0.3,2.3,0.3c0.8,0,1.5-0.2,2.3-0.3C442.2,761.8,449.4,780.3,454,790.2z M437.8,774.1
		c-1.8-4.9-3.5-9.8-5.4-14.5c-2.1,4.8-4,9.6-5.7,14.5"/>
	<path class="st0" d="M231.1,811.4c-1.9,0-3.7-0.1-5.5-0.1c-1.8,0-3.7,0.1-5.5,0.1v2.1c0,4.1,0.1,6.9,0.3,10.1
		c-0.8-0.1-1.8-0.2-3-0.2c-1.2,0-2.2,0.1-3,0.2c0.2-3.2,0.3-6,0.3-10.1v-4.9c0-4.1-0.1-6.9-0.3-10.1c0.8,0.1,1.8,0.2,3,0.2
		c1.2,0,2.2-0.1,3-0.2c-0.2,3.2-0.3,6-0.3,10c1.2,0,3,0.1,5.6,0.1c2.6,0,4.1,0,5.5-0.1c0-4-0.1-6.8-0.3-10c0.8,0.1,1.8,0.2,3,0.2
		c1.2,0,2.2-0.1,3-0.2c-0.2,3.2-0.3,6-0.3,10.1v4.9c0,4.1,0.1,6.9,0.3,10.1c-0.8-0.1-1.8-0.2-3-0.2c-1.2,0-2.2,0.1-3,0.2
		c0.2-3.2,0.3-6,0.3-10.1"/>
	<path class="st0" d="M245.1,808.5c0-4.1-0.1-6.9-0.3-10.1c2.1,0,4.3,0.2,6.5,0.2c3.6,0,6.6-0.1,7.6-0.2c-0.1,0.4-0.1,0.9-0.1,1.5
		c0,0.8,0.1,1.1,0.1,1.6c-2.8-0.2-7.1-0.4-8.2-0.4c-0.2,2.6-0.2,5.3-0.2,7.9c3.2-0.1,5.5-0.1,8.2-0.3c-0.1,0.8-0.2,1.2-0.2,1.6
		c0,0.4,0.1,0.7,0.2,1.5c-2.8-0.2-5.5-0.3-8.2-0.3c0,1.5,0,3.1,0,4.6c0,1.5,0,3.1,0.1,4.5c2.7,0,5.5-0.1,8.3-0.5
		c-0.1,0.5-0.1,0.9-0.1,1.6c0,0.8,0.1,1.1,0.1,1.6c-1.3,0-3-0.2-6.4-0.2c-5.9,0-6.9,0.1-7.7,0.2c0.2-3.2,0.3-6,0.3-10.1"/>
	<path class="st0" d="M286.5,823.5c-1.2-0.1-2.2-0.2-3.2-0.2c-1,0-2.1,0.1-3.1,0.2c-0.8-2.5-1.6-5-2.5-7.4c-1.6,0-3.1-0.1-4.6-0.1
		c-1.3,0-2.5,0-3.8,0.1c-1,2.5-1.8,4.9-2.5,7.4c-0.6-0.1-1.1-0.2-1.7-0.2c-0.6,0-1.1,0.1-1.8,0.2c1.8-4,7.2-17,10.4-25.2
		c0.5,0.1,0.9,0.2,1.4,0.2c0.5,0,0.9-0.1,1.4-0.2C279.5,806.5,283.8,817.6,286.5,823.5z M276.9,813.9c-1.1-2.9-2.1-5.8-3.2-8.6
		c-1.2,2.8-2.4,5.7-3.4,8.6"/>
	<path class="st0" d="M292.7,808.5c0-4.1-0.1-6.9-0.3-10.1c0.8,0.1,1.8,0.2,3,0.2c1.2,0,2.2-0.1,3-0.2c-0.2,3.2-0.3,6-0.3,10.1v4.9
		c0,2.7,0,5.5,0.1,7.3c2.7,0,5.5-0.1,8.3-0.5c-0.1,0.5-0.1,0.9-0.1,1.6c0,0.8,0.1,1.1,0.1,1.6c-1.3,0-3-0.2-6.4-0.2
		c-5.9,0-6.9,0.1-7.7,0.2c0.2-3.2,0.3-6,0.3-10.1"/>
	<path class="st0" d="M315,804.3c0-1.4,0-2.7-0.1-3.2c-1.4,0-4.5,0.2-6.6,0.5c0.1-0.5,0.2-1.1,0.2-1.6c0-0.5-0.1-1.1-0.2-1.6
		c3.3,0.1,4.9,0.2,9.4,0.2c4.5,0,6.1-0.1,9.2-0.2c-0.1,0.5-0.2,1.1-0.2,1.6c0,0.5,0.1,1.1,0.2,1.6c-2-0.3-5-0.5-6.5-0.5
		c-0.1,0.5-0.1,1.8-0.1,3.2v9.1c0,4.1,0.1,6.9,0.3,10.1c-0.8-0.1-1.8-0.2-3-0.2c-1.2,0-2.2,0.1-3,0.2c0.2-3.2,0.3-6,0.3-10.1"/>
	<path class="st0" d="M349.8,811.4c-1.9,0-3.7-0.1-5.5-0.1c-1.8,0-3.7,0.1-5.5,0.1v2.1c0,4.1,0.1,6.9,0.3,10.1
		c-0.8-0.1-1.8-0.2-3-0.2c-1.2,0-2.2,0.1-3,0.2c0.2-3.2,0.3-6,0.3-10.1v-4.9c0-4.1-0.1-6.9-0.3-10.1c0.8,0.1,1.8,0.2,3,0.2
		c1.2,0,2.2-0.1,3-0.2c-0.2,3.2-0.3,6-0.3,10c1.2,0,3,0.1,5.6,0.1c2.6,0,4.1,0,5.5-0.1c0-4-0.1-6.8-0.3-10c0.8,0.1,1.8,0.2,3,0.2
		c1.2,0,2.2-0.1,3-0.2c-0.2,3.2-0.3,6-0.3,10.1v4.9c0,4.1,0.1,6.9,0.3,10.1c-0.8-0.1-1.8-0.2-3-0.2c-1.2,0-2.2,0.1-3,0.2
		c0.2-3.2,0.3-6,0.3-10.1"/>
	<path class="st0" d="M383.8,819.3c-0.4,1-0.7,2.1-0.8,3.1c-1.9,1-4.4,1.6-7.4,1.6c-8.4,0-13.4-5.3-13.4-12.1
		c0-10,6.8-13.9,14.4-13.9c2.5,0,5.7,0.8,7.4,1.8c-0.5,1.2-0.7,2.5-0.8,3.7h-0.5c-1.8-2.3-3.7-3.2-6.2-3.2c-3.9,0-8.3,3.4-8.3,11.1
		c0,7.5,4.4,10.4,8.6,10.4c2.3,0,5-1.1,6.6-2.7"/>
	<path class="st0" d="M410.4,823.5c-1.2-0.1-2.2-0.2-3.2-0.2c-1,0-2.1,0.1-3.1,0.2c-0.8-2.5-1.6-5-2.5-7.4c-1.6,0-3.1-0.1-4.6-0.1
		c-1.3,0-2.5,0-3.8,0.1c-1,2.5-1.8,4.9-2.5,7.4c-0.6-0.1-1.1-0.2-1.7-0.2c-0.6,0-1.1,0.1-1.8,0.2c1.8-4,7.2-17,10.4-25.2
		c0.5,0.1,0.9,0.2,1.4,0.2s0.9-0.1,1.4-0.2C403.4,806.5,407.7,817.6,410.4,823.5z M400.8,813.9c-1.1-2.9-2.1-5.8-3.2-8.6
		c-1.2,2.8-2.4,5.7-3.4,8.6"/>
	<path class="st0" d="M422.4,811.9H422v1.5c0,4.1,0.1,6.9,0.3,10.1c-0.8-0.1-1.8-0.2-3-0.2c-1.2,0-2.2,0.1-3,0.2
		c0.2-3.2,0.3-6,0.3-10.1v-4.9c0-4.1-0.1-6.9-0.3-10.1c0.8,0.1,1.8,0.2,3,0.2c1.3,0,2.9-0.2,5.3-0.2c3.7,0,5,0.3,6.3,1.2
		c1.5,1.1,2.4,2.7,2.4,4.8c0,3.5-2,5.8-5.6,6.7c2.3,4.1,5.1,8.2,7.7,12.4c-1.1-0.1-2.2-0.2-3.3-0.2c-1.1,0-2.2,0.1-3.3,0.2
		L422.4,811.9z M422.1,800.5c-0.1,3.3-0.1,6.6-0.1,9.9c0.3,0,0.5,0.1,0.8,0.1c3.2,0,4.9-1.8,4.9-5.2
		C427.8,801,426.1,800.5,422.1,800.5z"/>
	<path class="st0" d="M441,808.5c0-4.1-0.1-6.9-0.3-10.1c2.1,0,4.3,0.2,6.5,0.2c3.6,0,6.6-0.1,7.6-0.2c-0.1,0.4-0.1,0.9-0.1,1.5
		c0,0.8,0.1,1.1,0.1,1.6c-2.8-0.2-7.1-0.4-8.2-0.4c-0.2,2.6-0.2,5.3-0.2,7.9c3.2-0.1,5.5-0.1,8.2-0.3c-0.1,0.8-0.2,1.2-0.2,1.6
		c0,0.4,0.1,0.7,0.2,1.5c-2.8-0.2-5.5-0.3-8.2-0.3c0,1.5,0,3.1,0,4.6c0,1.5,0,3.1,0.1,4.5c2.7,0,5.5-0.1,8.3-0.5
		c-0.1,0.5-0.1,0.9-0.1,1.6c0,0.8,0.1,1.1,0.1,1.6c-1.3,0-3-0.2-6.4-0.2c-5.9,0-6.9,0.1-7.7,0.2c0.2-3.2,0.3-6,0.3-10.1"/>
	<path class="st1" d="M205,823.4h-38.8c0,0,0.1-55.3,0-60.9c-0.1-10.7-13.3-14.4-13.3-14.4h26c7.9,0,26,3.3,26,17.8
		C204.9,771.9,205,823.4,205,823.4z"/>
	<path class="st1" d="M172,743.6c8.1,0,14.7-6.9,14.7-15.5c0-8.5-6.6-15.5-14.7-15.5c-8.1,0-14.7,6.9-14.7,15.5
		C157.3,736.6,163.9,743.6,172,743.6z"/>
	<path class="st1" d="M161.6,823.4h-38.7c0,0,0.1-55.3,0-60.9c-0.1-10.7-13.3-14.4-13.3-14.4h26c7.8,0,26,3.3,26,17.8
		C161.6,771.9,161.6,823.4,161.6,823.4z"/>
	<path class="st1" d="M129.1,743.5c8.1,0,14.7-6.9,14.7-15.5c0-8.5-6.6-15.5-14.7-15.5c-8.1,0-14.7,6.9-14.7,15.5
		C114.3,736.6,120.9,743.5,129.1,743.5z"/>
	<path class="st1" d="M118.4,823.4H85.5c0,0,0.1-36,0-40.2c-0.1-8-9.9-10.8-9.9-10.8h23.3c5.9,0,19.5,2.5,19.5,13.3
		C118.4,790.3,118.4,823.4,118.4,823.4z"/>
	<path class="st1" d="M91.3,767.7c6.1,0,11-5.2,11-11.6c0-6.4-4.9-11.6-11-11.6c-6.1,0-11,5.2-11,11.6
		C80.3,762.5,85.2,767.7,91.3,767.7z"/>
</g>
</svg>
