<?xml version="1.0" encoding="utf-8"?>
<!-- Generator: Adobe Illustrator 28.3.0, SVG Export Plug-In . SVG Version: 6.00 Build 0)  -->
<svg version="1.1" id="Layer_1" xmlns:xodm="http://www.corel.com/coreldraw/odm/2003"
	 xmlns="http://www.w3.org/2000/svg" xmlns:xlink="http://www.w3.org/1999/xlink" x="0px" y="0px" viewBox="0 0 718 201"
	 style="enable-background:new 0 0 718 201;" xml:space="preserve">
<style type="text/css">
	.st0{fill:#2854A1;}
</style>
<g id="Layer_x0020_1">
	<path id="oscar-health-1.svg" class="st0" d="M649.8,44.2l-1.5,0V31.9h-25.5V169h29.7V92.5c0-12.4,1.7-26.6,14.3-32.9
		c5.1-2.7,13.4-5,19.3-5V28C671.7,28.5,658.5,32.2,649.8,44.2L649.8,44.2z M529.4,149.4c-27.3,0-48.6-22.6-48.6-48.5
		c0-26.9,20.6-49.2,48.9-49.2c29.1,0,49.4,21.6,49.4,49.2C579.1,127.5,557.2,149.4,529.4,149.4L529.4,149.4L529.4,149.4z
		 M577.2,49.6C566.5,35,548.1,28,529.7,28c-43.2,0-75.6,31.3-75.6,73.1c0,41.5,32.9,71.9,75.6,71.9c18.9,0,37.2-7.7,47.5-23.2V169
		h29.2V31.9h-29.2C577.2,31.9,577.2,49.6,577.2,49.6z M376.7,51.6c19,0,32.1,9.7,40.1,25.9h29.6C438.4,47.9,407,28,376.4,28
		c-42.2,0-73.3,32.1-73.3,72.4s30.6,72.6,73,72.6c32.7,0,59.7-19.4,70.2-49h-29.8c-7.5,15.9-22.1,25.4-40.4,25.4
		c-28.5,0-46.3-22.9-46.3-49C329.9,73.3,347.4,51.6,376.7,51.6L376.7,51.6L376.7,51.6z M249.9,84.2c-9.8-3-22.1-5.7-22.1-17.9
		c0-9.2,7.7-14.7,16.7-14.7c10.8,0,17,6.7,18.3,16.7h26.7C289,44.4,270.2,28,245.8,28C222.4,28,201,44.2,201,67.8
		c0,48.8,65.1,33.8,65.1,62.7c0,11.9-8.7,18.9-20.6,18.9c-15.9,0-19.8-10.9-20.8-25.1h-29.4c0,21.6,10.3,38.3,31.4,45.5
		c5.9,2,12.1,3.2,18.3,3.2c27.3,0,47.8-16.9,47.8-44C292.8,102.4,273.3,91.2,249.9,84.2L249.9,84.2z M112.8,149.4
		c-27.8,0-50.1-22.1-50.1-49c0-26.9,22.4-48.7,50.1-48.7c27.8,0,50.1,21.6,50.1,48.5S140.9,149.4,112.8,149.4z M112.8,28
		c-41.1,0-76.9,31.1-76.9,71.6c0,40.8,35,73.4,76.9,73.4c43.2,0,76.9-33.6,76.9-72.9C189.7,59.3,154.5,28,112.8,28z"/>
</g>
</svg>
