<?xml version="1.0" encoding="UTF-8"?>
<!DOCTYPE svg PUBLIC "-//W3C//DTD SVG 1.1//EN" "http://www.w3.org/Graphics/SVG/1.1/DTD/svg11.dtd">
<!-- Creator: CorelDRAW 2021 (64-Bit) -->
<svg xmlns="http://www.w3.org/2000/svg" xml:space="preserve" width="900px" height="182px" version="1.1" style="shape-rendering:geometricPrecision; text-rendering:geometricPrecision; image-rendering:optimizeQuality; fill-rule:evenodd; clip-rule:evenodd"
viewBox="0 0 361.03 72.99"
 xmlns:xlink="http://www.w3.org/1999/xlink"
 xmlns:xodm="http://www.corel.com/coreldraw/odm/2003">
 <defs>
  <style type="text/css">
   <![CDATA[
    .fil0 {fill:#1F3570}
    .fil1 {fill:#7E868A}
   ]]>
  </style>
 </defs>
 <g id="Layer_x0020_1">
  <metadata id="CorelCorpID_0Corel-Layer"/>
  <g id="unitedhealthcare-2.svg">
   <g>
    <g>
     <path class="fil0" d="M48.02 30.53l11.68 0 0 1.57c-3.16,0.19 -3.46,0.77 -3.46,3.3l0 20.93c0,4.52 2.58,6.86 6.18,6.86 4.14,0 6.67,-2.63 6.67,-6.95l0 -20.36c0,-2.52 -0.78,-3.59 -3.75,-3.78l0 -1.57 9.32 0 0 1.57c-2.96,0.19 -3.74,1.26 -3.74,3.78l0 19.29c0,6.02 -2.66,9.57 -9.42,9.57 -6.81,0 -10.02,-3.69 -10.02,-9.77l0 -19.57c0,-2.53 -0.29,-3.11 -3.46,-3.3l0 -1.57zm25.94 33.43l0 -1.56c2.33,-0.1 3.11,-0.98 3.11,-2.44l0 -15.21c0,-2.1 -0.58,-2.44 -3.21,-2.54l0 -1.51 7.1 -0.32 0 4.71 0.1 0c1.31,-2.72 3.21,-4.96 6.52,-4.96 4.04,0 5.93,2.63 5.93,6.91l0 12.93c0,1.64 0.68,2.33 3.02,2.43l0 1.56 -7.2 0 0 -17.31c0,-3.21 -1.21,-4.28 -2.87,-4.28 -2.58,0 -5.21,3.4 -5.21,8.17l0 9.43c0,1.45 0.78,2.33 3.11,2.43l0 1.56 -10.4 0zm30.95 -30.78c0,1.84 -1.02,3.11 -2.49,3.11 -1.46,0 -2.48,-1.27 -2.48,-3.11 0,-1.86 1.02,-3.12 2.48,-3.12 1.47,0 2.49,1.26 2.49,3.12l0 0zm-7.29 30.78l0 -1.56c2.33,-0.1 3.1,-0.98 3.1,-2.44l0 -15.47c0,-2.1 -0.58,-2.44 -3.1,-2.54l0 -1.57 7.29 -0.26 0 19.84c0,1.46 0.78,2.34 3.11,2.44l0 1.56 -10.4 0zm17.91 -32.22l0 8.96 5.86 0 0 1.83 -5.86 0 0 17.15c0,2.15 0.73,3.02 2.06,3.02 1.61,0 2.82,-1.02 2.82,-6.19l0 -1.36 1.57 0 0 2.29c0,4.92 -1.8,7.1 -5.47,7.1 -3.22,0 -5.15,-2.03 -5.15,-5.93l0 -16.08 -3.02 0 0 -1.45c3.5,-1.45 5.35,-3.11 5.64,-9.34l1.55 0zm26.35 20.43c0,-6.99 -3.4,-12.04 -8.79,-12.04 -5.5,0 -9.39,5.05 -9.39,12.19 0,6.09 3.99,12.22 10.02,12.22 5.44,0 7.83,-4.22 8.26,-8.57l-1.56 -0.29c-0.48,3.32 -1.99,7.02 -6.22,7.02 -3.25,0 -5.73,-3.7 -5.73,-10.53l13.41 0zm-13.41 -1.83c0,-6.23 1.84,-8.66 4.62,-8.66 2.57,0 4.03,2.43 4.03,8.66l-8.65 0zm26.64 -18.29c2.52,0.1 3.15,0.43 3.15,2.53l0 8.74 -0.09 0.04c-0.97,-1.89 -2.62,-3.24 -4.91,-3.24 -5.1,0 -8.94,5.24 -8.94,12.29 0,7.64 4.04,12.13 8.41,12.13 2.96,0 4.56,-1.72 5.63,-4l0.1 0 0 3.42 6.81 -0.29 0 -1.54c-1.94,0.04 -2.82,-0.73 -2.82,-3.37l0 -28.54 -7.34 0.31 0 1.52zm-6.02 20.41c0,-7.49 1.74,-10.51 4.42,-10.51 2.96,0 4.75,3.61 4.75,10.51 0,8.37 -2.57,10.51 -5.14,10.51 -2.43,0 -4.03,-3.02 -4.03,-10.51l0 0zm17.39 11.5l0 -1.56c2.92,-0.2 3.41,-0.79 3.41,-3.32l0 -23.69c0,-2.52 -0.49,-3.1 -3.41,-3.29l0 -1.57 11.76 0 0 1.57c-3.01,0.19 -3.59,0.77 -3.59,3.29l0 10.07 10.49 0 0 -10.07c0,-2.52 -0.59,-3.1 -3.6,-3.29l0 -1.57 11.76 0 0 1.57c-2.91,0.19 -3.4,0.77 -3.4,3.29l0 23.69c0,2.53 0.49,3.12 3.4,3.32l0 1.56 -11.76 0 0 -1.56c3.01,-0.2 3.6,-0.79 3.6,-3.32l0 -11.78 -10.49 0 0 11.78c0,2.53 0.58,3.12 3.59,3.32l0 1.56 -11.76 0zm45.72 -11.79c0,-6.99 -3.4,-12.04 -8.79,-12.04 -5.5,0 -9.39,5.05 -9.39,12.19 0,6.09 3.99,12.22 10.02,12.22 5.44,0 7.82,-4.22 8.26,-8.57l-1.56 -0.29c-0.49,3.32 -1.99,7.02 -6.22,7.02 -3.25,0 -5.73,-3.7 -5.73,-10.53l13.41 0zm-13.41 -1.83c0,-6.23 1.84,-8.66 4.62,-8.66 2.57,0 4.03,2.43 4.03,8.66l-8.65 0zm32.53 6.9c-0.1,3.51 -0.49,4.57 -1.41,4.57 -0.67,0 -1.01,-0.63 -1.01,-2.03l0 -13.53c0,-3.64 -2.1,-6.12 -7.54,-6.12 -4.23,0 -7.34,2.63 -7.34,5.93 0,1.94 0.97,2.92 2.33,2.92 1.36,0 2.44,-1.07 2.44,-2.82 0,-1.41 -0.49,-2.58 -2.05,-2.72 1.03,-1.22 2.43,-1.76 4.13,-1.76 2.58,0 3.85,1.22 3.85,3.99l0 3.99c-4.19,1.57 -11.85,3.85 -11.85,9.39 0,3.22 2.17,5.49 5.9,5.49 3.41,0 4.87,-1.6 6.04,-3.78l0.1 0c0.29,2.61 1.6,3.78 3.93,3.78 3.01,0 4.04,-2.18 4.04,-7.28l-1.56 -0.02zm-6.6 -2.95c0,5.5 -2.25,8.41 -4.73,8.41 -1.5,0 -2.67,-1.26 -2.67,-3.84 0,-4.14 3.5,-5.98 7.4,-7.35l0 2.78zm7.52 9.67l0 -1.56c2.33,-0.1 3.11,-0.98 3.11,-2.43l0 -25.3c0,-1.65 -0.83,-2.52 -3.21,-2.62l0 -1.55 7.39 -0.28 0 29.75c0,1.45 0.78,2.33 3.12,2.43l0 1.56 -10.41 0zm17.45 -32.22l0 8.96 5.86 0 0 1.83 -5.86 0 0 17.15c0,2.15 0.73,3.02 2.05,3.02 1.61,0 2.83,-1.02 2.83,-6.19l0 -1.36 1.56 0 0 2.29c0,4.92 -1.8,7.1 -5.47,7.1 -3.21,0 -5.15,-2.03 -5.15,-5.93l0 -16.08 -3.02 0 0 -1.45c3.5,-1.45 5.35,-3.11 5.65,-9.34l1.55 0zm6.27 32.22l0 -1.56c2.33,-0.1 3.12,-0.98 3.12,-2.43l0 -25.39c0,-2.1 -0.59,-2.43 -3.22,-2.53l0 -1.52 7.39 -0.31 0 14.29 0.1 0c0.97,-2.14 2.82,-4.38 6.09,-4.38 3.74,0 6.08,2.63 6.08,6.91l0 12.93c0,1.45 0.83,2.33 3.01,2.43l0 1.56 -7.19 0 0 -17.07c0,-3.4 -1.22,-4.52 -2.98,-4.52 -2.43,0 -5.11,3.2 -5.11,7.87l0 9.73c0,1.45 0.78,2.33 3.12,2.43l0 1.56 -10.41 0zm40.65 -8.07c-0.44,4.6 -2.57,8.71 -7.94,8.71 -4.93,0 -9.49,-4.41 -9.49,-11.61 0,-6.09 4.21,-12.93 10.09,-12.93 4.14,0 6.75,2.57 6.75,6.36 0,2.33 -0.72,3.59 -2.47,3.59 -1.35,0 -2.27,-1.17 -2.27,-2.91 0,-2.09 0.72,-2.92 1.98,-2.92 0.34,0 0.53,0.15 0.73,0.2l0.09 -0.1c-0.72,-1.8 -2.27,-2.69 -4.08,-2.69 -3.62,0 -6.07,3.67 -6.07,10.58 0,8.23 2.54,10.57 5.38,10.57 3.95,0 5.21,-3.62 5.75,-7.06l1.55 0.21zm20.18 1.41c-0.1,3.54 -0.48,4.63 -1.41,4.63 -0.67,0 -1.01,-0.64 -1.01,-2.07l0 -13.65c0,-3.69 -2.1,-6.15 -7.6,-6.15 -4.26,0 -7.36,2.61 -7.36,5.95 0,1.97 0.97,2.95 2.32,2.95 1.37,0 2.42,-1.08 2.42,-2.85 0,-1.43 -0.48,-2.61 -2.03,-2.76 1.02,-1.22 2.43,-1.76 4.16,-1.76 2.61,0 3.89,1.22 3.89,4.03l0 4.03c-4.21,1.53 -11.93,3.84 -11.93,9.42 0,3.23 2.19,5.53 5.95,5.53 3.43,0 4.9,-1.61 6.08,-3.82l0.1 0c0.29,2.65 1.6,3.82 3.95,3.82 3,0 4,-2.19 4,-7.34l-1.53 0.04zm-6.62 -3.03c0,5.53 -2.25,8.47 -4.75,8.47 -1.52,0 -2.7,-1.26 -2.7,-3.86 0,-4.17 3.53,-6.03 7.45,-7.4l0 2.79zm8.75 9.72l0 -1.52c2.05,-0.1 2.83,-0.98 2.83,-2.46l0 -13.3c0,-3.33 -0.59,-4.41 -3.03,-4.5l0 -1.58 6.73 -0.29 0 5.65 0.1 0c0.64,-2.54 2.37,-5.93 5.27,-5.93 1.8,0 3.55,1.48 3.55,4.22 0,2.11 -1.01,3.19 -2.28,3.19 -1.07,0 -2.2,-0.69 -2.2,-2.89 0,-1.18 0.69,-2.4 2.09,-2.4 -0.23,-0.39 -0.72,-0.59 -1.26,-0.59 -3.28,0.04 -4.78,7.2 -4.78,11.46l0 6.96c0,1.47 0.77,2.36 4.05,2.46l0 1.52 -11.07 0zm33.64 -11.75c0,-7.1 -3.39,-12.18 -8.8,-12.18 -5.52,0 -9.39,5.08 -9.39,12.33 0,6.08 3.98,12.21 10.02,12.21 5.46,0 7.83,-4.24 8.26,-8.56l-1.52 -0.3c-0.49,3.31 -2,7 -6.25,7 -3.28,0 -5.76,-3.69 -5.76,-10.5l13.44 0zm-13.44 -1.86c0,-6.32 1.85,-8.79 4.63,-8.79 2.59,0 4.06,2.47 4.06,8.79l-8.69 0zm14.51 -14.06l0.87 0c0.46,0 0.61,0.34 0.61,0.64 0,0.37 -0.2,0.67 -0.61,0.67l-0.87 0 0 -1.31zm0 1.85l0.67 0c0.2,0 0.58,0.03 0.63,0.48 0.05,0.56 0.02,1.11 0.18,1.4l0.66 0c-0.09,-0.27 -0.15,-0.92 -0.17,-1.1 -0.02,-0.84 -0.2,-1.01 -0.73,-1.06l0 -0.02c0.54,-0.1 0.91,-0.48 0.91,-0.98 0,-0.52 -0.36,-1.04 -1.17,-1.04l-1.67 0 0 4.2 0.69 0 0 -1.88zm0.68 -3.87c-2.01,0 -3.65,1.62 -3.65,3.63 0,0 0,0.01 0,0.01 0,2.01 1.63,3.64 3.64,3.64 0.01,0 0.01,0 0.01,0 2,0 3.63,-1.62 3.63,-3.65 0,-2 -1.62,-3.63 -3.63,-3.63 0,0 0,0 0,0l0 0zm3.63 4.17c0,0 0,0 0.01,0 1.7,0 3.08,1.38 3.08,3.08 0,0 0,0.01 0,0.01 0,1.73 -1.37,3.1 -3.09,3.1 -0.01,0 -0.01,0 -0.02,0 -1.7,0 -3.09,-1.38 -3.09,-3.09 0,0 0,-0.01 0,-0.01 0,-1.71 1.39,-3.09 3.11,-3.09l0 0z"/>
    </g>
    <path class="fil1" d="M11.32 69.99c-1.43,-0.33 -2.76,-1.56 -3.27,-2.94 -1.51,-0.25 -2.8,-1.51 -3.35,-3.17 0.02,0 0.03,0 0.04,0l5.23 0.59c2.04,-0.76 4.97,-3.11 6.59,-8.91 1.14,-4.1 1.31,-10.29 1.31,-17.35l0 -27.4 -3.26 -0.72 6.18 -3.31 0 34.16c0,6.11 -0.24,11.52 -1.52,15.86 -0.8,3.14 -4.13,9.55 -9.91,10.32l4.08 0.49c3.7,-0.92 6.74,-4.28 8.43,-8.61 1.93,-5.04 2.24,-11.77 2.24,-19.71l0 -31.77 -3.32 -0.74 6.28 -3.36 0 37.28c0,9.34 -0.99,15.83 -3.03,20.4 -1.42,3.08 -5.36,8.96 -11.38,9.02l4.67 0.56c3.59,-0.62 7.37,-3.62 9.62,-8.27 2.41,-4.97 3.51,-12.33 3.51,-23.12l0 -35.12 -3.39 -0.75 6.38 -3.42 0 39.58c0,14.83 -2.26,25.82 -9.37,30.75 -2.26,1.51 -4.63,2.77 -7.54,2.65 -2.13,-0.09 -4.09,-1.08 -5.22,-2.99l0 0z"/>
    <path class="fil0" d="M5.68 63.96l-0.01 0 0.09 0c0.02,0 0.04,0 0.08,-0.01 0.03,0 0.05,0 0.08,0 0.03,0 0.06,0 0.09,-0.01 0.03,0 0.06,0 0.08,0 0.04,-0.01 0.07,-0.01 0.11,-0.01 0.02,0 0.05,-0.01 0.08,-0.01 0.04,-0.01 0.07,-0.01 0.11,-0.02 0.03,0 0.05,0 0.08,-0.01 0.05,0 0.09,-0.01 0.13,-0.02 0.02,0 0.05,-0.01 0.07,-0.01 0.05,-0.01 0.1,-0.02 0.14,-0.03 0.03,-0.01 0.06,-0.02 0.09,-0.02 0.04,-0.01 0.09,-0.02 0.14,-0.04 0.03,-0.01 0.05,-0.01 0.08,-0.02 0.06,-0.01 0.1,-0.03 0.16,-0.05 0.02,-0.01 0.05,-0.01 0.08,-0.03 0.05,-0.01 0.11,-0.03 0.16,-0.05 0.02,-0.01 0.05,-0.02 0.08,-0.03 0.05,-0.02 0.11,-0.04 0.16,-0.07 0.03,-0.01 0.06,-0.02 0.09,-0.04 0.05,-0.02 0.11,-0.05 0.17,-0.07 0.02,-0.01 0.05,-0.03 0.08,-0.04 0.06,-0.03 0.12,-0.06 0.18,-0.09 0.03,-0.01 0.05,-0.03 0.08,-0.05 0.06,-0.03 0.12,-0.07 0.18,-0.1 0.03,-0.02 0.05,-0.03 0.08,-0.05 0.06,-0.04 0.13,-0.08 0.19,-0.12 0.02,-0.02 0.05,-0.04 0.08,-0.06 0.06,-0.04 0.12,-0.08 0.18,-0.13 0.03,-0.02 0.06,-0.04 0.09,-0.07 0.06,-0.04 0.12,-0.09 0.19,-0.14 0.03,-0.02 0.06,-0.05 0.08,-0.07 0.07,-0.06 0.13,-0.11 0.19,-0.16 0.03,-0.03 0.06,-0.06 0.08,-0.09 0.07,-0.05 0.13,-0.11 0.19,-0.17 0.03,-0.03 0.07,-0.06 0.1,-0.1 0.06,-0.06 0.11,-0.12 0.17,-0.18 0.04,-0.04 0.08,-0.08 0.11,-0.12 0.06,-0.06 0.11,-0.13 0.17,-0.2 0.03,-0.03 0.06,-0.08 0.1,-0.12 0.06,-0.07 0.12,-0.14 0.17,-0.21 0.03,-0.05 0.07,-0.09 0.1,-0.14 0.06,-0.08 0.11,-0.15 0.17,-0.22 0.04,-0.05 0.07,-0.11 0.11,-0.16 0.05,-0.08 0.1,-0.16 0.15,-0.24 0.04,-0.06 0.08,-0.12 0.12,-0.18 0.05,-0.08 0.1,-0.16 0.15,-0.25 0.04,-0.06 0.07,-0.12 0.1,-0.19 0.06,-0.09 0.11,-0.18 0.16,-0.26 0.04,-0.08 0.07,-0.15 0.1,-0.21 0.05,-0.09 0.11,-0.19 0.15,-0.29 0.04,-0.07 0.08,-0.16 0.12,-0.24 0.04,-0.09 0.09,-0.18 0.13,-0.28 0.04,-0.09 0.08,-0.18 0.12,-0.28 0.04,-0.09 0.08,-0.18 0.13,-0.28 0.03,-0.1 0.07,-0.19 0.11,-0.29 0.03,-0.1 0.08,-0.2 0.12,-0.31 0.03,-0.09 0.07,-0.2 0.1,-0.29 0.04,-0.12 0.09,-0.23 0.13,-0.35 0.04,-0.13 0.08,-0.27 0.13,-0.41 0.03,-0.09 0.06,-0.17 0.09,-0.26 0.07,-0.23 0.13,-0.47 0.2,-0.71 0.97,-3.48 1.21,-10.54 1.21,-15.23l0 -29.98 -14.61 7.83 0 30.89c0,11.79 2.12,14.61 4.74,15.07 -0.01,0 -0.02,0 -0.04,0l0.98 0.08z"/>
   </g>
  </g>
 </g>
</svg>
